M48
; DRILL file KiCad 10.0.4 date 2026-07-16T01:56:02
; FORMAT={-:-/ absolute / metric / decimal}
; #@! TF.CreationDate,2026-07-16T01:56:02-07:00
; #@! TF.GenerationSoftware,Kicad,Pcbnew,10.0.4
; #@! TF.FileFunction,MixedPlating,1,2
FMAT,2
METRIC
; #@! TA.AperFunction,Plated,PTH,ViaDrill
T1C0.300
; #@! TA.AperFunction,Plated,PTH,ComponentDrill
T2C0.500
; #@! TA.AperFunction,Plated,PTH,ComponentDrill
T3C0.813
; #@! TA.AperFunction,Plated,PTH,ComponentDrill
T4C0.838
; #@! TA.AperFunction,Plated,PTH,ComponentDrill
T5C0.900
; #@! TA.AperFunction,Plated,PTH,ComponentDrill
T6C1.000
; #@! TA.AperFunction,Plated,PTH,ComponentDrill
T7C1.200
; #@! TA.AperFunction,NonPlated,NPTH,ComponentDrill
T8C0.600
; #@! TA.AperFunction,NonPlated,NPTH,ComponentDrill
T9C3.200
%
G90
G05
T1
X69.75Y-75.75
X70.25Y-96.5
X71.175Y-89.75
X71.75Y-94.75
X78.3Y-83.0
X79.7Y-83.0
X81.25Y-77.75
X81.5Y-70.75
X82.745Y-104.495
X82.967Y-98.75
X83.0Y-66.25
X83.0Y-72.25
X84.5Y-105.95
X84.542Y-104.55
X84.75Y-72.75
X85.5Y-67.0
X85.5Y-69.25
X85.5Y-98.75
X85.75Y-75.5
X86.0Y-102.5
X88.25Y-72.0
X90.5Y-65.75
X93.75Y-71.25
X94.25Y-67.75
X98.5Y-73.25
X99.25Y-68.25
X104.5Y-68.6
X104.5Y-70.35
X105.5Y-74.75
X107.25Y-74.75
X108.5Y-66.0
X108.5Y-68.0
X108.5Y-72.25
X108.75Y-80.75
X109.25Y-76.0
X109.25Y-77.0
X109.75Y-80.75
X111.25Y-75.25
X111.5Y-68.0
X111.5Y-70.5
X111.75Y-109.0
X112.0Y-80.5
X112.75Y-64.75
X112.75Y-73.5
T3
X82.36Y-82.69
X82.36Y-90.31
X84.9Y-82.69
X84.9Y-90.31
X87.44Y-82.69
X87.44Y-90.31
X89.98Y-82.69
X89.98Y-90.31
X92.52Y-82.69
X92.52Y-90.31
X95.06Y-82.69
X95.06Y-90.31
X97.6Y-82.69
X97.6Y-90.31
X100.14Y-82.69
X100.14Y-90.31
T4
X70.356Y-103.006
X70.714Y-105.945
X71.407Y-100.235
X72.395Y-108.383
X73.625Y-98.271
X75.019Y-109.76
X76.5Y-97.563
X77.981Y-109.76
X79.375Y-98.271
X80.605Y-108.383
X81.593Y-100.235
X82.286Y-105.945
X82.644Y-103.006
T5
X78.5Y-59.5
X82.5Y-59.5
X86.5Y-59.5
T6
X95.46Y-59.25
X98.0Y-59.25
X100.54Y-59.25
X103.08Y-59.25
T7
X76.5Y-55.25
X76.5Y-61.25
X88.5Y-55.25
X88.5Y-61.25
X92.666Y-111.87
X97.746Y-96.63
X105.399Y-96.65
X105.399Y-111.87
T8
X110.5Y-67.25
X110.5Y-71.25
T9
X69.75Y-58.0
X69.75Y-117.0
X109.75Y-58.0
X109.75Y-117.0
T2
G00X112.5Y-66.425
M15
G01X113.2Y-66.425
M16
G05
G00X112.5Y-72.075
M15
G01X113.2Y-72.075
M16
G05
M30
