%TF.GenerationSoftware,KiCad,Pcbnew,10.0.4*%
%TF.CreationDate,2026-07-16T01:56:23-07:00*%
%TF.ProjectId,singleTube,73696e67-6c65-4547-9562-652e6b696361,rev?*%
%TF.SameCoordinates,Original*%
%TF.FileFunction,Legend,Bot*%
%TF.FilePolarity,Positive*%
%FSLAX46Y46*%
G04 Gerber Fmt 4.6, Leading zero omitted, Abs format (unit mm)*
G04 Created by KiCad (PCBNEW 10.0.4) date 2026-07-16 01:56:23*
%MOMM*%
%LPD*%
G01*
G04 APERTURE LIST*
%ADD10C,0.200000*%
G04 APERTURE END LIST*
D10*
X74536339Y-72331504D02*
X74060149Y-72331504D01*
X74631577Y-72617219D02*
X74298244Y-71617219D01*
X74298244Y-71617219D02*
X73964911Y-72617219D01*
X73203006Y-72617219D02*
X73203006Y-72093409D01*
X73203006Y-72093409D02*
X73250625Y-71998171D01*
X73250625Y-71998171D02*
X73345863Y-71950552D01*
X73345863Y-71950552D02*
X73536339Y-71950552D01*
X73536339Y-71950552D02*
X73631577Y-71998171D01*
X73203006Y-72569600D02*
X73298244Y-72617219D01*
X73298244Y-72617219D02*
X73536339Y-72617219D01*
X73536339Y-72617219D02*
X73631577Y-72569600D01*
X73631577Y-72569600D02*
X73679196Y-72474361D01*
X73679196Y-72474361D02*
X73679196Y-72379123D01*
X73679196Y-72379123D02*
X73631577Y-72283885D01*
X73631577Y-72283885D02*
X73536339Y-72236266D01*
X73536339Y-72236266D02*
X73298244Y-72236266D01*
X73298244Y-72236266D02*
X73203006Y-72188647D01*
X72298244Y-72617219D02*
X72298244Y-71617219D01*
X72298244Y-72569600D02*
X72393482Y-72617219D01*
X72393482Y-72617219D02*
X72583958Y-72617219D01*
X72583958Y-72617219D02*
X72679196Y-72569600D01*
X72679196Y-72569600D02*
X72726815Y-72521980D01*
X72726815Y-72521980D02*
X72774434Y-72426742D01*
X72774434Y-72426742D02*
X72774434Y-72141028D01*
X72774434Y-72141028D02*
X72726815Y-72045790D01*
X72726815Y-72045790D02*
X72679196Y-71998171D01*
X72679196Y-71998171D02*
X72583958Y-71950552D01*
X72583958Y-71950552D02*
X72393482Y-71950552D01*
X72393482Y-71950552D02*
X72298244Y-71998171D01*
X71822053Y-72617219D02*
X71822053Y-71950552D01*
X71822053Y-71617219D02*
X71869672Y-71664838D01*
X71869672Y-71664838D02*
X71822053Y-71712457D01*
X71822053Y-71712457D02*
X71774434Y-71664838D01*
X71774434Y-71664838D02*
X71822053Y-71617219D01*
X71822053Y-71617219D02*
X71822053Y-71712457D01*
X71488720Y-71950552D02*
X71107768Y-71950552D01*
X71345863Y-71617219D02*
X71345863Y-72474361D01*
X71345863Y-72474361D02*
X71298244Y-72569600D01*
X71298244Y-72569600D02*
X71203006Y-72617219D01*
X71203006Y-72617219D02*
X71107768Y-72617219D01*
X70012529Y-72617219D02*
X70012529Y-71617219D01*
X70012529Y-71617219D02*
X69679196Y-72331504D01*
X69679196Y-72331504D02*
X69345863Y-71617219D01*
X69345863Y-71617219D02*
X69345863Y-72617219D01*
X68869672Y-72521980D02*
X68822053Y-72569600D01*
X68822053Y-72569600D02*
X68869672Y-72617219D01*
X68869672Y-72617219D02*
X68917291Y-72569600D01*
X68917291Y-72569600D02*
X68869672Y-72521980D01*
X68869672Y-72521980D02*
X68869672Y-72617219D01*
X71631577Y-69450552D02*
X71393482Y-70117219D01*
X71393482Y-70117219D02*
X71155387Y-69450552D01*
X70583958Y-69117219D02*
X70488720Y-69117219D01*
X70488720Y-69117219D02*
X70393482Y-69164838D01*
X70393482Y-69164838D02*
X70345863Y-69212457D01*
X70345863Y-69212457D02*
X70298244Y-69307695D01*
X70298244Y-69307695D02*
X70250625Y-69498171D01*
X70250625Y-69498171D02*
X70250625Y-69736266D01*
X70250625Y-69736266D02*
X70298244Y-69926742D01*
X70298244Y-69926742D02*
X70345863Y-70021980D01*
X70345863Y-70021980D02*
X70393482Y-70069600D01*
X70393482Y-70069600D02*
X70488720Y-70117219D01*
X70488720Y-70117219D02*
X70583958Y-70117219D01*
X70583958Y-70117219D02*
X70679196Y-70069600D01*
X70679196Y-70069600D02*
X70726815Y-70021980D01*
X70726815Y-70021980D02*
X70774434Y-69926742D01*
X70774434Y-69926742D02*
X70822053Y-69736266D01*
X70822053Y-69736266D02*
X70822053Y-69498171D01*
X70822053Y-69498171D02*
X70774434Y-69307695D01*
X70774434Y-69307695D02*
X70726815Y-69212457D01*
X70726815Y-69212457D02*
X70679196Y-69164838D01*
X70679196Y-69164838D02*
X70583958Y-69117219D01*
X69822053Y-70021980D02*
X69774434Y-70069600D01*
X69774434Y-70069600D02*
X69822053Y-70117219D01*
X69822053Y-70117219D02*
X69869672Y-70069600D01*
X69869672Y-70069600D02*
X69822053Y-70021980D01*
X69822053Y-70021980D02*
X69822053Y-70117219D01*
X68822054Y-70117219D02*
X69393482Y-70117219D01*
X69107768Y-70117219D02*
X69107768Y-69117219D01*
X69107768Y-69117219D02*
X69203006Y-69260076D01*
X69203006Y-69260076D02*
X69298244Y-69355314D01*
X69298244Y-69355314D02*
X69393482Y-69402933D01*
X80048246Y-64757275D02*
X80048246Y-65471560D01*
X80048246Y-65471560D02*
X80095865Y-65614417D01*
X80095865Y-65614417D02*
X80191103Y-65709656D01*
X80191103Y-65709656D02*
X80333960Y-65757275D01*
X80333960Y-65757275D02*
X80429198Y-65757275D01*
X79143484Y-65090608D02*
X79143484Y-65757275D01*
X79572055Y-65090608D02*
X79572055Y-65614417D01*
X79572055Y-65614417D02*
X79524436Y-65709656D01*
X79524436Y-65709656D02*
X79429198Y-65757275D01*
X79429198Y-65757275D02*
X79286341Y-65757275D01*
X79286341Y-65757275D02*
X79191103Y-65709656D01*
X79191103Y-65709656D02*
X79143484Y-65662036D01*
X78667293Y-65090608D02*
X78667293Y-65757275D01*
X78667293Y-65185846D02*
X78619674Y-65138227D01*
X78619674Y-65138227D02*
X78524436Y-65090608D01*
X78524436Y-65090608D02*
X78381579Y-65090608D01*
X78381579Y-65090608D02*
X78286341Y-65138227D01*
X78286341Y-65138227D02*
X78238722Y-65233465D01*
X78238722Y-65233465D02*
X78238722Y-65757275D01*
X77381579Y-65709656D02*
X77476817Y-65757275D01*
X77476817Y-65757275D02*
X77667293Y-65757275D01*
X77667293Y-65757275D02*
X77762531Y-65709656D01*
X77762531Y-65709656D02*
X77810150Y-65614417D01*
X77810150Y-65614417D02*
X77810150Y-65233465D01*
X77810150Y-65233465D02*
X77762531Y-65138227D01*
X77762531Y-65138227D02*
X77667293Y-65090608D01*
X77667293Y-65090608D02*
X77476817Y-65090608D01*
X77476817Y-65090608D02*
X77381579Y-65138227D01*
X77381579Y-65138227D02*
X77333960Y-65233465D01*
X77333960Y-65233465D02*
X77333960Y-65328703D01*
X77333960Y-65328703D02*
X77810150Y-65423941D01*
X76905388Y-65376322D02*
X76143484Y-65376322D01*
X75381579Y-64757275D02*
X75381579Y-65471560D01*
X75381579Y-65471560D02*
X75429198Y-65614417D01*
X75429198Y-65614417D02*
X75524436Y-65709656D01*
X75524436Y-65709656D02*
X75667293Y-65757275D01*
X75667293Y-65757275D02*
X75762531Y-65757275D01*
X74476817Y-65090608D02*
X74476817Y-65757275D01*
X74905388Y-65090608D02*
X74905388Y-65614417D01*
X74905388Y-65614417D02*
X74857769Y-65709656D01*
X74857769Y-65709656D02*
X74762531Y-65757275D01*
X74762531Y-65757275D02*
X74619674Y-65757275D01*
X74619674Y-65757275D02*
X74524436Y-65709656D01*
X74524436Y-65709656D02*
X74476817Y-65662036D01*
X73857769Y-65757275D02*
X73953007Y-65709656D01*
X73953007Y-65709656D02*
X74000626Y-65614417D01*
X74000626Y-65614417D02*
X74000626Y-64757275D01*
X73572054Y-65090608D02*
X73333959Y-65757275D01*
X73095864Y-65090608D02*
X73333959Y-65757275D01*
X73333959Y-65757275D02*
X73429197Y-65995370D01*
X73429197Y-65995370D02*
X73476816Y-66042989D01*
X73476816Y-66042989D02*
X73572054Y-66090608D01*
X72000625Y-64852513D02*
X71953006Y-64804894D01*
X71953006Y-64804894D02*
X71857768Y-64757275D01*
X71857768Y-64757275D02*
X71619673Y-64757275D01*
X71619673Y-64757275D02*
X71524435Y-64804894D01*
X71524435Y-64804894D02*
X71476816Y-64852513D01*
X71476816Y-64852513D02*
X71429197Y-64947751D01*
X71429197Y-64947751D02*
X71429197Y-65042989D01*
X71429197Y-65042989D02*
X71476816Y-65185846D01*
X71476816Y-65185846D02*
X72048244Y-65757275D01*
X72048244Y-65757275D02*
X71429197Y-65757275D01*
X70810149Y-64757275D02*
X70714911Y-64757275D01*
X70714911Y-64757275D02*
X70619673Y-64804894D01*
X70619673Y-64804894D02*
X70572054Y-64852513D01*
X70572054Y-64852513D02*
X70524435Y-64947751D01*
X70524435Y-64947751D02*
X70476816Y-65138227D01*
X70476816Y-65138227D02*
X70476816Y-65376322D01*
X70476816Y-65376322D02*
X70524435Y-65566798D01*
X70524435Y-65566798D02*
X70572054Y-65662036D01*
X70572054Y-65662036D02*
X70619673Y-65709656D01*
X70619673Y-65709656D02*
X70714911Y-65757275D01*
X70714911Y-65757275D02*
X70810149Y-65757275D01*
X70810149Y-65757275D02*
X70905387Y-65709656D01*
X70905387Y-65709656D02*
X70953006Y-65662036D01*
X70953006Y-65662036D02*
X71000625Y-65566798D01*
X71000625Y-65566798D02*
X71048244Y-65376322D01*
X71048244Y-65376322D02*
X71048244Y-65138227D01*
X71048244Y-65138227D02*
X71000625Y-64947751D01*
X71000625Y-64947751D02*
X70953006Y-64852513D01*
X70953006Y-64852513D02*
X70905387Y-64804894D01*
X70905387Y-64804894D02*
X70810149Y-64757275D01*
X70095863Y-64852513D02*
X70048244Y-64804894D01*
X70048244Y-64804894D02*
X69953006Y-64757275D01*
X69953006Y-64757275D02*
X69714911Y-64757275D01*
X69714911Y-64757275D02*
X69619673Y-64804894D01*
X69619673Y-64804894D02*
X69572054Y-64852513D01*
X69572054Y-64852513D02*
X69524435Y-64947751D01*
X69524435Y-64947751D02*
X69524435Y-65042989D01*
X69524435Y-65042989D02*
X69572054Y-65185846D01*
X69572054Y-65185846D02*
X70143482Y-65757275D01*
X70143482Y-65757275D02*
X69524435Y-65757275D01*
X68667292Y-64757275D02*
X68857768Y-64757275D01*
X68857768Y-64757275D02*
X68953006Y-64804894D01*
X68953006Y-64804894D02*
X69000625Y-64852513D01*
X69000625Y-64852513D02*
X69095863Y-64995370D01*
X69095863Y-64995370D02*
X69143482Y-65185846D01*
X69143482Y-65185846D02*
X69143482Y-65566798D01*
X69143482Y-65566798D02*
X69095863Y-65662036D01*
X69095863Y-65662036D02*
X69048244Y-65709656D01*
X69048244Y-65709656D02*
X68953006Y-65757275D01*
X68953006Y-65757275D02*
X68762530Y-65757275D01*
X68762530Y-65757275D02*
X68667292Y-65709656D01*
X68667292Y-65709656D02*
X68619673Y-65662036D01*
X68619673Y-65662036D02*
X68572054Y-65566798D01*
X68572054Y-65566798D02*
X68572054Y-65328703D01*
X68572054Y-65328703D02*
X68619673Y-65233465D01*
X68619673Y-65233465D02*
X68667292Y-65185846D01*
X68667292Y-65185846D02*
X68762530Y-65138227D01*
X68762530Y-65138227D02*
X68953006Y-65138227D01*
X68953006Y-65138227D02*
X69048244Y-65185846D01*
X69048244Y-65185846D02*
X69095863Y-65233465D01*
X69095863Y-65233465D02*
X69143482Y-65328703D01*
X72333959Y-67748171D02*
X72381578Y-67700552D01*
X72381578Y-67700552D02*
X72476816Y-67557695D01*
X72476816Y-67557695D02*
X72524435Y-67462457D01*
X72524435Y-67462457D02*
X72572054Y-67319600D01*
X72572054Y-67319600D02*
X72619673Y-67081504D01*
X72619673Y-67081504D02*
X72619673Y-66891028D01*
X72619673Y-66891028D02*
X72572054Y-66652933D01*
X72572054Y-66652933D02*
X72524435Y-66510076D01*
X72524435Y-66510076D02*
X72476816Y-66414838D01*
X72476816Y-66414838D02*
X72381578Y-66271980D01*
X72381578Y-66271980D02*
X72333959Y-66224361D01*
X71524435Y-66367219D02*
X71714911Y-66367219D01*
X71714911Y-66367219D02*
X71810149Y-66414838D01*
X71810149Y-66414838D02*
X71857768Y-66462457D01*
X71857768Y-66462457D02*
X71953006Y-66605314D01*
X71953006Y-66605314D02*
X72000625Y-66795790D01*
X72000625Y-66795790D02*
X72000625Y-67176742D01*
X72000625Y-67176742D02*
X71953006Y-67271980D01*
X71953006Y-67271980D02*
X71905387Y-67319600D01*
X71905387Y-67319600D02*
X71810149Y-67367219D01*
X71810149Y-67367219D02*
X71619673Y-67367219D01*
X71619673Y-67367219D02*
X71524435Y-67319600D01*
X71524435Y-67319600D02*
X71476816Y-67271980D01*
X71476816Y-67271980D02*
X71429197Y-67176742D01*
X71429197Y-67176742D02*
X71429197Y-66938647D01*
X71429197Y-66938647D02*
X71476816Y-66843409D01*
X71476816Y-66843409D02*
X71524435Y-66795790D01*
X71524435Y-66795790D02*
X71619673Y-66748171D01*
X71619673Y-66748171D02*
X71810149Y-66748171D01*
X71810149Y-66748171D02*
X71905387Y-66795790D01*
X71905387Y-66795790D02*
X71953006Y-66843409D01*
X71953006Y-66843409D02*
X72000625Y-66938647D01*
X71000625Y-66986266D02*
X70238721Y-66986266D01*
X69857768Y-66367219D02*
X69191102Y-66367219D01*
X69191102Y-66367219D02*
X69619673Y-67367219D01*
X68905387Y-67748171D02*
X68857768Y-67700552D01*
X68857768Y-67700552D02*
X68762530Y-67557695D01*
X68762530Y-67557695D02*
X68714911Y-67462457D01*
X68714911Y-67462457D02*
X68667292Y-67319600D01*
X68667292Y-67319600D02*
X68619673Y-67081504D01*
X68619673Y-67081504D02*
X68619673Y-66891028D01*
X68619673Y-66891028D02*
X68667292Y-66652933D01*
X68667292Y-66652933D02*
X68714911Y-66510076D01*
X68714911Y-66510076D02*
X68762530Y-66414838D01*
X68762530Y-66414838D02*
X68857768Y-66271980D01*
X68857768Y-66271980D02*
X68905387Y-66224361D01*
M02*
