%TF.GenerationSoftware,KiCad,Pcbnew,10.0.4*%
%TF.CreationDate,2026-07-16T01:56:22-07:00*%
%TF.ProjectId,singleTube,73696e67-6c65-4547-9562-652e6b696361,rev?*%
%TF.SameCoordinates,Original*%
%TF.FileFunction,Copper,L2,Bot*%
%TF.FilePolarity,Positive*%
%FSLAX46Y46*%
G04 Gerber Fmt 4.6, Leading zero omitted, Abs format (unit mm)*
G04 Created by KiCad (PCBNEW 10.0.4) date 2026-07-16 01:56:22*
%MOMM*%
%LPD*%
G01*
G04 APERTURE LIST*
%TA.AperFunction,ComponentPad*%
%ADD10O,1.320800X2.641600*%
%TD*%
%TA.AperFunction,ComponentPad*%
%ADD11O,1.700000X1.000000*%
%TD*%
%TA.AperFunction,ComponentPad*%
%ADD12O,1.700000X0.850000*%
%TD*%
%TA.AperFunction,ComponentPad*%
%ADD13C,1.700000*%
%TD*%
%TA.AperFunction,ComponentPad*%
%ADD14R,1.700000X1.700000*%
%TD*%
%TA.AperFunction,ComponentPad*%
%ADD15C,1.346200*%
%TD*%
%TA.AperFunction,ComponentPad*%
%ADD16C,2.000000*%
%TD*%
%TA.AperFunction,ComponentPad*%
%ADD17O,2.540000X2.540000*%
%TD*%
%TA.AperFunction,ViaPad*%
%ADD18C,0.700000*%
%TD*%
%TA.AperFunction,Conductor*%
%ADD19C,0.300000*%
%TD*%
%TA.AperFunction,Conductor*%
%ADD20C,0.500000*%
%TD*%
G04 APERTURE END LIST*
D10*
%TO.P,U5,16,0_16*%
%TO.N,/C0*%
X100140000Y-90310000D03*
%TO.P,U5,15,1_15*%
%TO.N,/C1*%
X97600000Y-90310000D03*
%TO.P,U5,14,5_14*%
%TO.N,/C5*%
X95060000Y-90310000D03*
%TO.P,U5,13,4_13*%
%TO.N,/C4*%
X92520000Y-90310000D03*
%TO.P,U5,12,GND_12*%
%TO.N,GND*%
X89980000Y-90310000D03*
%TO.P,U5,11,6_11*%
%TO.N,/C6*%
X87440000Y-90310000D03*
%TO.P,U5,10,7_10*%
%TO.N,/C7*%
X84900000Y-90310000D03*
%TO.P,U5,9,3_9*%
%TO.N,/C3*%
X82360000Y-90310000D03*
%TO.P,U5,8,2_8*%
%TO.N,/C2*%
X82360000Y-82690000D03*
%TO.P,U5,7,C_7*%
%TO.N,/CONTROL_C*%
X84900000Y-82690000D03*
%TO.P,U5,6,B_6*%
%TO.N,/CONTROL_B*%
X87440000Y-82690000D03*
%TO.P,U5,5,VCC_5*%
%TO.N,VBUS*%
X89980000Y-82690000D03*
%TO.P,U5,4,D_4*%
%TO.N,/CONTROL_D*%
X92520000Y-82690000D03*
%TO.P,U5,3,A_3*%
%TO.N,/CONTROL_A*%
X95060000Y-82690000D03*
%TO.P,U5,2,9_2*%
%TO.N,/C9*%
X97600000Y-82690000D03*
%TO.P,U5,1,8_1*%
%TO.N,/C8*%
X100140000Y-82690000D03*
%TD*%
D11*
%TO.P,J1,SH,Shield_SH*%
%TO.N,GND*%
X112850000Y-72075000D03*
D12*
X112850000Y-66425000D03*
%TD*%
D13*
%TO.P,J2,4,Pin_4_4*%
%TO.N,GND*%
X95460000Y-59250000D03*
%TO.P,J2,3,Pin_3_3*%
%TO.N,/SWCLK*%
X98000000Y-59250000D03*
%TO.P,J2,2,Pin_2_2*%
%TO.N,/SWDIO*%
X100540000Y-59250000D03*
D14*
%TO.P,J2,1,Pin_1_1*%
%TO.N,+3.3V*%
X103080000Y-59250000D03*
%TD*%
D15*
%TO.P,N1,0,0_0*%
%TO.N,/C0*%
X81592700Y-100234640D03*
%TO.P,N1,1,1_1*%
%TO.N,/C1*%
X71407300Y-100234640D03*
%TO.P,N1,2,2_2*%
%TO.N,/C2*%
X70355740Y-103005780D03*
%TO.P,N1,3,3_3*%
%TO.N,/C3*%
X70713880Y-105944560D03*
%TO.P,N1,4,4_4*%
%TO.N,/C4*%
X72395360Y-108382960D03*
%TO.P,N1,5,5_5*%
%TO.N,/C5*%
X75019180Y-109759640D03*
%TO.P,N1,6,6_6*%
%TO.N,/C6*%
X77980820Y-109759640D03*
%TO.P,N1,7,7_7*%
%TO.N,/C7*%
X80604640Y-108382960D03*
%TO.P,N1,8,8_8*%
%TO.N,/C8*%
X82286120Y-105944560D03*
%TO.P,N1,9,9_9*%
%TO.N,/C9*%
X82644260Y-103005780D03*
%TO.P,N1,A,A_A*%
%TO.N,/ANODE*%
X76500000Y-97562560D03*
%TO.P,N1,LHDP,LHDP_LHDP*%
%TO.N,/CLHDP*%
X73624720Y-98271220D03*
%TO.P,N1,RHDP,RHDP_RHDP*%
%TO.N,/CRHDP*%
X79375280Y-98271220D03*
%TD*%
D16*
%TO.P,SW1,*%
%TO.N,*%
X88500000Y-61250000D03*
X88500000Y-55250000D03*
X76500000Y-61250000D03*
X76500000Y-55250000D03*
D13*
%TO.P,SW1,1,A_1*%
%TO.N,GND*%
X86500000Y-59500000D03*
%TO.P,SW1,2,B_2*%
%TO.N,/SW_BOOT0*%
X82500000Y-59500000D03*
%TO.P,SW1,3,C_3*%
%TO.N,+3.3V*%
X78500000Y-59500000D03*
%TD*%
D17*
%TO.P,U2,1,VIN_1*%
%TO.N,VBUS*%
X105399000Y-96650300D03*
%TO.P,U2,2,VOUT_2*%
%TO.N,/HV_R*%
X105399000Y-111870000D03*
%TO.P,U2,3,GND_3*%
%TO.N,GND*%
X97746000Y-96630000D03*
%TO.P,U2,4,GND_4*%
X92666000Y-111870000D03*
%TD*%
D18*
%TO.N,/C0*%
X85500000Y-98750000D03*
X82967360Y-98750000D03*
%TO.N,GND*%
X112000000Y-80500000D03*
%TO.N,/C1*%
X82745365Y-104495365D03*
X86000000Y-102500000D03*
%TO.N,/ANODE*%
X70250000Y-96500000D03*
%TO.N,/C5*%
X84542008Y-104550000D03*
X84500000Y-105950000D03*
%TO.N,/C2*%
X79700000Y-83000000D03*
X78300000Y-83000000D03*
%TO.N,/ANODE*%
X71750000Y-94750000D03*
%TO.N,GND*%
X88250000Y-72000000D03*
X71175000Y-89750000D03*
X69750000Y-75750000D03*
X111750000Y-109000000D03*
X111250000Y-75250000D03*
X112750000Y-64750000D03*
X112750000Y-73500000D03*
X111500000Y-70500000D03*
X111500000Y-68000000D03*
X108500000Y-66000000D03*
X108500000Y-72250000D03*
X108500000Y-68000000D03*
%TO.N,+3.3V*%
X104500000Y-68600000D03*
X104500000Y-70350001D03*
%TO.N,GND*%
X98500000Y-73250000D03*
X81500000Y-70750000D03*
X108750000Y-80750000D03*
X83000000Y-72250000D03*
X90500000Y-65750000D03*
X81250000Y-77750000D03*
X94250000Y-67750000D03*
X109250000Y-76000000D03*
X109250000Y-77000000D03*
X99250000Y-68250000D03*
X93750000Y-71250000D03*
X85500000Y-67000000D03*
X83000000Y-66250000D03*
X84750000Y-72750000D03*
X109750000Y-80750000D03*
X85500000Y-69250000D03*
X85750000Y-75500000D03*
%TO.N,+3.3V*%
X107250000Y-74750000D03*
X105500000Y-74750000D03*
%TD*%
%TO.N,/C2*%
D19*
X78300000Y-83000000D02*
X79700000Y-83000000D01*
%TO.N,/C1*%
X84740730Y-102500000D02*
X82745365Y-104495365D01*
X86000000Y-102500000D02*
X84740730Y-102500000D01*
%TO.N,/ANODE*%
D20*
X70632511Y-95867489D02*
X71750000Y-94750000D01*
X70250000Y-96500000D02*
X70632511Y-96117489D01*
X70632511Y-96117489D02*
X70632511Y-95867489D01*
%TO.N,/C5*%
D19*
X84500000Y-104592008D02*
X84542008Y-104550000D01*
X84500000Y-105950000D02*
X84500000Y-104592008D01*
%TO.N,+3.3V*%
D20*
X104500000Y-70350001D02*
X104500000Y-68600000D01*
X107250000Y-74750000D02*
X105500000Y-74750000D01*
%TO.N,/C0*%
D19*
X82967360Y-98750000D02*
X85500000Y-98750000D01*
%TD*%
%TA.AperFunction,Conductor*%
%TO.N,GND*%
G36*
X109752855Y-53700632D02*
G01*
X110140991Y-53718576D01*
X110152381Y-53719632D01*
X110534363Y-53772916D01*
X110545607Y-53775018D01*
X110921043Y-53863319D01*
X110932033Y-53866446D01*
X111297741Y-53989019D01*
X111308395Y-53993147D01*
X111661217Y-54148933D01*
X111671444Y-54154025D01*
X111858175Y-54258034D01*
X112008382Y-54341699D01*
X112018120Y-54347728D01*
X112336303Y-54565687D01*
X112345443Y-54572590D01*
X112642144Y-54818968D01*
X112650608Y-54826684D01*
X112923315Y-55099391D01*
X112931031Y-55107855D01*
X113177409Y-55404556D01*
X113184312Y-55413696D01*
X113402271Y-55731879D01*
X113408300Y-55741617D01*
X113595967Y-56078542D01*
X113601070Y-56088791D01*
X113730411Y-56381719D01*
X113756847Y-56441591D01*
X113760985Y-56452271D01*
X113883549Y-56817953D01*
X113886683Y-56828969D01*
X113974979Y-57204384D01*
X113977084Y-57215643D01*
X114030366Y-57597611D01*
X114031423Y-57609015D01*
X114049368Y-57997144D01*
X114049500Y-58002871D01*
X114049500Y-65598027D01*
X114029815Y-65665066D01*
X113977011Y-65710821D01*
X113907853Y-65720765D01*
X113856609Y-65701129D01*
X113713158Y-65605278D01*
X113713145Y-65605271D01*
X113544817Y-65535548D01*
X113544805Y-65535545D01*
X113366109Y-65500000D01*
X113100000Y-65500000D01*
X113100000Y-66175000D01*
X112600000Y-66175000D01*
X112600000Y-65500000D01*
X112333890Y-65500000D01*
X112155194Y-65535545D01*
X112155182Y-65535548D01*
X111986854Y-65605271D01*
X111986841Y-65605278D01*
X111835347Y-65706504D01*
X111835343Y-65706507D01*
X111706507Y-65835343D01*
X111706504Y-65835347D01*
X111605278Y-65986841D01*
X111605271Y-65986854D01*
X111535548Y-66155182D01*
X111535545Y-66155194D01*
X111531606Y-66175000D01*
X112450272Y-66175000D01*
X112358386Y-66213060D01*
X112288060Y-66283386D01*
X112250000Y-66375272D01*
X112250000Y-66474728D01*
X112288060Y-66566614D01*
X112358386Y-66636940D01*
X112450272Y-66675000D01*
X111531606Y-66675000D01*
X111535545Y-66694805D01*
X111535548Y-66694817D01*
X111605271Y-66863145D01*
X111605278Y-66863158D01*
X111706504Y-67014652D01*
X111706507Y-67014656D01*
X111835343Y-67143492D01*
X111835347Y-67143495D01*
X111986841Y-67244721D01*
X111986854Y-67244728D01*
X112155182Y-67314451D01*
X112155194Y-67314454D01*
X112333890Y-67349999D01*
X112333894Y-67350000D01*
X112600000Y-67350000D01*
X112600000Y-66675000D01*
X113100000Y-66675000D01*
X113100000Y-67350000D01*
X113366106Y-67350000D01*
X113366109Y-67349999D01*
X113544805Y-67314454D01*
X113544817Y-67314451D01*
X113713145Y-67244728D01*
X113713158Y-67244721D01*
X113856609Y-67148870D01*
X113923286Y-67127992D01*
X113990666Y-67146476D01*
X114037357Y-67198455D01*
X114049500Y-67251972D01*
X114049500Y-71210923D01*
X114029815Y-71277962D01*
X113977011Y-71323717D01*
X113907853Y-71333661D01*
X113844297Y-71304636D01*
X113837819Y-71298604D01*
X113837466Y-71298251D01*
X113837462Y-71298248D01*
X113673684Y-71188814D01*
X113673671Y-71188807D01*
X113491693Y-71113430D01*
X113491681Y-71113427D01*
X113298495Y-71075000D01*
X113100000Y-71075000D01*
X113100000Y-71825000D01*
X112600000Y-71825000D01*
X112600000Y-71075000D01*
X112401504Y-71075000D01*
X112208318Y-71113427D01*
X112208306Y-71113430D01*
X112026328Y-71188807D01*
X112026315Y-71188814D01*
X111862537Y-71298248D01*
X111862533Y-71298251D01*
X111723251Y-71437533D01*
X111723248Y-71437537D01*
X111613814Y-71601315D01*
X111613807Y-71601328D01*
X111538430Y-71783307D01*
X111538430Y-71783309D01*
X111530138Y-71825000D01*
X112450272Y-71825000D01*
X112358386Y-71863060D01*
X112288060Y-71933386D01*
X112250000Y-72025272D01*
X112250000Y-72124728D01*
X112288060Y-72216614D01*
X112358386Y-72286940D01*
X112450272Y-72325000D01*
X111530138Y-72325000D01*
X111538430Y-72366690D01*
X111538430Y-72366692D01*
X111613807Y-72548671D01*
X111613814Y-72548684D01*
X111723248Y-72712462D01*
X111723251Y-72712466D01*
X111862533Y-72851748D01*
X111862537Y-72851751D01*
X112026315Y-72961185D01*
X112026328Y-72961192D01*
X112208306Y-73036569D01*
X112208318Y-73036572D01*
X112401504Y-73074999D01*
X112401508Y-73075000D01*
X112600000Y-73075000D01*
X112600000Y-72325000D01*
X113100000Y-72325000D01*
X113100000Y-73075000D01*
X113298492Y-73075000D01*
X113298495Y-73074999D01*
X113491681Y-73036572D01*
X113491693Y-73036569D01*
X113673671Y-72961192D01*
X113673684Y-72961185D01*
X113837462Y-72851751D01*
X113837466Y-72851748D01*
X113837819Y-72851396D01*
X113838049Y-72851270D01*
X113842173Y-72847886D01*
X113842814Y-72848668D01*
X113899142Y-72817911D01*
X113968834Y-72822895D01*
X114024767Y-72864767D01*
X114049184Y-72930231D01*
X114049500Y-72939077D01*
X114049500Y-116997128D01*
X114049368Y-117002855D01*
X114031423Y-117390984D01*
X114030366Y-117402388D01*
X113977084Y-117784356D01*
X113974979Y-117795615D01*
X113886683Y-118171030D01*
X113883549Y-118182046D01*
X113760985Y-118547728D01*
X113756847Y-118558408D01*
X113601072Y-118911204D01*
X113595967Y-118921457D01*
X113408300Y-119258382D01*
X113402271Y-119268120D01*
X113184312Y-119586303D01*
X113177409Y-119595443D01*
X112931031Y-119892144D01*
X112923315Y-119900608D01*
X112650608Y-120173315D01*
X112642144Y-120181031D01*
X112345443Y-120427409D01*
X112336303Y-120434312D01*
X112018120Y-120652271D01*
X112008382Y-120658300D01*
X111671457Y-120845967D01*
X111661204Y-120851072D01*
X111308408Y-121006847D01*
X111297728Y-121010985D01*
X110932046Y-121133549D01*
X110921030Y-121136683D01*
X110545615Y-121224979D01*
X110534356Y-121227084D01*
X110152388Y-121280366D01*
X110140984Y-121281423D01*
X109752855Y-121299368D01*
X109747128Y-121299500D01*
X69752872Y-121299500D01*
X69747145Y-121299368D01*
X69359015Y-121281423D01*
X69347611Y-121280366D01*
X68965643Y-121227084D01*
X68954384Y-121224979D01*
X68578969Y-121136683D01*
X68567953Y-121133549D01*
X68202271Y-121010985D01*
X68191591Y-121006847D01*
X67838795Y-120851072D01*
X67828547Y-120845969D01*
X67718279Y-120784550D01*
X67491617Y-120658300D01*
X67481879Y-120652271D01*
X67163696Y-120434312D01*
X67154556Y-120427409D01*
X66857855Y-120181031D01*
X66849391Y-120173315D01*
X66576684Y-119900608D01*
X66568968Y-119892144D01*
X66322590Y-119595443D01*
X66315687Y-119586303D01*
X66097728Y-119268120D01*
X66091699Y-119258382D01*
X66043872Y-119172517D01*
X65904025Y-118921444D01*
X65898933Y-118911217D01*
X65743147Y-118558395D01*
X65739019Y-118547741D01*
X65616446Y-118182033D01*
X65613319Y-118171043D01*
X65525018Y-117795607D01*
X65522915Y-117784356D01*
X65469633Y-117402388D01*
X65468576Y-117390984D01*
X65466774Y-117352014D01*
X65450632Y-117002855D01*
X65450500Y-116997128D01*
X65450500Y-116881995D01*
X67949500Y-116881995D01*
X67949500Y-117118004D01*
X67949501Y-117118020D01*
X67980306Y-117352010D01*
X68041394Y-117579993D01*
X68131714Y-117798045D01*
X68131719Y-117798056D01*
X68202677Y-117920957D01*
X68249727Y-118002450D01*
X68249729Y-118002453D01*
X68249730Y-118002454D01*
X68393406Y-118189697D01*
X68393412Y-118189704D01*
X68560295Y-118356587D01*
X68560301Y-118356592D01*
X68747550Y-118500273D01*
X68848243Y-118558408D01*
X68951943Y-118618280D01*
X68951948Y-118618282D01*
X68951951Y-118618284D01*
X69170007Y-118708606D01*
X69397986Y-118769693D01*
X69631989Y-118800500D01*
X69631996Y-118800500D01*
X69868004Y-118800500D01*
X69868011Y-118800500D01*
X70102014Y-118769693D01*
X70329993Y-118708606D01*
X70548049Y-118618284D01*
X70752450Y-118500273D01*
X70939699Y-118356592D01*
X71106592Y-118189699D01*
X71250273Y-118002450D01*
X71368284Y-117798049D01*
X71458606Y-117579993D01*
X71519693Y-117352014D01*
X71550500Y-117118011D01*
X71550500Y-116881995D01*
X107949500Y-116881995D01*
X107949500Y-117118004D01*
X107949501Y-117118020D01*
X107980306Y-117352010D01*
X108041394Y-117579993D01*
X108131714Y-117798045D01*
X108131719Y-117798056D01*
X108202677Y-117920957D01*
X108249727Y-118002450D01*
X108249729Y-118002453D01*
X108249730Y-118002454D01*
X108393406Y-118189697D01*
X108393412Y-118189704D01*
X108560295Y-118356587D01*
X108560301Y-118356592D01*
X108747550Y-118500273D01*
X108848243Y-118558408D01*
X108951943Y-118618280D01*
X108951948Y-118618282D01*
X108951951Y-118618284D01*
X109170007Y-118708606D01*
X109397986Y-118769693D01*
X109631989Y-118800500D01*
X109631996Y-118800500D01*
X109868004Y-118800500D01*
X109868011Y-118800500D01*
X110102014Y-118769693D01*
X110329993Y-118708606D01*
X110548049Y-118618284D01*
X110752450Y-118500273D01*
X110939699Y-118356592D01*
X111106592Y-118189699D01*
X111250273Y-118002450D01*
X111368284Y-117798049D01*
X111458606Y-117579993D01*
X111519693Y-117352014D01*
X111550500Y-117118011D01*
X111550500Y-116881989D01*
X111519693Y-116647986D01*
X111458606Y-116420007D01*
X111368284Y-116201951D01*
X111368282Y-116201948D01*
X111368280Y-116201943D01*
X111326118Y-116128918D01*
X111250273Y-115997550D01*
X111106592Y-115810301D01*
X111106587Y-115810295D01*
X110939704Y-115643412D01*
X110939697Y-115643406D01*
X110752454Y-115499730D01*
X110752453Y-115499729D01*
X110752450Y-115499727D01*
X110670957Y-115452677D01*
X110548056Y-115381719D01*
X110548045Y-115381714D01*
X110329993Y-115291394D01*
X110102010Y-115230306D01*
X109868020Y-115199501D01*
X109868017Y-115199500D01*
X109868011Y-115199500D01*
X109631989Y-115199500D01*
X109631983Y-115199500D01*
X109631979Y-115199501D01*
X109397989Y-115230306D01*
X109170006Y-115291394D01*
X108951954Y-115381714D01*
X108951943Y-115381719D01*
X108747545Y-115499730D01*
X108560302Y-115643406D01*
X108560295Y-115643412D01*
X108393412Y-115810295D01*
X108393406Y-115810302D01*
X108249730Y-115997545D01*
X108131719Y-116201943D01*
X108131714Y-116201954D01*
X108041394Y-116420006D01*
X107980306Y-116647989D01*
X107949501Y-116881979D01*
X107949500Y-116881995D01*
X71550500Y-116881995D01*
X71550500Y-116881989D01*
X71519693Y-116647986D01*
X71458606Y-116420007D01*
X71368284Y-116201951D01*
X71368282Y-116201948D01*
X71368280Y-116201943D01*
X71326118Y-116128918D01*
X71250273Y-115997550D01*
X71106592Y-115810301D01*
X71106587Y-115810295D01*
X70939704Y-115643412D01*
X70939697Y-115643406D01*
X70752454Y-115499730D01*
X70752453Y-115499729D01*
X70752450Y-115499727D01*
X70670957Y-115452677D01*
X70548056Y-115381719D01*
X70548045Y-115381714D01*
X70329993Y-115291394D01*
X70102010Y-115230306D01*
X69868020Y-115199501D01*
X69868017Y-115199500D01*
X69868011Y-115199500D01*
X69631989Y-115199500D01*
X69631983Y-115199500D01*
X69631979Y-115199501D01*
X69397989Y-115230306D01*
X69170006Y-115291394D01*
X68951954Y-115381714D01*
X68951943Y-115381719D01*
X68747545Y-115499730D01*
X68560302Y-115643406D01*
X68560295Y-115643412D01*
X68393412Y-115810295D01*
X68393406Y-115810302D01*
X68249730Y-115997545D01*
X68131719Y-116201943D01*
X68131714Y-116201954D01*
X68041394Y-116420006D01*
X67980306Y-116647989D01*
X67949501Y-116881979D01*
X67949500Y-116881995D01*
X65450500Y-116881995D01*
X65450500Y-111620000D01*
X90913640Y-111620000D01*
X92117518Y-111620000D01*
X92106889Y-111638409D01*
X92066000Y-111791009D01*
X92066000Y-111948991D01*
X92106889Y-112101591D01*
X92117518Y-112120000D01*
X90913640Y-112120000D01*
X90926284Y-112216048D01*
X90986336Y-112440167D01*
X91075124Y-112654521D01*
X91075132Y-112654538D01*
X91191136Y-112855461D01*
X91191147Y-112855477D01*
X91332386Y-113039544D01*
X91332392Y-113039551D01*
X91496448Y-113203607D01*
X91496455Y-113203613D01*
X91680522Y-113344852D01*
X91680538Y-113344863D01*
X91881461Y-113460867D01*
X91881478Y-113460875D01*
X92095832Y-113549663D01*
X92319951Y-113609715D01*
X92416000Y-113622359D01*
X92416000Y-112418482D01*
X92434409Y-112429111D01*
X92587009Y-112470000D01*
X92744991Y-112470000D01*
X92897591Y-112429111D01*
X92916000Y-112418482D01*
X92916000Y-113622358D01*
X93012048Y-113609715D01*
X93236167Y-113549663D01*
X93450521Y-113460875D01*
X93450538Y-113460867D01*
X93651461Y-113344863D01*
X93651477Y-113344852D01*
X93835544Y-113203613D01*
X93835551Y-113203607D01*
X93999607Y-113039551D01*
X93999613Y-113039544D01*
X94140852Y-112855477D01*
X94140863Y-112855461D01*
X94256867Y-112654538D01*
X94256875Y-112654521D01*
X94345663Y-112440167D01*
X94405715Y-112216048D01*
X94418360Y-112120000D01*
X93214482Y-112120000D01*
X93225111Y-112101591D01*
X93266000Y-111948991D01*
X93266000Y-111791009D01*
X93254047Y-111746399D01*
X103828500Y-111746399D01*
X103828500Y-111993601D01*
X103867171Y-112237760D01*
X103943561Y-112472863D01*
X104055788Y-112693121D01*
X104201090Y-112893112D01*
X104375888Y-113067910D01*
X104575879Y-113213212D01*
X104796137Y-113325439D01*
X105031240Y-113401829D01*
X105275399Y-113440500D01*
X105275400Y-113440500D01*
X105522600Y-113440500D01*
X105522601Y-113440500D01*
X105766760Y-113401829D01*
X106001863Y-113325439D01*
X106222121Y-113213212D01*
X106422112Y-113067910D01*
X106596910Y-112893112D01*
X106742212Y-112693121D01*
X106854439Y-112472863D01*
X106930829Y-112237760D01*
X106969500Y-111993601D01*
X106969500Y-111746399D01*
X106930829Y-111502240D01*
X106854439Y-111267137D01*
X106742212Y-111046879D01*
X106596910Y-110846888D01*
X106422112Y-110672090D01*
X106222121Y-110526788D01*
X106001863Y-110414561D01*
X105766760Y-110338171D01*
X105766758Y-110338170D01*
X105766757Y-110338170D01*
X105579199Y-110308464D01*
X105522601Y-110299500D01*
X105275399Y-110299500D01*
X105218800Y-110308464D01*
X105031243Y-110338170D01*
X104796134Y-110414562D01*
X104575878Y-110526788D01*
X104375885Y-110672092D01*
X104201092Y-110846885D01*
X104055788Y-111046878D01*
X103943562Y-111267134D01*
X103867170Y-111502243D01*
X103845604Y-111638409D01*
X103828500Y-111746399D01*
X93254047Y-111746399D01*
X93225111Y-111638409D01*
X93214482Y-111620000D01*
X94418359Y-111620000D01*
X94405715Y-111523951D01*
X94345663Y-111299832D01*
X94256875Y-111085478D01*
X94256867Y-111085461D01*
X94140863Y-110884538D01*
X94140852Y-110884522D01*
X93999613Y-110700455D01*
X93999607Y-110700448D01*
X93835551Y-110536392D01*
X93835544Y-110536386D01*
X93651477Y-110395147D01*
X93651461Y-110395136D01*
X93450538Y-110279132D01*
X93450521Y-110279124D01*
X93236167Y-110190336D01*
X93012049Y-110130285D01*
X92916000Y-110117638D01*
X92916000Y-111321517D01*
X92897591Y-111310889D01*
X92744991Y-111270000D01*
X92587009Y-111270000D01*
X92434409Y-111310889D01*
X92416000Y-111321517D01*
X92416000Y-110117638D01*
X92319950Y-110130285D01*
X92095832Y-110190336D01*
X91881478Y-110279124D01*
X91881461Y-110279132D01*
X91680538Y-110395136D01*
X91680522Y-110395147D01*
X91496455Y-110536386D01*
X91496448Y-110536392D01*
X91332392Y-110700448D01*
X91332386Y-110700455D01*
X91191147Y-110884522D01*
X91191136Y-110884538D01*
X91075132Y-111085461D01*
X91075124Y-111085478D01*
X90986336Y-111299832D01*
X90926284Y-111523951D01*
X90913640Y-111620000D01*
X65450500Y-111620000D01*
X65450500Y-109663744D01*
X74045580Y-109663744D01*
X74045580Y-109855535D01*
X74082993Y-110043621D01*
X74082995Y-110043629D01*
X74156387Y-110220815D01*
X74262931Y-110380269D01*
X74262937Y-110380277D01*
X74398542Y-110515882D01*
X74398550Y-110515888D01*
X74558005Y-110622432D01*
X74558004Y-110622432D01*
X74609900Y-110643928D01*
X74735191Y-110695825D01*
X74923284Y-110733239D01*
X74923287Y-110733240D01*
X74923289Y-110733240D01*
X75115073Y-110733240D01*
X75115074Y-110733239D01*
X75303169Y-110695825D01*
X75480353Y-110622433D01*
X75480353Y-110622432D01*
X75480355Y-110622432D01*
X75623496Y-110526788D01*
X75639814Y-110515885D01*
X75775425Y-110380274D01*
X75881973Y-110220813D01*
X75955365Y-110043629D01*
X75992780Y-109855531D01*
X75992780Y-109663749D01*
X75992780Y-109663746D01*
X75992779Y-109663744D01*
X77007220Y-109663744D01*
X77007220Y-109855535D01*
X77044633Y-110043621D01*
X77044635Y-110043629D01*
X77118027Y-110220815D01*
X77224571Y-110380269D01*
X77224577Y-110380277D01*
X77360182Y-110515882D01*
X77360190Y-110515888D01*
X77519645Y-110622432D01*
X77519644Y-110622432D01*
X77571540Y-110643928D01*
X77696831Y-110695825D01*
X77884924Y-110733239D01*
X77884927Y-110733240D01*
X77884929Y-110733240D01*
X78076713Y-110733240D01*
X78076714Y-110733239D01*
X78264809Y-110695825D01*
X78441993Y-110622433D01*
X78441993Y-110622432D01*
X78441995Y-110622432D01*
X78585136Y-110526788D01*
X78601454Y-110515885D01*
X78737065Y-110380274D01*
X78843613Y-110220813D01*
X78917005Y-110043629D01*
X78954420Y-109855531D01*
X78954420Y-109663749D01*
X78954420Y-109663746D01*
X78954419Y-109663744D01*
X78917006Y-109475658D01*
X78917005Y-109475651D01*
X78843613Y-109298467D01*
X78843612Y-109298464D01*
X78737068Y-109139010D01*
X78737062Y-109139002D01*
X78601457Y-109003397D01*
X78601449Y-109003391D01*
X78441994Y-108896847D01*
X78441995Y-108896847D01*
X78264809Y-108823455D01*
X78264801Y-108823453D01*
X78076714Y-108786040D01*
X78076711Y-108786040D01*
X77884929Y-108786040D01*
X77884926Y-108786040D01*
X77696838Y-108823453D01*
X77696830Y-108823455D01*
X77519644Y-108896847D01*
X77360190Y-109003391D01*
X77360182Y-109003397D01*
X77224577Y-109139002D01*
X77224571Y-109139010D01*
X77118027Y-109298464D01*
X77044635Y-109475650D01*
X77044633Y-109475658D01*
X77007220Y-109663744D01*
X75992779Y-109663744D01*
X75955366Y-109475658D01*
X75955365Y-109475651D01*
X75881973Y-109298467D01*
X75881972Y-109298464D01*
X75775428Y-109139010D01*
X75775422Y-109139002D01*
X75639817Y-109003397D01*
X75639809Y-109003391D01*
X75480354Y-108896847D01*
X75480355Y-108896847D01*
X75303169Y-108823455D01*
X75303161Y-108823453D01*
X75115074Y-108786040D01*
X75115071Y-108786040D01*
X74923289Y-108786040D01*
X74923286Y-108786040D01*
X74735198Y-108823453D01*
X74735190Y-108823455D01*
X74558004Y-108896847D01*
X74398550Y-109003391D01*
X74398542Y-109003397D01*
X74262937Y-109139002D01*
X74262931Y-109139010D01*
X74156387Y-109298464D01*
X74082995Y-109475650D01*
X74082993Y-109475658D01*
X74045580Y-109663744D01*
X65450500Y-109663744D01*
X65450500Y-108287064D01*
X71421760Y-108287064D01*
X71421760Y-108478855D01*
X71459173Y-108666941D01*
X71459175Y-108666949D01*
X71532567Y-108844135D01*
X71639111Y-109003589D01*
X71639117Y-109003597D01*
X71774722Y-109139202D01*
X71774730Y-109139208D01*
X71934185Y-109245752D01*
X71934184Y-109245752D01*
X71986080Y-109267248D01*
X72111371Y-109319145D01*
X72299464Y-109356559D01*
X72299467Y-109356560D01*
X72299469Y-109356560D01*
X72491253Y-109356560D01*
X72491254Y-109356559D01*
X72679349Y-109319145D01*
X72856533Y-109245753D01*
X72856533Y-109245752D01*
X72856535Y-109245752D01*
X72935728Y-109192836D01*
X73015994Y-109139205D01*
X73151605Y-109003594D01*
X73258153Y-108844133D01*
X73331545Y-108666949D01*
X73368960Y-108478851D01*
X73368960Y-108287069D01*
X73368960Y-108287066D01*
X73368959Y-108287064D01*
X79631040Y-108287064D01*
X79631040Y-108478855D01*
X79668453Y-108666941D01*
X79668455Y-108666949D01*
X79741847Y-108844135D01*
X79848391Y-109003589D01*
X79848397Y-109003597D01*
X79984002Y-109139202D01*
X79984010Y-109139208D01*
X80143465Y-109245752D01*
X80143464Y-109245752D01*
X80195360Y-109267248D01*
X80320651Y-109319145D01*
X80508744Y-109356559D01*
X80508747Y-109356560D01*
X80508749Y-109356560D01*
X80700533Y-109356560D01*
X80700534Y-109356559D01*
X80888629Y-109319145D01*
X81065813Y-109245753D01*
X81065813Y-109245752D01*
X81065815Y-109245752D01*
X81145008Y-109192836D01*
X81225274Y-109139205D01*
X81360885Y-109003594D01*
X81467433Y-108844133D01*
X81540825Y-108666949D01*
X81578240Y-108478851D01*
X81578240Y-108287069D01*
X81578240Y-108287066D01*
X81578239Y-108287064D01*
X81540826Y-108098978D01*
X81540825Y-108098971D01*
X81467433Y-107921787D01*
X81467432Y-107921784D01*
X81360888Y-107762330D01*
X81360882Y-107762322D01*
X81225277Y-107626717D01*
X81225269Y-107626711D01*
X81065814Y-107520167D01*
X81065815Y-107520167D01*
X80888629Y-107446775D01*
X80888621Y-107446773D01*
X80700534Y-107409360D01*
X80700531Y-107409360D01*
X80508749Y-107409360D01*
X80508746Y-107409360D01*
X80320658Y-107446773D01*
X80320650Y-107446775D01*
X80143464Y-107520167D01*
X79984010Y-107626711D01*
X79984002Y-107626717D01*
X79848397Y-107762322D01*
X79848391Y-107762330D01*
X79741847Y-107921784D01*
X79668455Y-108098970D01*
X79668453Y-108098978D01*
X79631040Y-108287064D01*
X73368959Y-108287064D01*
X73331546Y-108098978D01*
X73331545Y-108098971D01*
X73258153Y-107921787D01*
X73258152Y-107921784D01*
X73151608Y-107762330D01*
X73151602Y-107762322D01*
X73015997Y-107626717D01*
X73015989Y-107626711D01*
X72856534Y-107520167D01*
X72856535Y-107520167D01*
X72679349Y-107446775D01*
X72679341Y-107446773D01*
X72491254Y-107409360D01*
X72491251Y-107409360D01*
X72299469Y-107409360D01*
X72299466Y-107409360D01*
X72111378Y-107446773D01*
X72111370Y-107446775D01*
X71934184Y-107520167D01*
X71774730Y-107626711D01*
X71774722Y-107626717D01*
X71639117Y-107762322D01*
X71639111Y-107762330D01*
X71532567Y-107921784D01*
X71459175Y-108098970D01*
X71459173Y-108098978D01*
X71421760Y-108287064D01*
X65450500Y-108287064D01*
X65450500Y-105848664D01*
X69740280Y-105848664D01*
X69740280Y-106040455D01*
X69777693Y-106228541D01*
X69777695Y-106228549D01*
X69851087Y-106405735D01*
X69957631Y-106565189D01*
X69957637Y-106565197D01*
X70093242Y-106700802D01*
X70093250Y-106700808D01*
X70252705Y-106807352D01*
X70252704Y-106807352D01*
X70304600Y-106828848D01*
X70429891Y-106880745D01*
X70617984Y-106918159D01*
X70617987Y-106918160D01*
X70617989Y-106918160D01*
X70809773Y-106918160D01*
X70809774Y-106918159D01*
X70997869Y-106880745D01*
X71175053Y-106807353D01*
X71175053Y-106807352D01*
X71175055Y-106807352D01*
X71254248Y-106754436D01*
X71334514Y-106700805D01*
X71470125Y-106565194D01*
X71576673Y-106405733D01*
X71650065Y-106228549D01*
X71687480Y-106040451D01*
X71687480Y-105848669D01*
X71687480Y-105848666D01*
X71687479Y-105848664D01*
X81312520Y-105848664D01*
X81312520Y-106040455D01*
X81349933Y-106228541D01*
X81349935Y-106228549D01*
X81423327Y-106405735D01*
X81529871Y-106565189D01*
X81529877Y-106565197D01*
X81665482Y-106700802D01*
X81665490Y-106700808D01*
X81824945Y-106807352D01*
X81824944Y-106807352D01*
X81876840Y-106828848D01*
X82002131Y-106880745D01*
X82190224Y-106918159D01*
X82190227Y-106918160D01*
X82190229Y-106918160D01*
X82382013Y-106918160D01*
X82382014Y-106918159D01*
X82570109Y-106880745D01*
X82747293Y-106807353D01*
X82747293Y-106807352D01*
X82747295Y-106807352D01*
X82826488Y-106754436D01*
X82906754Y-106700805D01*
X83042365Y-106565194D01*
X83148913Y-106405733D01*
X83222305Y-106228549D01*
X83259720Y-106040451D01*
X83259720Y-105848669D01*
X83259720Y-105848666D01*
X83259719Y-105848664D01*
X83222305Y-105660571D01*
X83148913Y-105483387D01*
X83148912Y-105483384D01*
X83042368Y-105323930D01*
X83042362Y-105323922D01*
X82998590Y-105280150D01*
X82965105Y-105218827D01*
X82970089Y-105149135D01*
X83011961Y-105093202D01*
X83038817Y-105077908D01*
X83053492Y-105071830D01*
X83160034Y-105000641D01*
X83250641Y-104910034D01*
X83321830Y-104803492D01*
X83370866Y-104685109D01*
X83395865Y-104559434D01*
X83395865Y-104533330D01*
X83415550Y-104466291D01*
X83432184Y-104445649D01*
X83572213Y-104305620D01*
X83757792Y-104120040D01*
X83819113Y-104086557D01*
X83888804Y-104091541D01*
X83944738Y-104133412D01*
X83969155Y-104198877D01*
X83960032Y-104255175D01*
X83916508Y-104360251D01*
X83916505Y-104360261D01*
X83891508Y-104485928D01*
X83891508Y-104485931D01*
X83891508Y-104614069D01*
X83891508Y-104614071D01*
X83891507Y-104614071D01*
X83916505Y-104739738D01*
X83916507Y-104739744D01*
X83965541Y-104858124D01*
X83965546Y-104858133D01*
X84028602Y-104952502D01*
X84049480Y-105019179D01*
X84049500Y-105021393D01*
X84049500Y-105429192D01*
X84029815Y-105496231D01*
X84013181Y-105516873D01*
X83994726Y-105535327D01*
X83994723Y-105535331D01*
X83923538Y-105641866D01*
X83923533Y-105641875D01*
X83874499Y-105760255D01*
X83874497Y-105760261D01*
X83849500Y-105885928D01*
X83849500Y-105885931D01*
X83849500Y-106014069D01*
X83849500Y-106014071D01*
X83849499Y-106014071D01*
X83874497Y-106139738D01*
X83874499Y-106139744D01*
X83923533Y-106258124D01*
X83923538Y-106258133D01*
X83994723Y-106364668D01*
X83994726Y-106364672D01*
X84085327Y-106455273D01*
X84085331Y-106455276D01*
X84191866Y-106526461D01*
X84191872Y-106526464D01*
X84191873Y-106526465D01*
X84310256Y-106575501D01*
X84310260Y-106575501D01*
X84310261Y-106575502D01*
X84435928Y-106600500D01*
X84435931Y-106600500D01*
X84564071Y-106600500D01*
X84648615Y-106583682D01*
X84689744Y-106575501D01*
X84808127Y-106526465D01*
X84914669Y-106455276D01*
X85005276Y-106364669D01*
X85076465Y-106258127D01*
X85125501Y-106139744D01*
X85133682Y-106098615D01*
X85150500Y-106014071D01*
X85150500Y-105885928D01*
X85125502Y-105760261D01*
X85125501Y-105760260D01*
X85125501Y-105760256D01*
X85076465Y-105641873D01*
X85076464Y-105641872D01*
X85076461Y-105641866D01*
X85005276Y-105535331D01*
X85005273Y-105535327D01*
X84986819Y-105516873D01*
X84953334Y-105455550D01*
X84950500Y-105429192D01*
X84950500Y-105112816D01*
X84970185Y-105045777D01*
X84986819Y-105025135D01*
X85047281Y-104964672D01*
X85047284Y-104964669D01*
X85118473Y-104858127D01*
X85167509Y-104739744D01*
X85192508Y-104614069D01*
X85192508Y-104485931D01*
X85192508Y-104485928D01*
X85167510Y-104360261D01*
X85167509Y-104360260D01*
X85167509Y-104360256D01*
X85118473Y-104241873D01*
X85118472Y-104241872D01*
X85118469Y-104241866D01*
X85047284Y-104135331D01*
X85047281Y-104135327D01*
X84956680Y-104044726D01*
X84956676Y-104044723D01*
X84850141Y-103973538D01*
X84850132Y-103973533D01*
X84731752Y-103924499D01*
X84731746Y-103924497D01*
X84606079Y-103899500D01*
X84606077Y-103899500D01*
X84477939Y-103899500D01*
X84477937Y-103899500D01*
X84352269Y-103924497D01*
X84352259Y-103924500D01*
X84247183Y-103968024D01*
X84177714Y-103975493D01*
X84115235Y-103944217D01*
X84079583Y-103884128D01*
X84082077Y-103814303D01*
X84112048Y-103765784D01*
X84891014Y-102986819D01*
X84952337Y-102953334D01*
X84978695Y-102950500D01*
X85479192Y-102950500D01*
X85546231Y-102970185D01*
X85566873Y-102986819D01*
X85585327Y-103005273D01*
X85585331Y-103005276D01*
X85691866Y-103076461D01*
X85691872Y-103076464D01*
X85691873Y-103076465D01*
X85810256Y-103125501D01*
X85810260Y-103125501D01*
X85810261Y-103125502D01*
X85935928Y-103150500D01*
X85935931Y-103150500D01*
X86064071Y-103150500D01*
X86148615Y-103133682D01*
X86189744Y-103125501D01*
X86308127Y-103076465D01*
X86414669Y-103005276D01*
X86505276Y-102914669D01*
X86576465Y-102808127D01*
X86625501Y-102689744D01*
X86650500Y-102564069D01*
X86650500Y-102435931D01*
X86650500Y-102435928D01*
X86625502Y-102310261D01*
X86625501Y-102310260D01*
X86625501Y-102310256D01*
X86576465Y-102191873D01*
X86576464Y-102191872D01*
X86576461Y-102191866D01*
X86505276Y-102085331D01*
X86505273Y-102085327D01*
X86414672Y-101994726D01*
X86414668Y-101994723D01*
X86308133Y-101923538D01*
X86308124Y-101923533D01*
X86189744Y-101874499D01*
X86189738Y-101874497D01*
X86064071Y-101849500D01*
X86064069Y-101849500D01*
X85935931Y-101849500D01*
X85935929Y-101849500D01*
X85810261Y-101874497D01*
X85810255Y-101874499D01*
X85691875Y-101923533D01*
X85691866Y-101923538D01*
X85585331Y-101994723D01*
X85585327Y-101994726D01*
X85566873Y-102013181D01*
X85505550Y-102046666D01*
X85479192Y-102049500D01*
X84681421Y-102049500D01*
X84591055Y-102073713D01*
X84591054Y-102073712D01*
X84566846Y-102080199D01*
X84566843Y-102080200D01*
X84464116Y-102139511D01*
X84464113Y-102139513D01*
X83794488Y-102809138D01*
X83733165Y-102842623D01*
X83663473Y-102837639D01*
X83607540Y-102795767D01*
X83585190Y-102745646D01*
X83580445Y-102721791D01*
X83515115Y-102564071D01*
X83507052Y-102544604D01*
X83400508Y-102385150D01*
X83400502Y-102385142D01*
X83264897Y-102249537D01*
X83264889Y-102249531D01*
X83105434Y-102142987D01*
X83105435Y-102142987D01*
X82928249Y-102069595D01*
X82928241Y-102069593D01*
X82740154Y-102032180D01*
X82740151Y-102032180D01*
X82548369Y-102032180D01*
X82548366Y-102032180D01*
X82360278Y-102069593D01*
X82360270Y-102069595D01*
X82183084Y-102142987D01*
X82023630Y-102249531D01*
X82023622Y-102249537D01*
X81888017Y-102385142D01*
X81888011Y-102385150D01*
X81781467Y-102544604D01*
X81708075Y-102721790D01*
X81708073Y-102721798D01*
X81670660Y-102909884D01*
X81670660Y-103101675D01*
X81708073Y-103289761D01*
X81708075Y-103289769D01*
X81781467Y-103466955D01*
X81888011Y-103626409D01*
X81888017Y-103626417D01*
X82023622Y-103762022D01*
X82023630Y-103762028D01*
X82183082Y-103868570D01*
X82183083Y-103868570D01*
X82183087Y-103868573D01*
X82201932Y-103876379D01*
X82256335Y-103920217D01*
X82278402Y-103986510D01*
X82261125Y-104054210D01*
X82242169Y-104078614D01*
X82240094Y-104080688D01*
X82240088Y-104080696D01*
X82168903Y-104187231D01*
X82168898Y-104187240D01*
X82119864Y-104305620D01*
X82119862Y-104305626D01*
X82094865Y-104431293D01*
X82094865Y-104431296D01*
X82094865Y-104559434D01*
X82094865Y-104559436D01*
X82094864Y-104559436D01*
X82119862Y-104685103D01*
X82119864Y-104685109D01*
X82168898Y-104803489D01*
X82171773Y-104808867D01*
X82169919Y-104809857D01*
X82187948Y-104867426D01*
X82169466Y-104934807D01*
X82117489Y-104981500D01*
X82088160Y-104991262D01*
X82002136Y-105008373D01*
X82002130Y-105008375D01*
X81824944Y-105081767D01*
X81665490Y-105188311D01*
X81665482Y-105188317D01*
X81529877Y-105323922D01*
X81529871Y-105323930D01*
X81423327Y-105483384D01*
X81349935Y-105660570D01*
X81349933Y-105660578D01*
X81312520Y-105848664D01*
X71687479Y-105848664D01*
X71650065Y-105660571D01*
X71576673Y-105483387D01*
X71576672Y-105483384D01*
X71470128Y-105323930D01*
X71470122Y-105323922D01*
X71334517Y-105188317D01*
X71334509Y-105188311D01*
X71175054Y-105081767D01*
X71175055Y-105081767D01*
X70997869Y-105008375D01*
X70997861Y-105008373D01*
X70809774Y-104970960D01*
X70809771Y-104970960D01*
X70617989Y-104970960D01*
X70617986Y-104970960D01*
X70429898Y-105008373D01*
X70429890Y-105008375D01*
X70252704Y-105081767D01*
X70093250Y-105188311D01*
X70093242Y-105188317D01*
X69957637Y-105323922D01*
X69957631Y-105323930D01*
X69851087Y-105483384D01*
X69777695Y-105660570D01*
X69777693Y-105660578D01*
X69740280Y-105848664D01*
X65450500Y-105848664D01*
X65450500Y-102909884D01*
X69382140Y-102909884D01*
X69382140Y-103101675D01*
X69419553Y-103289761D01*
X69419555Y-103289769D01*
X69492947Y-103466955D01*
X69599491Y-103626409D01*
X69599497Y-103626417D01*
X69735102Y-103762022D01*
X69735110Y-103762028D01*
X69894565Y-103868572D01*
X69894564Y-103868572D01*
X69932120Y-103884128D01*
X70071751Y-103941965D01*
X70240308Y-103975493D01*
X70259844Y-103979379D01*
X70259847Y-103979380D01*
X70259849Y-103979380D01*
X70451633Y-103979380D01*
X70451634Y-103979379D01*
X70639729Y-103941965D01*
X70816913Y-103868573D01*
X70816913Y-103868572D01*
X70816915Y-103868572D01*
X70970751Y-103765782D01*
X70976374Y-103762025D01*
X71111985Y-103626414D01*
X71218533Y-103466953D01*
X71291925Y-103289769D01*
X71329340Y-103101671D01*
X71329340Y-102909889D01*
X71329340Y-102909886D01*
X71329339Y-102909884D01*
X71315960Y-102842623D01*
X71291925Y-102721791D01*
X71226595Y-102564071D01*
X71218532Y-102544604D01*
X71111988Y-102385150D01*
X71111982Y-102385142D01*
X70976377Y-102249537D01*
X70976369Y-102249531D01*
X70816914Y-102142987D01*
X70816915Y-102142987D01*
X70639729Y-102069595D01*
X70639721Y-102069593D01*
X70451634Y-102032180D01*
X70451631Y-102032180D01*
X70259849Y-102032180D01*
X70259846Y-102032180D01*
X70071758Y-102069593D01*
X70071750Y-102069595D01*
X69894564Y-102142987D01*
X69735110Y-102249531D01*
X69735102Y-102249537D01*
X69599497Y-102385142D01*
X69599491Y-102385150D01*
X69492947Y-102544604D01*
X69419555Y-102721790D01*
X69419553Y-102721798D01*
X69382140Y-102909884D01*
X65450500Y-102909884D01*
X65450500Y-100138744D01*
X70433700Y-100138744D01*
X70433700Y-100330535D01*
X70471113Y-100518621D01*
X70471115Y-100518629D01*
X70544507Y-100695815D01*
X70651051Y-100855269D01*
X70651057Y-100855277D01*
X70786662Y-100990882D01*
X70786670Y-100990888D01*
X70946125Y-101097432D01*
X70946124Y-101097432D01*
X70998020Y-101118928D01*
X71123311Y-101170825D01*
X71311404Y-101208239D01*
X71311407Y-101208240D01*
X71311409Y-101208240D01*
X71503193Y-101208240D01*
X71503194Y-101208239D01*
X71691289Y-101170825D01*
X71868473Y-101097433D01*
X71868473Y-101097432D01*
X71868475Y-101097432D01*
X71947668Y-101044516D01*
X72027934Y-100990885D01*
X72163545Y-100855274D01*
X72270093Y-100695813D01*
X72343485Y-100518629D01*
X72380900Y-100330531D01*
X72380900Y-100138749D01*
X72380900Y-100138746D01*
X72380899Y-100138744D01*
X80619100Y-100138744D01*
X80619100Y-100330535D01*
X80656513Y-100518621D01*
X80656515Y-100518629D01*
X80729907Y-100695815D01*
X80836451Y-100855269D01*
X80836457Y-100855277D01*
X80972062Y-100990882D01*
X80972070Y-100990888D01*
X81131525Y-101097432D01*
X81131524Y-101097432D01*
X81183420Y-101118928D01*
X81308711Y-101170825D01*
X81496804Y-101208239D01*
X81496807Y-101208240D01*
X81496809Y-101208240D01*
X81688593Y-101208240D01*
X81688594Y-101208239D01*
X81876689Y-101170825D01*
X82053873Y-101097433D01*
X82053873Y-101097432D01*
X82053875Y-101097432D01*
X82133068Y-101044516D01*
X82213334Y-100990885D01*
X82348945Y-100855274D01*
X82455493Y-100695813D01*
X82528885Y-100518629D01*
X82566300Y-100330531D01*
X82566300Y-100138749D01*
X82566300Y-100138746D01*
X82566299Y-100138744D01*
X82528886Y-99950658D01*
X82528885Y-99950651D01*
X82455493Y-99773467D01*
X82455492Y-99773464D01*
X82348948Y-99614010D01*
X82348942Y-99614002D01*
X82213337Y-99478397D01*
X82213329Y-99478391D01*
X82053874Y-99371847D01*
X82053875Y-99371847D01*
X81876689Y-99298455D01*
X81876681Y-99298453D01*
X81688594Y-99261040D01*
X81688591Y-99261040D01*
X81496809Y-99261040D01*
X81496806Y-99261040D01*
X81308718Y-99298453D01*
X81308710Y-99298455D01*
X81131524Y-99371847D01*
X80972070Y-99478391D01*
X80972062Y-99478397D01*
X80836457Y-99614002D01*
X80836451Y-99614010D01*
X80729907Y-99773464D01*
X80656515Y-99950650D01*
X80656513Y-99950658D01*
X80619100Y-100138744D01*
X72380899Y-100138744D01*
X72343486Y-99950658D01*
X72343485Y-99950651D01*
X72270093Y-99773467D01*
X72270092Y-99773464D01*
X72163548Y-99614010D01*
X72163542Y-99614002D01*
X72027937Y-99478397D01*
X72027929Y-99478391D01*
X71868474Y-99371847D01*
X71868475Y-99371847D01*
X71691289Y-99298455D01*
X71691281Y-99298453D01*
X71503194Y-99261040D01*
X71503191Y-99261040D01*
X71311409Y-99261040D01*
X71311406Y-99261040D01*
X71123318Y-99298453D01*
X71123310Y-99298455D01*
X70946124Y-99371847D01*
X70786670Y-99478391D01*
X70786662Y-99478397D01*
X70651057Y-99614002D01*
X70651051Y-99614010D01*
X70544507Y-99773464D01*
X70471115Y-99950650D01*
X70471113Y-99950658D01*
X70433700Y-100138744D01*
X65450500Y-100138744D01*
X65450500Y-98175324D01*
X72651120Y-98175324D01*
X72651120Y-98367115D01*
X72688533Y-98555201D01*
X72688535Y-98555209D01*
X72761927Y-98732395D01*
X72868471Y-98891849D01*
X72868477Y-98891857D01*
X73004082Y-99027462D01*
X73004090Y-99027468D01*
X73163545Y-99134012D01*
X73163544Y-99134012D01*
X73215440Y-99155508D01*
X73340731Y-99207405D01*
X73528824Y-99244819D01*
X73528827Y-99244820D01*
X73528829Y-99244820D01*
X73720613Y-99244820D01*
X73720614Y-99244819D01*
X73908709Y-99207405D01*
X74085893Y-99134013D01*
X74085893Y-99134012D01*
X74085895Y-99134012D01*
X74199469Y-99058124D01*
X74245354Y-99027465D01*
X74380965Y-98891854D01*
X74487513Y-98732393D01*
X74560905Y-98555209D01*
X74598320Y-98367111D01*
X74598320Y-98175329D01*
X74598320Y-98175326D01*
X74598319Y-98175324D01*
X74568166Y-98023735D01*
X74560905Y-97987231D01*
X74487513Y-97810047D01*
X74487512Y-97810044D01*
X74380968Y-97650590D01*
X74380962Y-97650582D01*
X74245357Y-97514977D01*
X74245349Y-97514971D01*
X74173052Y-97466664D01*
X75526400Y-97466664D01*
X75526400Y-97658455D01*
X75563813Y-97846541D01*
X75563815Y-97846549D01*
X75637207Y-98023735D01*
X75743751Y-98183189D01*
X75743757Y-98183197D01*
X75879362Y-98318802D01*
X75879370Y-98318808D01*
X76038825Y-98425352D01*
X76038824Y-98425352D01*
X76078693Y-98441866D01*
X76216011Y-98498745D01*
X76404104Y-98536159D01*
X76404107Y-98536160D01*
X76404109Y-98536160D01*
X76595893Y-98536160D01*
X76595894Y-98536159D01*
X76783989Y-98498745D01*
X76961173Y-98425353D01*
X76961173Y-98425352D01*
X76961175Y-98425352D01*
X77095907Y-98335327D01*
X77120634Y-98318805D01*
X77256245Y-98183194D01*
X77261504Y-98175324D01*
X78401680Y-98175324D01*
X78401680Y-98367115D01*
X78439093Y-98555201D01*
X78439095Y-98555209D01*
X78512487Y-98732395D01*
X78619031Y-98891849D01*
X78619037Y-98891857D01*
X78754642Y-99027462D01*
X78754650Y-99027468D01*
X78914105Y-99134012D01*
X78914104Y-99134012D01*
X78966000Y-99155508D01*
X79091291Y-99207405D01*
X79279384Y-99244819D01*
X79279387Y-99244820D01*
X79279389Y-99244820D01*
X79471173Y-99244820D01*
X79471174Y-99244819D01*
X79659269Y-99207405D01*
X79836453Y-99134013D01*
X79836453Y-99134012D01*
X79836455Y-99134012D01*
X79950029Y-99058124D01*
X79995914Y-99027465D01*
X80131525Y-98891854D01*
X80183498Y-98814071D01*
X82316859Y-98814071D01*
X82341857Y-98939738D01*
X82341859Y-98939744D01*
X82390893Y-99058124D01*
X82390898Y-99058133D01*
X82462083Y-99164668D01*
X82462086Y-99164672D01*
X82552687Y-99255273D01*
X82552691Y-99255276D01*
X82659226Y-99326461D01*
X82659232Y-99326464D01*
X82659233Y-99326465D01*
X82777616Y-99375501D01*
X82777620Y-99375501D01*
X82777621Y-99375502D01*
X82903288Y-99400500D01*
X82903291Y-99400500D01*
X83031431Y-99400500D01*
X83115975Y-99383682D01*
X83157104Y-99375501D01*
X83275487Y-99326465D01*
X83382029Y-99255276D01*
X83382032Y-99255273D01*
X83400487Y-99236819D01*
X83461810Y-99203334D01*
X83488168Y-99200500D01*
X84979192Y-99200500D01*
X85046231Y-99220185D01*
X85066873Y-99236819D01*
X85085327Y-99255273D01*
X85085331Y-99255276D01*
X85191866Y-99326461D01*
X85191872Y-99326464D01*
X85191873Y-99326465D01*
X85310256Y-99375501D01*
X85310260Y-99375501D01*
X85310261Y-99375502D01*
X85435928Y-99400500D01*
X85435931Y-99400500D01*
X85564071Y-99400500D01*
X85648615Y-99383682D01*
X85689744Y-99375501D01*
X85808127Y-99326465D01*
X85914669Y-99255276D01*
X86005276Y-99164669D01*
X86076465Y-99058127D01*
X86125501Y-98939744D01*
X86150500Y-98814069D01*
X86150500Y-98685931D01*
X86150500Y-98685928D01*
X86125502Y-98560261D01*
X86125501Y-98560260D01*
X86125501Y-98560256D01*
X86076465Y-98441873D01*
X86076464Y-98441872D01*
X86076461Y-98441866D01*
X86005276Y-98335331D01*
X86005273Y-98335327D01*
X85914672Y-98244726D01*
X85914668Y-98244723D01*
X85808133Y-98173538D01*
X85808124Y-98173533D01*
X85689744Y-98124499D01*
X85689738Y-98124497D01*
X85564071Y-98099500D01*
X85564069Y-98099500D01*
X85435931Y-98099500D01*
X85435929Y-98099500D01*
X85310261Y-98124497D01*
X85310255Y-98124499D01*
X85191875Y-98173533D01*
X85191866Y-98173538D01*
X85085331Y-98244723D01*
X85085327Y-98244726D01*
X85066873Y-98263181D01*
X85005550Y-98296666D01*
X84979192Y-98299500D01*
X83488168Y-98299500D01*
X83421129Y-98279815D01*
X83400487Y-98263181D01*
X83382032Y-98244726D01*
X83382028Y-98244723D01*
X83275493Y-98173538D01*
X83275484Y-98173533D01*
X83157104Y-98124499D01*
X83157098Y-98124497D01*
X83031431Y-98099500D01*
X83031429Y-98099500D01*
X82903291Y-98099500D01*
X82903289Y-98099500D01*
X82777621Y-98124497D01*
X82777615Y-98124499D01*
X82659235Y-98173533D01*
X82659226Y-98173538D01*
X82552691Y-98244723D01*
X82552687Y-98244726D01*
X82462086Y-98335327D01*
X82462083Y-98335331D01*
X82390898Y-98441866D01*
X82390893Y-98441875D01*
X82341859Y-98560255D01*
X82341857Y-98560261D01*
X82316860Y-98685928D01*
X82316860Y-98685931D01*
X82316860Y-98814069D01*
X82316860Y-98814071D01*
X82316859Y-98814071D01*
X80183498Y-98814071D01*
X80238073Y-98732393D01*
X80257320Y-98685928D01*
X80279497Y-98632387D01*
X80279497Y-98632386D01*
X80311465Y-98555209D01*
X80348880Y-98367111D01*
X80348880Y-98175329D01*
X80348880Y-98175326D01*
X80348879Y-98175324D01*
X80318726Y-98023735D01*
X80311465Y-97987231D01*
X80238073Y-97810047D01*
X80238072Y-97810044D01*
X80131528Y-97650590D01*
X80131522Y-97650582D01*
X79995917Y-97514977D01*
X79995909Y-97514971D01*
X79836454Y-97408427D01*
X79836455Y-97408427D01*
X79659269Y-97335035D01*
X79659261Y-97335033D01*
X79471174Y-97297620D01*
X79471171Y-97297620D01*
X79279389Y-97297620D01*
X79279386Y-97297620D01*
X79091298Y-97335033D01*
X79091290Y-97335035D01*
X78914104Y-97408427D01*
X78754650Y-97514971D01*
X78754642Y-97514977D01*
X78619037Y-97650582D01*
X78619031Y-97650590D01*
X78512487Y-97810044D01*
X78439095Y-97987230D01*
X78439093Y-97987238D01*
X78401680Y-98175324D01*
X77261504Y-98175324D01*
X77362793Y-98023733D01*
X77436185Y-97846549D01*
X77473600Y-97658451D01*
X77473600Y-97466669D01*
X77473600Y-97466666D01*
X77473599Y-97466664D01*
X77436185Y-97278571D01*
X77362793Y-97101387D01*
X77362792Y-97101384D01*
X77256248Y-96941930D01*
X77256242Y-96941922D01*
X77120637Y-96806317D01*
X77120629Y-96806311D01*
X76961174Y-96699767D01*
X76961171Y-96699765D01*
X76808163Y-96636388D01*
X76783989Y-96626375D01*
X76783981Y-96626373D01*
X76595894Y-96588960D01*
X76595891Y-96588960D01*
X76404109Y-96588960D01*
X76404106Y-96588960D01*
X76216018Y-96626373D01*
X76216010Y-96626375D01*
X76038824Y-96699767D01*
X75879370Y-96806311D01*
X75879362Y-96806317D01*
X75743757Y-96941922D01*
X75743751Y-96941930D01*
X75637207Y-97101384D01*
X75563815Y-97278570D01*
X75563813Y-97278578D01*
X75526400Y-97466664D01*
X74173052Y-97466664D01*
X74085894Y-97408427D01*
X74085895Y-97408427D01*
X73908709Y-97335035D01*
X73908701Y-97335033D01*
X73720614Y-97297620D01*
X73720611Y-97297620D01*
X73528829Y-97297620D01*
X73528826Y-97297620D01*
X73340738Y-97335033D01*
X73340730Y-97335035D01*
X73163544Y-97408427D01*
X73004090Y-97514971D01*
X73004082Y-97514977D01*
X72868477Y-97650582D01*
X72868471Y-97650590D01*
X72761927Y-97810044D01*
X72688535Y-97987230D01*
X72688533Y-97987238D01*
X72651120Y-98175324D01*
X65450500Y-98175324D01*
X65450500Y-96564071D01*
X69599499Y-96564071D01*
X69624497Y-96689738D01*
X69624499Y-96689744D01*
X69673533Y-96808124D01*
X69673538Y-96808133D01*
X69744723Y-96914668D01*
X69744726Y-96914672D01*
X69835327Y-97005273D01*
X69835331Y-97005276D01*
X69941866Y-97076461D01*
X69941872Y-97076464D01*
X69941873Y-97076465D01*
X70060256Y-97125501D01*
X70060260Y-97125501D01*
X70060261Y-97125502D01*
X70185928Y-97150500D01*
X70185931Y-97150500D01*
X70314071Y-97150500D01*
X70398615Y-97133682D01*
X70439744Y-97125501D01*
X70558127Y-97076465D01*
X70664669Y-97005276D01*
X70755276Y-96914669D01*
X70826465Y-96808127D01*
X70875501Y-96689744D01*
X70877279Y-96680800D01*
X70909659Y-96618891D01*
X70911096Y-96617427D01*
X71073021Y-96455504D01*
X71098981Y-96410537D01*
X71116612Y-96380000D01*
X95993640Y-96380000D01*
X97197518Y-96380000D01*
X97186889Y-96398409D01*
X97146000Y-96551009D01*
X97146000Y-96708991D01*
X97186889Y-96861591D01*
X97197518Y-96880000D01*
X95993640Y-96880000D01*
X96006284Y-96976048D01*
X96066336Y-97200167D01*
X96155124Y-97414521D01*
X96155132Y-97414538D01*
X96271136Y-97615461D01*
X96271147Y-97615477D01*
X96412386Y-97799544D01*
X96412392Y-97799551D01*
X96576448Y-97963607D01*
X96576455Y-97963613D01*
X96760522Y-98104852D01*
X96760538Y-98104863D01*
X96961461Y-98220867D01*
X96961478Y-98220875D01*
X97175832Y-98309663D01*
X97399951Y-98369715D01*
X97496000Y-98382359D01*
X97496000Y-97178482D01*
X97514409Y-97189111D01*
X97667009Y-97230000D01*
X97824991Y-97230000D01*
X97977591Y-97189111D01*
X97996000Y-97178482D01*
X97996000Y-98382358D01*
X98092048Y-98369715D01*
X98316167Y-98309663D01*
X98530521Y-98220875D01*
X98530538Y-98220867D01*
X98731461Y-98104863D01*
X98731477Y-98104852D01*
X98915544Y-97963613D01*
X98915551Y-97963607D01*
X99079607Y-97799551D01*
X99079613Y-97799544D01*
X99220852Y-97615477D01*
X99220863Y-97615461D01*
X99336867Y-97414538D01*
X99336875Y-97414521D01*
X99425663Y-97200167D01*
X99485715Y-96976048D01*
X99498360Y-96880000D01*
X98294482Y-96880000D01*
X98305111Y-96861591D01*
X98346000Y-96708991D01*
X98346000Y-96551009D01*
X98339486Y-96526699D01*
X103828500Y-96526699D01*
X103828500Y-96773900D01*
X103865145Y-97005273D01*
X103867171Y-97018060D01*
X103926341Y-97200167D01*
X103943562Y-97253165D01*
X103956507Y-97278571D01*
X104055788Y-97473421D01*
X104201090Y-97673412D01*
X104375888Y-97848210D01*
X104575879Y-97993512D01*
X104796137Y-98105739D01*
X105031240Y-98182129D01*
X105275399Y-98220800D01*
X105275400Y-98220800D01*
X105522600Y-98220800D01*
X105522601Y-98220800D01*
X105766760Y-98182129D01*
X106001863Y-98105739D01*
X106222121Y-97993512D01*
X106422112Y-97848210D01*
X106596910Y-97673412D01*
X106742212Y-97473421D01*
X106854439Y-97253163D01*
X106930829Y-97018060D01*
X106969500Y-96773901D01*
X106969500Y-96526699D01*
X106930829Y-96282540D01*
X106854439Y-96047437D01*
X106742212Y-95827179D01*
X106596910Y-95627188D01*
X106422112Y-95452390D01*
X106222121Y-95307088D01*
X106001863Y-95194861D01*
X105766760Y-95118471D01*
X105766758Y-95118470D01*
X105766757Y-95118470D01*
X105579199Y-95088764D01*
X105522601Y-95079800D01*
X105275399Y-95079800D01*
X105218800Y-95088764D01*
X105031243Y-95118470D01*
X104796134Y-95194862D01*
X104575878Y-95307088D01*
X104375885Y-95452392D01*
X104201092Y-95627185D01*
X104055788Y-95827178D01*
X103943562Y-96047434D01*
X103943561Y-96047436D01*
X103943561Y-96047437D01*
X103867171Y-96282540D01*
X103859659Y-96329969D01*
X103828500Y-96526699D01*
X98339486Y-96526699D01*
X98305111Y-96398409D01*
X98294482Y-96380000D01*
X99498359Y-96380000D01*
X99485715Y-96283951D01*
X99425663Y-96059832D01*
X99336875Y-95845478D01*
X99336867Y-95845461D01*
X99220863Y-95644538D01*
X99220852Y-95644522D01*
X99079613Y-95460455D01*
X99079607Y-95460448D01*
X98915551Y-95296392D01*
X98915544Y-95296386D01*
X98731477Y-95155147D01*
X98731461Y-95155136D01*
X98530538Y-95039132D01*
X98530521Y-95039124D01*
X98316167Y-94950336D01*
X98092049Y-94890285D01*
X97996000Y-94877638D01*
X97996000Y-96081517D01*
X97977591Y-96070889D01*
X97824991Y-96030000D01*
X97667009Y-96030000D01*
X97514409Y-96070889D01*
X97496000Y-96081517D01*
X97496000Y-94877638D01*
X97399950Y-94890285D01*
X97175832Y-94950336D01*
X96961478Y-95039124D01*
X96961461Y-95039132D01*
X96760538Y-95155136D01*
X96760522Y-95155147D01*
X96576455Y-95296386D01*
X96576448Y-95296392D01*
X96412392Y-95460448D01*
X96412386Y-95460455D01*
X96271147Y-95644522D01*
X96271136Y-95644538D01*
X96155132Y-95845461D01*
X96155124Y-95845478D01*
X96066336Y-96059832D01*
X96006284Y-96283951D01*
X95993640Y-96380000D01*
X71116612Y-96380000D01*
X71129593Y-96357518D01*
X71133843Y-96350155D01*
X71145495Y-96329974D01*
X71150777Y-96310261D01*
X71158206Y-96282539D01*
X71167284Y-96248654D01*
X71183011Y-96189964D01*
X71183011Y-96146875D01*
X71202696Y-96079836D01*
X71219326Y-96059198D01*
X71867309Y-95411214D01*
X71928630Y-95377731D01*
X71930684Y-95377302D01*
X71939744Y-95375501D01*
X72058127Y-95326465D01*
X72164669Y-95255276D01*
X72255276Y-95164669D01*
X72326465Y-95058127D01*
X72375501Y-94939744D01*
X72400500Y-94814069D01*
X72400500Y-94685931D01*
X72400500Y-94685928D01*
X72375502Y-94560261D01*
X72375501Y-94560260D01*
X72375501Y-94560256D01*
X72326465Y-94441873D01*
X72326464Y-94441872D01*
X72326461Y-94441866D01*
X72255276Y-94335331D01*
X72255273Y-94335327D01*
X72164672Y-94244726D01*
X72164668Y-94244723D01*
X72058133Y-94173538D01*
X72058124Y-94173533D01*
X71939744Y-94124499D01*
X71939738Y-94124497D01*
X71814071Y-94099500D01*
X71814069Y-94099500D01*
X71685931Y-94099500D01*
X71685929Y-94099500D01*
X71560261Y-94124497D01*
X71560255Y-94124499D01*
X71441875Y-94173533D01*
X71441866Y-94173538D01*
X71335331Y-94244723D01*
X71335327Y-94244726D01*
X71244726Y-94335327D01*
X71244723Y-94335331D01*
X71173538Y-94441866D01*
X71173533Y-94441875D01*
X71124498Y-94560257D01*
X71124497Y-94560259D01*
X71122719Y-94569202D01*
X71090333Y-94631113D01*
X71088783Y-94632690D01*
X70192002Y-95529472D01*
X70192000Y-95529475D01*
X70119527Y-95655003D01*
X70082009Y-95795022D01*
X70081541Y-95798579D01*
X70080312Y-95801356D01*
X70079908Y-95802865D01*
X70079672Y-95802801D01*
X70053272Y-95862475D01*
X70006056Y-95896949D01*
X69941876Y-95923533D01*
X69941866Y-95923538D01*
X69835331Y-95994723D01*
X69835327Y-95994726D01*
X69744726Y-96085327D01*
X69744723Y-96085331D01*
X69673538Y-96191866D01*
X69673533Y-96191875D01*
X69624499Y-96310255D01*
X69624497Y-96310261D01*
X69599500Y-96435928D01*
X69599500Y-96435931D01*
X69599500Y-96564069D01*
X69599500Y-96564071D01*
X69599499Y-96564071D01*
X65450500Y-96564071D01*
X65450500Y-89554955D01*
X81399100Y-89554955D01*
X81399100Y-91065044D01*
X81436025Y-91250676D01*
X81436027Y-91250684D01*
X81508460Y-91425554D01*
X81508465Y-91425563D01*
X81613620Y-91582937D01*
X81613623Y-91582941D01*
X81747458Y-91716776D01*
X81747462Y-91716779D01*
X81904836Y-91821934D01*
X81904842Y-91821937D01*
X81904843Y-91821938D01*
X82079716Y-91894373D01*
X82265355Y-91931299D01*
X82265358Y-91931300D01*
X82265360Y-91931300D01*
X82454642Y-91931300D01*
X82454643Y-91931299D01*
X82640284Y-91894373D01*
X82815157Y-91821938D01*
X82972538Y-91716779D01*
X83106379Y-91582938D01*
X83211538Y-91425557D01*
X83283973Y-91250684D01*
X83320900Y-91065040D01*
X83320900Y-89554960D01*
X83320900Y-89554957D01*
X83320899Y-89554955D01*
X83939100Y-89554955D01*
X83939100Y-91065044D01*
X83976025Y-91250676D01*
X83976027Y-91250684D01*
X84048460Y-91425554D01*
X84048465Y-91425563D01*
X84153620Y-91582937D01*
X84153623Y-91582941D01*
X84287458Y-91716776D01*
X84287462Y-91716779D01*
X84444836Y-91821934D01*
X84444842Y-91821937D01*
X84444843Y-91821938D01*
X84619716Y-91894373D01*
X84805355Y-91931299D01*
X84805358Y-91931300D01*
X84805360Y-91931300D01*
X84994642Y-91931300D01*
X84994643Y-91931299D01*
X85180284Y-91894373D01*
X85355157Y-91821938D01*
X85512538Y-91716779D01*
X85646379Y-91582938D01*
X85751538Y-91425557D01*
X85823973Y-91250684D01*
X85860900Y-91065040D01*
X85860900Y-89554960D01*
X85860900Y-89554957D01*
X85860899Y-89554955D01*
X86479100Y-89554955D01*
X86479100Y-91065044D01*
X86516025Y-91250676D01*
X86516027Y-91250684D01*
X86588460Y-91425554D01*
X86588465Y-91425563D01*
X86693620Y-91582937D01*
X86693623Y-91582941D01*
X86827458Y-91716776D01*
X86827462Y-91716779D01*
X86984836Y-91821934D01*
X86984842Y-91821937D01*
X86984843Y-91821938D01*
X87159716Y-91894373D01*
X87345355Y-91931299D01*
X87345358Y-91931300D01*
X87345360Y-91931300D01*
X87534642Y-91931300D01*
X87534643Y-91931299D01*
X87720284Y-91894373D01*
X87895157Y-91821938D01*
X88052538Y-91716779D01*
X88186379Y-91582938D01*
X88291538Y-91425557D01*
X88363973Y-91250684D01*
X88400900Y-91065040D01*
X88400900Y-89558269D01*
X88819600Y-89558269D01*
X88819600Y-90060000D01*
X89655263Y-90060000D01*
X89654799Y-90060464D01*
X89601295Y-90153135D01*
X89573600Y-90256496D01*
X89573600Y-90363504D01*
X89601295Y-90466865D01*
X89654799Y-90559536D01*
X89655263Y-90560000D01*
X88819600Y-90560000D01*
X88819600Y-91061730D01*
X88848172Y-91242128D01*
X88904616Y-91415843D01*
X88987537Y-91578582D01*
X89094899Y-91726351D01*
X89094899Y-91726352D01*
X89224047Y-91855500D01*
X89371817Y-91962862D01*
X89534558Y-92045783D01*
X89708271Y-92102227D01*
X89729999Y-92105668D01*
X89730000Y-92105667D01*
X89730000Y-90634737D01*
X89730464Y-90635201D01*
X89823135Y-90688705D01*
X89926496Y-90716400D01*
X90033504Y-90716400D01*
X90136865Y-90688705D01*
X90229536Y-90635201D01*
X90230000Y-90634737D01*
X90230000Y-92105668D01*
X90251728Y-92102227D01*
X90425441Y-92045783D01*
X90588182Y-91962862D01*
X90735951Y-91855500D01*
X90735952Y-91855500D01*
X90865100Y-91726352D01*
X90865100Y-91726351D01*
X90972462Y-91578582D01*
X91055383Y-91415843D01*
X91111827Y-91242128D01*
X91140400Y-91061730D01*
X91140400Y-90560000D01*
X90304737Y-90560000D01*
X90305201Y-90559536D01*
X90358705Y-90466865D01*
X90386400Y-90363504D01*
X90386400Y-90256496D01*
X90358705Y-90153135D01*
X90305201Y-90060464D01*
X90304737Y-90060000D01*
X91140400Y-90060000D01*
X91140400Y-89558277D01*
X91140398Y-89558261D01*
X91139874Y-89554955D01*
X91559100Y-89554955D01*
X91559100Y-91065044D01*
X91596025Y-91250676D01*
X91596027Y-91250684D01*
X91668460Y-91425554D01*
X91668465Y-91425563D01*
X91773620Y-91582937D01*
X91773623Y-91582941D01*
X91907458Y-91716776D01*
X91907462Y-91716779D01*
X92064836Y-91821934D01*
X92064842Y-91821937D01*
X92064843Y-91821938D01*
X92239716Y-91894373D01*
X92425355Y-91931299D01*
X92425358Y-91931300D01*
X92425360Y-91931300D01*
X92614642Y-91931300D01*
X92614643Y-91931299D01*
X92800284Y-91894373D01*
X92975157Y-91821938D01*
X93132538Y-91716779D01*
X93266379Y-91582938D01*
X93371538Y-91425557D01*
X93443973Y-91250684D01*
X93480900Y-91065040D01*
X93480900Y-89554960D01*
X93480900Y-89554957D01*
X93480899Y-89554955D01*
X94099100Y-89554955D01*
X94099100Y-91065044D01*
X94136025Y-91250676D01*
X94136027Y-91250684D01*
X94208460Y-91425554D01*
X94208465Y-91425563D01*
X94313620Y-91582937D01*
X94313623Y-91582941D01*
X94447458Y-91716776D01*
X94447462Y-91716779D01*
X94604836Y-91821934D01*
X94604842Y-91821937D01*
X94604843Y-91821938D01*
X94779716Y-91894373D01*
X94965355Y-91931299D01*
X94965358Y-91931300D01*
X94965360Y-91931300D01*
X95154642Y-91931300D01*
X95154643Y-91931299D01*
X95340284Y-91894373D01*
X95515157Y-91821938D01*
X95672538Y-91716779D01*
X95806379Y-91582938D01*
X95911538Y-91425557D01*
X95983973Y-91250684D01*
X96020900Y-91065040D01*
X96020900Y-89554960D01*
X96020900Y-89554957D01*
X96020899Y-89554955D01*
X96639100Y-89554955D01*
X96639100Y-91065044D01*
X96676025Y-91250676D01*
X96676027Y-91250684D01*
X96748460Y-91425554D01*
X96748465Y-91425563D01*
X96853620Y-91582937D01*
X96853623Y-91582941D01*
X96987458Y-91716776D01*
X96987462Y-91716779D01*
X97144836Y-91821934D01*
X97144842Y-91821937D01*
X97144843Y-91821938D01*
X97319716Y-91894373D01*
X97505355Y-91931299D01*
X97505358Y-91931300D01*
X97505360Y-91931300D01*
X97694642Y-91931300D01*
X97694643Y-91931299D01*
X97880284Y-91894373D01*
X98055157Y-91821938D01*
X98212538Y-91716779D01*
X98346379Y-91582938D01*
X98451538Y-91425557D01*
X98523973Y-91250684D01*
X98560900Y-91065040D01*
X98560900Y-89554960D01*
X98560900Y-89554957D01*
X98560899Y-89554955D01*
X99179100Y-89554955D01*
X99179100Y-91065044D01*
X99216025Y-91250676D01*
X99216027Y-91250684D01*
X99288460Y-91425554D01*
X99288465Y-91425563D01*
X99393620Y-91582937D01*
X99393623Y-91582941D01*
X99527458Y-91716776D01*
X99527462Y-91716779D01*
X99684836Y-91821934D01*
X99684842Y-91821937D01*
X99684843Y-91821938D01*
X99859716Y-91894373D01*
X100045355Y-91931299D01*
X100045358Y-91931300D01*
X100045360Y-91931300D01*
X100234642Y-91931300D01*
X100234643Y-91931299D01*
X100420284Y-91894373D01*
X100595157Y-91821938D01*
X100752538Y-91716779D01*
X100886379Y-91582938D01*
X100991538Y-91425557D01*
X101063973Y-91250684D01*
X101100900Y-91065040D01*
X101100900Y-89554960D01*
X101100900Y-89554957D01*
X101100899Y-89554955D01*
X101063973Y-89369316D01*
X100991538Y-89194443D01*
X100991537Y-89194442D01*
X100991534Y-89194436D01*
X100886379Y-89037062D01*
X100886376Y-89037058D01*
X100752541Y-88903223D01*
X100752537Y-88903220D01*
X100595163Y-88798065D01*
X100595154Y-88798060D01*
X100420284Y-88725627D01*
X100420276Y-88725625D01*
X100234643Y-88688700D01*
X100234640Y-88688700D01*
X100045360Y-88688700D01*
X100045357Y-88688700D01*
X99859723Y-88725625D01*
X99859715Y-88725627D01*
X99684845Y-88798060D01*
X99684836Y-88798065D01*
X99527462Y-88903220D01*
X99527458Y-88903223D01*
X99393623Y-89037058D01*
X99393620Y-89037062D01*
X99288465Y-89194436D01*
X99288460Y-89194445D01*
X99216027Y-89369315D01*
X99216025Y-89369323D01*
X99179100Y-89554955D01*
X98560899Y-89554955D01*
X98523973Y-89369316D01*
X98451538Y-89194443D01*
X98451537Y-89194442D01*
X98451534Y-89194436D01*
X98346379Y-89037062D01*
X98346376Y-89037058D01*
X98212541Y-88903223D01*
X98212537Y-88903220D01*
X98055163Y-88798065D01*
X98055154Y-88798060D01*
X97880284Y-88725627D01*
X97880276Y-88725625D01*
X97694643Y-88688700D01*
X97694640Y-88688700D01*
X97505360Y-88688700D01*
X97505357Y-88688700D01*
X97319723Y-88725625D01*
X97319715Y-88725627D01*
X97144845Y-88798060D01*
X97144836Y-88798065D01*
X96987462Y-88903220D01*
X96987458Y-88903223D01*
X96853623Y-89037058D01*
X96853620Y-89037062D01*
X96748465Y-89194436D01*
X96748460Y-89194445D01*
X96676027Y-89369315D01*
X96676025Y-89369323D01*
X96639100Y-89554955D01*
X96020899Y-89554955D01*
X95983973Y-89369316D01*
X95911538Y-89194443D01*
X95911537Y-89194442D01*
X95911534Y-89194436D01*
X95806379Y-89037062D01*
X95806376Y-89037058D01*
X95672541Y-88903223D01*
X95672537Y-88903220D01*
X95515163Y-88798065D01*
X95515154Y-88798060D01*
X95340284Y-88725627D01*
X95340276Y-88725625D01*
X95154643Y-88688700D01*
X95154640Y-88688700D01*
X94965360Y-88688700D01*
X94965357Y-88688700D01*
X94779723Y-88725625D01*
X94779715Y-88725627D01*
X94604845Y-88798060D01*
X94604836Y-88798065D01*
X94447462Y-88903220D01*
X94447458Y-88903223D01*
X94313623Y-89037058D01*
X94313620Y-89037062D01*
X94208465Y-89194436D01*
X94208460Y-89194445D01*
X94136027Y-89369315D01*
X94136025Y-89369323D01*
X94099100Y-89554955D01*
X93480899Y-89554955D01*
X93443973Y-89369316D01*
X93371538Y-89194443D01*
X93371537Y-89194442D01*
X93371534Y-89194436D01*
X93266379Y-89037062D01*
X93266376Y-89037058D01*
X93132541Y-88903223D01*
X93132537Y-88903220D01*
X92975163Y-88798065D01*
X92975154Y-88798060D01*
X92800284Y-88725627D01*
X92800276Y-88725625D01*
X92614643Y-88688700D01*
X92614640Y-88688700D01*
X92425360Y-88688700D01*
X92425357Y-88688700D01*
X92239723Y-88725625D01*
X92239715Y-88725627D01*
X92064845Y-88798060D01*
X92064836Y-88798065D01*
X91907462Y-88903220D01*
X91907458Y-88903223D01*
X91773623Y-89037058D01*
X91773620Y-89037062D01*
X91668465Y-89194436D01*
X91668460Y-89194445D01*
X91596027Y-89369315D01*
X91596025Y-89369323D01*
X91559100Y-89554955D01*
X91139874Y-89554955D01*
X91111827Y-89377871D01*
X91055383Y-89204156D01*
X90972462Y-89041417D01*
X90865100Y-88893648D01*
X90865100Y-88893647D01*
X90735952Y-88764499D01*
X90588182Y-88657137D01*
X90425441Y-88574216D01*
X90251727Y-88517773D01*
X90251722Y-88517772D01*
X90230000Y-88514331D01*
X90230000Y-89985263D01*
X90229536Y-89984799D01*
X90136865Y-89931295D01*
X90033504Y-89903600D01*
X89926496Y-89903600D01*
X89823135Y-89931295D01*
X89730464Y-89984799D01*
X89730000Y-89985263D01*
X89730000Y-88514331D01*
X89729999Y-88514331D01*
X89708277Y-88517772D01*
X89708272Y-88517773D01*
X89534558Y-88574216D01*
X89371817Y-88657137D01*
X89224048Y-88764499D01*
X89224047Y-88764499D01*
X89094899Y-88893647D01*
X89094899Y-88893648D01*
X88987537Y-89041417D01*
X88904616Y-89204156D01*
X88848172Y-89377871D01*
X88819600Y-89558269D01*
X88400900Y-89558269D01*
X88400900Y-89554960D01*
X88400900Y-89554957D01*
X88400899Y-89554955D01*
X88363973Y-89369316D01*
X88291538Y-89194443D01*
X88291537Y-89194442D01*
X88291534Y-89194436D01*
X88186379Y-89037062D01*
X88186376Y-89037058D01*
X88052541Y-88903223D01*
X88052537Y-88903220D01*
X87895163Y-88798065D01*
X87895154Y-88798060D01*
X87720284Y-88725627D01*
X87720276Y-88725625D01*
X87534643Y-88688700D01*
X87534640Y-88688700D01*
X87345360Y-88688700D01*
X87345357Y-88688700D01*
X87159723Y-88725625D01*
X87159715Y-88725627D01*
X86984845Y-88798060D01*
X86984836Y-88798065D01*
X86827462Y-88903220D01*
X86827458Y-88903223D01*
X86693623Y-89037058D01*
X86693620Y-89037062D01*
X86588465Y-89194436D01*
X86588460Y-89194445D01*
X86516027Y-89369315D01*
X86516025Y-89369323D01*
X86479100Y-89554955D01*
X85860899Y-89554955D01*
X85823973Y-89369316D01*
X85751538Y-89194443D01*
X85751537Y-89194442D01*
X85751534Y-89194436D01*
X85646379Y-89037062D01*
X85646376Y-89037058D01*
X85512541Y-88903223D01*
X85512537Y-88903220D01*
X85355163Y-88798065D01*
X85355154Y-88798060D01*
X85180284Y-88725627D01*
X85180276Y-88725625D01*
X84994643Y-88688700D01*
X84994640Y-88688700D01*
X84805360Y-88688700D01*
X84805357Y-88688700D01*
X84619723Y-88725625D01*
X84619715Y-88725627D01*
X84444845Y-88798060D01*
X84444836Y-88798065D01*
X84287462Y-88903220D01*
X84287458Y-88903223D01*
X84153623Y-89037058D01*
X84153620Y-89037062D01*
X84048465Y-89194436D01*
X84048460Y-89194445D01*
X83976027Y-89369315D01*
X83976025Y-89369323D01*
X83939100Y-89554955D01*
X83320899Y-89554955D01*
X83283973Y-89369316D01*
X83211538Y-89194443D01*
X83211537Y-89194442D01*
X83211534Y-89194436D01*
X83106379Y-89037062D01*
X83106376Y-89037058D01*
X82972541Y-88903223D01*
X82972537Y-88903220D01*
X82815163Y-88798065D01*
X82815154Y-88798060D01*
X82640284Y-88725627D01*
X82640276Y-88725625D01*
X82454643Y-88688700D01*
X82454640Y-88688700D01*
X82265360Y-88688700D01*
X82265357Y-88688700D01*
X82079723Y-88725625D01*
X82079715Y-88725627D01*
X81904845Y-88798060D01*
X81904836Y-88798065D01*
X81747462Y-88903220D01*
X81747458Y-88903223D01*
X81613623Y-89037058D01*
X81613620Y-89037062D01*
X81508465Y-89194436D01*
X81508460Y-89194445D01*
X81436027Y-89369315D01*
X81436025Y-89369323D01*
X81399100Y-89554955D01*
X65450500Y-89554955D01*
X65450500Y-83064071D01*
X77649499Y-83064071D01*
X77674497Y-83189738D01*
X77674499Y-83189744D01*
X77723533Y-83308124D01*
X77723538Y-83308133D01*
X77794723Y-83414668D01*
X77794726Y-83414672D01*
X77885327Y-83505273D01*
X77885331Y-83505276D01*
X77991866Y-83576461D01*
X77991872Y-83576464D01*
X77991873Y-83576465D01*
X78110256Y-83625501D01*
X78110260Y-83625501D01*
X78110261Y-83625502D01*
X78235928Y-83650500D01*
X78235931Y-83650500D01*
X78364071Y-83650500D01*
X78463728Y-83630676D01*
X78489744Y-83625501D01*
X78608127Y-83576465D01*
X78714669Y-83505276D01*
X78714672Y-83505273D01*
X78733127Y-83486819D01*
X78794450Y-83453334D01*
X78820808Y-83450500D01*
X79179192Y-83450500D01*
X79246231Y-83470185D01*
X79266873Y-83486819D01*
X79285327Y-83505273D01*
X79285331Y-83505276D01*
X79391866Y-83576461D01*
X79391872Y-83576464D01*
X79391873Y-83576465D01*
X79510256Y-83625501D01*
X79510260Y-83625501D01*
X79510261Y-83625502D01*
X79635928Y-83650500D01*
X79635931Y-83650500D01*
X79764071Y-83650500D01*
X79863728Y-83630676D01*
X79889744Y-83625501D01*
X80008127Y-83576465D01*
X80114669Y-83505276D01*
X80205276Y-83414669D01*
X80276465Y-83308127D01*
X80325501Y-83189744D01*
X80350500Y-83064069D01*
X80350500Y-82935931D01*
X80350500Y-82935928D01*
X80325502Y-82810261D01*
X80325501Y-82810260D01*
X80325501Y-82810256D01*
X80276465Y-82691873D01*
X80276464Y-82691872D01*
X80276461Y-82691866D01*
X80205276Y-82585331D01*
X80205273Y-82585327D01*
X80114672Y-82494726D01*
X80114668Y-82494723D01*
X80008133Y-82423538D01*
X80008124Y-82423533D01*
X79889744Y-82374499D01*
X79889738Y-82374497D01*
X79764071Y-82349500D01*
X79764069Y-82349500D01*
X79635931Y-82349500D01*
X79635929Y-82349500D01*
X79510261Y-82374497D01*
X79510255Y-82374499D01*
X79391875Y-82423533D01*
X79391866Y-82423538D01*
X79285331Y-82494723D01*
X79285327Y-82494726D01*
X79266873Y-82513181D01*
X79205550Y-82546666D01*
X79179192Y-82549500D01*
X78820808Y-82549500D01*
X78753769Y-82529815D01*
X78733127Y-82513181D01*
X78714672Y-82494726D01*
X78714668Y-82494723D01*
X78608133Y-82423538D01*
X78608124Y-82423533D01*
X78489744Y-82374499D01*
X78489738Y-82374497D01*
X78364071Y-82349500D01*
X78364069Y-82349500D01*
X78235931Y-82349500D01*
X78235929Y-82349500D01*
X78110261Y-82374497D01*
X78110255Y-82374499D01*
X77991875Y-82423533D01*
X77991866Y-82423538D01*
X77885331Y-82494723D01*
X77885327Y-82494726D01*
X77794726Y-82585327D01*
X77794723Y-82585331D01*
X77723538Y-82691866D01*
X77723533Y-82691875D01*
X77674499Y-82810255D01*
X77674497Y-82810261D01*
X77649500Y-82935928D01*
X77649500Y-82935931D01*
X77649500Y-83064069D01*
X77649500Y-83064071D01*
X77649499Y-83064071D01*
X65450500Y-83064071D01*
X65450500Y-81934955D01*
X81399100Y-81934955D01*
X81399100Y-83445044D01*
X81436025Y-83630676D01*
X81436027Y-83630684D01*
X81508460Y-83805554D01*
X81508465Y-83805563D01*
X81613620Y-83962937D01*
X81613623Y-83962941D01*
X81747458Y-84096776D01*
X81747462Y-84096779D01*
X81904836Y-84201934D01*
X81904842Y-84201937D01*
X81904843Y-84201938D01*
X82079716Y-84274373D01*
X82265355Y-84311299D01*
X82265358Y-84311300D01*
X82265360Y-84311300D01*
X82454642Y-84311300D01*
X82454643Y-84311299D01*
X82640284Y-84274373D01*
X82815157Y-84201938D01*
X82972538Y-84096779D01*
X83106379Y-83962938D01*
X83211538Y-83805557D01*
X83283973Y-83630684D01*
X83320900Y-83445040D01*
X83320900Y-81934960D01*
X83320900Y-81934957D01*
X83320899Y-81934955D01*
X83939100Y-81934955D01*
X83939100Y-83445044D01*
X83976025Y-83630676D01*
X83976027Y-83630684D01*
X84048460Y-83805554D01*
X84048465Y-83805563D01*
X84153620Y-83962937D01*
X84153623Y-83962941D01*
X84287458Y-84096776D01*
X84287462Y-84096779D01*
X84444836Y-84201934D01*
X84444842Y-84201937D01*
X84444843Y-84201938D01*
X84619716Y-84274373D01*
X84805355Y-84311299D01*
X84805358Y-84311300D01*
X84805360Y-84311300D01*
X84994642Y-84311300D01*
X84994643Y-84311299D01*
X85180284Y-84274373D01*
X85355157Y-84201938D01*
X85512538Y-84096779D01*
X85646379Y-83962938D01*
X85751538Y-83805557D01*
X85823973Y-83630684D01*
X85860900Y-83445040D01*
X85860900Y-81934960D01*
X85860900Y-81934957D01*
X85860899Y-81934955D01*
X86479100Y-81934955D01*
X86479100Y-83445044D01*
X86516025Y-83630676D01*
X86516027Y-83630684D01*
X86588460Y-83805554D01*
X86588465Y-83805563D01*
X86693620Y-83962937D01*
X86693623Y-83962941D01*
X86827458Y-84096776D01*
X86827462Y-84096779D01*
X86984836Y-84201934D01*
X86984842Y-84201937D01*
X86984843Y-84201938D01*
X87159716Y-84274373D01*
X87345355Y-84311299D01*
X87345358Y-84311300D01*
X87345360Y-84311300D01*
X87534642Y-84311300D01*
X87534643Y-84311299D01*
X87720284Y-84274373D01*
X87895157Y-84201938D01*
X88052538Y-84096779D01*
X88186379Y-83962938D01*
X88291538Y-83805557D01*
X88363973Y-83630684D01*
X88400900Y-83445040D01*
X88400900Y-81934960D01*
X88400900Y-81934957D01*
X88400899Y-81934955D01*
X89019100Y-81934955D01*
X89019100Y-83445044D01*
X89056025Y-83630676D01*
X89056027Y-83630684D01*
X89128460Y-83805554D01*
X89128465Y-83805563D01*
X89233620Y-83962937D01*
X89233623Y-83962941D01*
X89367458Y-84096776D01*
X89367462Y-84096779D01*
X89524836Y-84201934D01*
X89524842Y-84201937D01*
X89524843Y-84201938D01*
X89699716Y-84274373D01*
X89885355Y-84311299D01*
X89885358Y-84311300D01*
X89885360Y-84311300D01*
X90074642Y-84311300D01*
X90074643Y-84311299D01*
X90260284Y-84274373D01*
X90435157Y-84201938D01*
X90592538Y-84096779D01*
X90726379Y-83962938D01*
X90831538Y-83805557D01*
X90903973Y-83630684D01*
X90940900Y-83445040D01*
X90940900Y-81934960D01*
X90940900Y-81934957D01*
X90940899Y-81934955D01*
X91559100Y-81934955D01*
X91559100Y-83445044D01*
X91596025Y-83630676D01*
X91596027Y-83630684D01*
X91668460Y-83805554D01*
X91668465Y-83805563D01*
X91773620Y-83962937D01*
X91773623Y-83962941D01*
X91907458Y-84096776D01*
X91907462Y-84096779D01*
X92064836Y-84201934D01*
X92064842Y-84201937D01*
X92064843Y-84201938D01*
X92239716Y-84274373D01*
X92425355Y-84311299D01*
X92425358Y-84311300D01*
X92425360Y-84311300D01*
X92614642Y-84311300D01*
X92614643Y-84311299D01*
X92800284Y-84274373D01*
X92975157Y-84201938D01*
X93132538Y-84096779D01*
X93266379Y-83962938D01*
X93371538Y-83805557D01*
X93443973Y-83630684D01*
X93480900Y-83445040D01*
X93480900Y-81934960D01*
X93480900Y-81934957D01*
X93480899Y-81934955D01*
X94099100Y-81934955D01*
X94099100Y-83445044D01*
X94136025Y-83630676D01*
X94136027Y-83630684D01*
X94208460Y-83805554D01*
X94208465Y-83805563D01*
X94313620Y-83962937D01*
X94313623Y-83962941D01*
X94447458Y-84096776D01*
X94447462Y-84096779D01*
X94604836Y-84201934D01*
X94604842Y-84201937D01*
X94604843Y-84201938D01*
X94779716Y-84274373D01*
X94965355Y-84311299D01*
X94965358Y-84311300D01*
X94965360Y-84311300D01*
X95154642Y-84311300D01*
X95154643Y-84311299D01*
X95340284Y-84274373D01*
X95515157Y-84201938D01*
X95672538Y-84096779D01*
X95806379Y-83962938D01*
X95911538Y-83805557D01*
X95983973Y-83630684D01*
X96020900Y-83445040D01*
X96020900Y-81934960D01*
X96020900Y-81934957D01*
X96020899Y-81934955D01*
X96639100Y-81934955D01*
X96639100Y-83445044D01*
X96676025Y-83630676D01*
X96676027Y-83630684D01*
X96748460Y-83805554D01*
X96748465Y-83805563D01*
X96853620Y-83962937D01*
X96853623Y-83962941D01*
X96987458Y-84096776D01*
X96987462Y-84096779D01*
X97144836Y-84201934D01*
X97144842Y-84201937D01*
X97144843Y-84201938D01*
X97319716Y-84274373D01*
X97505355Y-84311299D01*
X97505358Y-84311300D01*
X97505360Y-84311300D01*
X97694642Y-84311300D01*
X97694643Y-84311299D01*
X97880284Y-84274373D01*
X98055157Y-84201938D01*
X98212538Y-84096779D01*
X98346379Y-83962938D01*
X98451538Y-83805557D01*
X98523973Y-83630684D01*
X98560900Y-83445040D01*
X98560900Y-81934960D01*
X98560900Y-81934957D01*
X98560899Y-81934955D01*
X99179100Y-81934955D01*
X99179100Y-83445044D01*
X99216025Y-83630676D01*
X99216027Y-83630684D01*
X99288460Y-83805554D01*
X99288465Y-83805563D01*
X99393620Y-83962937D01*
X99393623Y-83962941D01*
X99527458Y-84096776D01*
X99527462Y-84096779D01*
X99684836Y-84201934D01*
X99684842Y-84201937D01*
X99684843Y-84201938D01*
X99859716Y-84274373D01*
X100045355Y-84311299D01*
X100045358Y-84311300D01*
X100045360Y-84311300D01*
X100234642Y-84311300D01*
X100234643Y-84311299D01*
X100420284Y-84274373D01*
X100595157Y-84201938D01*
X100752538Y-84096779D01*
X100886379Y-83962938D01*
X100991538Y-83805557D01*
X101063973Y-83630684D01*
X101100900Y-83445040D01*
X101100900Y-81934960D01*
X101100900Y-81934957D01*
X101100899Y-81934955D01*
X101063974Y-81749323D01*
X101063973Y-81749316D01*
X100991538Y-81574443D01*
X100991537Y-81574442D01*
X100991534Y-81574436D01*
X100886379Y-81417062D01*
X100886376Y-81417058D01*
X100752541Y-81283223D01*
X100752537Y-81283220D01*
X100595163Y-81178065D01*
X100595154Y-81178060D01*
X100420284Y-81105627D01*
X100420276Y-81105625D01*
X100234643Y-81068700D01*
X100234640Y-81068700D01*
X100045360Y-81068700D01*
X100045357Y-81068700D01*
X99859723Y-81105625D01*
X99859715Y-81105627D01*
X99684845Y-81178060D01*
X99684836Y-81178065D01*
X99527462Y-81283220D01*
X99527458Y-81283223D01*
X99393623Y-81417058D01*
X99393620Y-81417062D01*
X99288465Y-81574436D01*
X99288460Y-81574445D01*
X99216027Y-81749315D01*
X99216025Y-81749323D01*
X99179100Y-81934955D01*
X98560899Y-81934955D01*
X98523974Y-81749323D01*
X98523973Y-81749316D01*
X98451538Y-81574443D01*
X98451537Y-81574442D01*
X98451534Y-81574436D01*
X98346379Y-81417062D01*
X98346376Y-81417058D01*
X98212541Y-81283223D01*
X98212537Y-81283220D01*
X98055163Y-81178065D01*
X98055154Y-81178060D01*
X97880284Y-81105627D01*
X97880276Y-81105625D01*
X97694643Y-81068700D01*
X97694640Y-81068700D01*
X97505360Y-81068700D01*
X97505357Y-81068700D01*
X97319723Y-81105625D01*
X97319715Y-81105627D01*
X97144845Y-81178060D01*
X97144836Y-81178065D01*
X96987462Y-81283220D01*
X96987458Y-81283223D01*
X96853623Y-81417058D01*
X96853620Y-81417062D01*
X96748465Y-81574436D01*
X96748460Y-81574445D01*
X96676027Y-81749315D01*
X96676025Y-81749323D01*
X96639100Y-81934955D01*
X96020899Y-81934955D01*
X95983974Y-81749323D01*
X95983973Y-81749316D01*
X95911538Y-81574443D01*
X95911537Y-81574442D01*
X95911534Y-81574436D01*
X95806379Y-81417062D01*
X95806376Y-81417058D01*
X95672541Y-81283223D01*
X95672537Y-81283220D01*
X95515163Y-81178065D01*
X95515154Y-81178060D01*
X95340284Y-81105627D01*
X95340276Y-81105625D01*
X95154643Y-81068700D01*
X95154640Y-81068700D01*
X94965360Y-81068700D01*
X94965357Y-81068700D01*
X94779723Y-81105625D01*
X94779715Y-81105627D01*
X94604845Y-81178060D01*
X94604836Y-81178065D01*
X94447462Y-81283220D01*
X94447458Y-81283223D01*
X94313623Y-81417058D01*
X94313620Y-81417062D01*
X94208465Y-81574436D01*
X94208460Y-81574445D01*
X94136027Y-81749315D01*
X94136025Y-81749323D01*
X94099100Y-81934955D01*
X93480899Y-81934955D01*
X93443974Y-81749323D01*
X93443973Y-81749316D01*
X93371538Y-81574443D01*
X93371537Y-81574442D01*
X93371534Y-81574436D01*
X93266379Y-81417062D01*
X93266376Y-81417058D01*
X93132541Y-81283223D01*
X93132537Y-81283220D01*
X92975163Y-81178065D01*
X92975154Y-81178060D01*
X92800284Y-81105627D01*
X92800276Y-81105625D01*
X92614643Y-81068700D01*
X92614640Y-81068700D01*
X92425360Y-81068700D01*
X92425357Y-81068700D01*
X92239723Y-81105625D01*
X92239715Y-81105627D01*
X92064845Y-81178060D01*
X92064836Y-81178065D01*
X91907462Y-81283220D01*
X91907458Y-81283223D01*
X91773623Y-81417058D01*
X91773620Y-81417062D01*
X91668465Y-81574436D01*
X91668460Y-81574445D01*
X91596027Y-81749315D01*
X91596025Y-81749323D01*
X91559100Y-81934955D01*
X90940899Y-81934955D01*
X90903974Y-81749323D01*
X90903973Y-81749316D01*
X90831538Y-81574443D01*
X90831537Y-81574442D01*
X90831534Y-81574436D01*
X90726379Y-81417062D01*
X90726376Y-81417058D01*
X90592541Y-81283223D01*
X90592537Y-81283220D01*
X90435163Y-81178065D01*
X90435154Y-81178060D01*
X90260284Y-81105627D01*
X90260276Y-81105625D01*
X90074643Y-81068700D01*
X90074640Y-81068700D01*
X89885360Y-81068700D01*
X89885357Y-81068700D01*
X89699723Y-81105625D01*
X89699715Y-81105627D01*
X89524845Y-81178060D01*
X89524836Y-81178065D01*
X89367462Y-81283220D01*
X89367458Y-81283223D01*
X89233623Y-81417058D01*
X89233620Y-81417062D01*
X89128465Y-81574436D01*
X89128460Y-81574445D01*
X89056027Y-81749315D01*
X89056025Y-81749323D01*
X89019100Y-81934955D01*
X88400899Y-81934955D01*
X88363974Y-81749323D01*
X88363973Y-81749316D01*
X88291538Y-81574443D01*
X88291537Y-81574442D01*
X88291534Y-81574436D01*
X88186379Y-81417062D01*
X88186376Y-81417058D01*
X88052541Y-81283223D01*
X88052537Y-81283220D01*
X87895163Y-81178065D01*
X87895154Y-81178060D01*
X87720284Y-81105627D01*
X87720276Y-81105625D01*
X87534643Y-81068700D01*
X87534640Y-81068700D01*
X87345360Y-81068700D01*
X87345357Y-81068700D01*
X87159723Y-81105625D01*
X87159715Y-81105627D01*
X86984845Y-81178060D01*
X86984836Y-81178065D01*
X86827462Y-81283220D01*
X86827458Y-81283223D01*
X86693623Y-81417058D01*
X86693620Y-81417062D01*
X86588465Y-81574436D01*
X86588460Y-81574445D01*
X86516027Y-81749315D01*
X86516025Y-81749323D01*
X86479100Y-81934955D01*
X85860899Y-81934955D01*
X85823974Y-81749323D01*
X85823973Y-81749316D01*
X85751538Y-81574443D01*
X85751537Y-81574442D01*
X85751534Y-81574436D01*
X85646379Y-81417062D01*
X85646376Y-81417058D01*
X85512541Y-81283223D01*
X85512537Y-81283220D01*
X85355163Y-81178065D01*
X85355154Y-81178060D01*
X85180284Y-81105627D01*
X85180276Y-81105625D01*
X84994643Y-81068700D01*
X84994640Y-81068700D01*
X84805360Y-81068700D01*
X84805357Y-81068700D01*
X84619723Y-81105625D01*
X84619715Y-81105627D01*
X84444845Y-81178060D01*
X84444836Y-81178065D01*
X84287462Y-81283220D01*
X84287458Y-81283223D01*
X84153623Y-81417058D01*
X84153620Y-81417062D01*
X84048465Y-81574436D01*
X84048460Y-81574445D01*
X83976027Y-81749315D01*
X83976025Y-81749323D01*
X83939100Y-81934955D01*
X83320899Y-81934955D01*
X83283974Y-81749323D01*
X83283973Y-81749316D01*
X83211538Y-81574443D01*
X83211537Y-81574442D01*
X83211534Y-81574436D01*
X83106379Y-81417062D01*
X83106376Y-81417058D01*
X82972541Y-81283223D01*
X82972537Y-81283220D01*
X82815163Y-81178065D01*
X82815154Y-81178060D01*
X82640284Y-81105627D01*
X82640276Y-81105625D01*
X82454643Y-81068700D01*
X82454640Y-81068700D01*
X82265360Y-81068700D01*
X82265357Y-81068700D01*
X82079723Y-81105625D01*
X82079715Y-81105627D01*
X81904845Y-81178060D01*
X81904836Y-81178065D01*
X81747462Y-81283220D01*
X81747458Y-81283223D01*
X81613623Y-81417058D01*
X81613620Y-81417062D01*
X81508465Y-81574436D01*
X81508460Y-81574445D01*
X81436027Y-81749315D01*
X81436025Y-81749323D01*
X81399100Y-81934955D01*
X65450500Y-81934955D01*
X65450500Y-74814071D01*
X104849499Y-74814071D01*
X104874497Y-74939738D01*
X104874499Y-74939744D01*
X104923533Y-75058124D01*
X104923538Y-75058133D01*
X104994723Y-75164668D01*
X104994726Y-75164672D01*
X105085327Y-75255273D01*
X105085331Y-75255276D01*
X105191866Y-75326461D01*
X105191872Y-75326464D01*
X105191873Y-75326465D01*
X105310256Y-75375501D01*
X105310260Y-75375501D01*
X105310261Y-75375502D01*
X105435928Y-75400500D01*
X105435931Y-75400500D01*
X105564071Y-75400500D01*
X105648615Y-75383682D01*
X105689744Y-75375501D01*
X105808127Y-75326465D01*
X105815712Y-75321396D01*
X105882389Y-75300520D01*
X105884601Y-75300500D01*
X106865399Y-75300500D01*
X106932438Y-75320185D01*
X106934252Y-75321373D01*
X106941873Y-75326465D01*
X107060256Y-75375501D01*
X107060260Y-75375501D01*
X107060261Y-75375502D01*
X107185928Y-75400500D01*
X107185931Y-75400500D01*
X107314071Y-75400500D01*
X107398615Y-75383682D01*
X107439744Y-75375501D01*
X107558127Y-75326465D01*
X107664669Y-75255276D01*
X107755276Y-75164669D01*
X107826465Y-75058127D01*
X107875501Y-74939744D01*
X107900500Y-74814069D01*
X107900500Y-74685931D01*
X107900500Y-74685928D01*
X107875502Y-74560261D01*
X107875501Y-74560260D01*
X107875501Y-74560256D01*
X107826465Y-74441873D01*
X107826464Y-74441872D01*
X107826461Y-74441866D01*
X107755276Y-74335331D01*
X107755273Y-74335327D01*
X107664672Y-74244726D01*
X107664668Y-74244723D01*
X107558133Y-74173538D01*
X107558124Y-74173533D01*
X107439744Y-74124499D01*
X107439738Y-74124497D01*
X107314071Y-74099500D01*
X107314069Y-74099500D01*
X107185931Y-74099500D01*
X107185929Y-74099500D01*
X107060261Y-74124497D01*
X107060255Y-74124499D01*
X106941876Y-74173533D01*
X106941873Y-74173534D01*
X106941873Y-74173535D01*
X106934287Y-74178603D01*
X106867611Y-74199480D01*
X106865399Y-74199500D01*
X105884601Y-74199500D01*
X105817562Y-74179815D01*
X105815747Y-74178626D01*
X105808127Y-74173535D01*
X105808124Y-74173533D01*
X105808123Y-74173533D01*
X105689744Y-74124499D01*
X105689738Y-74124497D01*
X105564071Y-74099500D01*
X105564069Y-74099500D01*
X105435931Y-74099500D01*
X105435929Y-74099500D01*
X105310261Y-74124497D01*
X105310255Y-74124499D01*
X105191875Y-74173533D01*
X105191866Y-74173538D01*
X105085331Y-74244723D01*
X105085327Y-74244726D01*
X104994726Y-74335327D01*
X104994723Y-74335331D01*
X104923538Y-74441866D01*
X104923533Y-74441875D01*
X104874499Y-74560255D01*
X104874497Y-74560261D01*
X104849500Y-74685928D01*
X104849500Y-74685931D01*
X104849500Y-74814069D01*
X104849500Y-74814071D01*
X104849499Y-74814071D01*
X65450500Y-74814071D01*
X65450500Y-71184108D01*
X109999500Y-71184108D01*
X109999500Y-71315891D01*
X110033608Y-71443187D01*
X110066554Y-71500250D01*
X110099500Y-71557314D01*
X110192686Y-71650500D01*
X110306814Y-71716392D01*
X110434108Y-71750500D01*
X110434110Y-71750500D01*
X110565890Y-71750500D01*
X110565892Y-71750500D01*
X110693186Y-71716392D01*
X110807314Y-71650500D01*
X110900500Y-71557314D01*
X110966392Y-71443186D01*
X111000500Y-71315892D01*
X111000500Y-71184108D01*
X110966392Y-71056814D01*
X110900500Y-70942686D01*
X110807314Y-70849500D01*
X110750250Y-70816554D01*
X110693187Y-70783608D01*
X110622504Y-70764669D01*
X110565892Y-70749500D01*
X110434108Y-70749500D01*
X110306812Y-70783608D01*
X110192686Y-70849500D01*
X110192683Y-70849502D01*
X110099502Y-70942683D01*
X110099500Y-70942686D01*
X110033608Y-71056812D01*
X109999500Y-71184108D01*
X65450500Y-71184108D01*
X65450500Y-68664071D01*
X103849499Y-68664071D01*
X103874497Y-68789738D01*
X103874499Y-68789744D01*
X103923533Y-68908124D01*
X103923534Y-68908126D01*
X103923535Y-68908127D01*
X103928600Y-68915708D01*
X103949480Y-68982383D01*
X103949500Y-68984600D01*
X103949500Y-69965399D01*
X103929815Y-70032438D01*
X103928604Y-70034287D01*
X103923534Y-70041873D01*
X103874499Y-70160256D01*
X103874497Y-70160262D01*
X103849500Y-70285929D01*
X103849500Y-70285932D01*
X103849500Y-70414070D01*
X103849500Y-70414072D01*
X103849499Y-70414072D01*
X103874497Y-70539739D01*
X103874499Y-70539745D01*
X103923533Y-70658125D01*
X103923538Y-70658134D01*
X103994723Y-70764669D01*
X103994726Y-70764673D01*
X104085327Y-70855274D01*
X104085331Y-70855277D01*
X104191866Y-70926462D01*
X104191872Y-70926465D01*
X104191873Y-70926466D01*
X104310256Y-70975502D01*
X104310260Y-70975502D01*
X104310261Y-70975503D01*
X104435928Y-71000501D01*
X104435931Y-71000501D01*
X104564071Y-71000501D01*
X104648615Y-70983683D01*
X104689744Y-70975502D01*
X104808127Y-70926466D01*
X104914669Y-70855277D01*
X105005276Y-70764670D01*
X105076465Y-70658128D01*
X105125501Y-70539745D01*
X105150500Y-70414070D01*
X105150500Y-70285932D01*
X105150500Y-70285929D01*
X105125502Y-70160262D01*
X105125501Y-70160261D01*
X105125501Y-70160257D01*
X105076465Y-70041874D01*
X105076465Y-70041873D01*
X105071396Y-70034287D01*
X105050520Y-69967609D01*
X105050500Y-69965399D01*
X105050500Y-68984600D01*
X105070185Y-68917561D01*
X105071359Y-68915768D01*
X105076465Y-68908127D01*
X105125501Y-68789744D01*
X105150500Y-68664069D01*
X105150500Y-68535931D01*
X105150500Y-68535928D01*
X105125502Y-68410261D01*
X105125501Y-68410260D01*
X105125501Y-68410256D01*
X105076465Y-68291873D01*
X105076464Y-68291872D01*
X105076461Y-68291866D01*
X105005276Y-68185331D01*
X105005273Y-68185327D01*
X104914672Y-68094726D01*
X104914668Y-68094723D01*
X104808133Y-68023538D01*
X104808124Y-68023533D01*
X104689744Y-67974499D01*
X104689738Y-67974497D01*
X104564071Y-67949500D01*
X104564069Y-67949500D01*
X104435931Y-67949500D01*
X104435929Y-67949500D01*
X104310261Y-67974497D01*
X104310255Y-67974499D01*
X104191875Y-68023533D01*
X104191866Y-68023538D01*
X104085331Y-68094723D01*
X104085327Y-68094726D01*
X103994726Y-68185327D01*
X103994723Y-68185331D01*
X103923538Y-68291866D01*
X103923533Y-68291875D01*
X103874499Y-68410255D01*
X103874497Y-68410261D01*
X103849500Y-68535928D01*
X103849500Y-68535931D01*
X103849500Y-68664069D01*
X103849500Y-68664071D01*
X103849499Y-68664071D01*
X65450500Y-68664071D01*
X65450500Y-67184108D01*
X109999500Y-67184108D01*
X109999500Y-67315891D01*
X110033608Y-67443187D01*
X110066554Y-67500250D01*
X110099500Y-67557314D01*
X110192686Y-67650500D01*
X110306814Y-67716392D01*
X110434108Y-67750500D01*
X110434110Y-67750500D01*
X110565890Y-67750500D01*
X110565892Y-67750500D01*
X110693186Y-67716392D01*
X110807314Y-67650500D01*
X110900500Y-67557314D01*
X110966392Y-67443186D01*
X111000500Y-67315892D01*
X111000500Y-67184108D01*
X110966392Y-67056814D01*
X110900500Y-66942686D01*
X110807314Y-66849500D01*
X110750250Y-66816554D01*
X110693187Y-66783608D01*
X110663336Y-66775609D01*
X110565892Y-66749500D01*
X110434108Y-66749500D01*
X110306812Y-66783608D01*
X110192686Y-66849500D01*
X110192683Y-66849502D01*
X110099502Y-66942683D01*
X110099500Y-66942686D01*
X110033608Y-67056812D01*
X109999500Y-67184108D01*
X65450500Y-67184108D01*
X65450500Y-61147648D01*
X75199500Y-61147648D01*
X75199500Y-61352351D01*
X75231522Y-61554534D01*
X75294781Y-61749223D01*
X75387715Y-61931613D01*
X75508028Y-62097213D01*
X75652786Y-62241971D01*
X75807749Y-62354556D01*
X75818390Y-62362287D01*
X75934607Y-62421503D01*
X76000776Y-62455218D01*
X76000778Y-62455218D01*
X76000781Y-62455220D01*
X76105137Y-62489127D01*
X76195465Y-62518477D01*
X76296557Y-62534488D01*
X76397648Y-62550500D01*
X76397649Y-62550500D01*
X76602351Y-62550500D01*
X76602352Y-62550500D01*
X76804534Y-62518477D01*
X76999219Y-62455220D01*
X77181610Y-62362287D01*
X77274590Y-62294732D01*
X77347213Y-62241971D01*
X77347215Y-62241968D01*
X77347219Y-62241966D01*
X77491966Y-62097219D01*
X77491968Y-62097215D01*
X77491971Y-62097213D01*
X77544732Y-62024590D01*
X77612287Y-61931610D01*
X77705220Y-61749219D01*
X77768477Y-61554534D01*
X77800500Y-61352352D01*
X77800500Y-61147648D01*
X77768477Y-60945466D01*
X77768476Y-60945464D01*
X77705322Y-60751095D01*
X77705220Y-60750781D01*
X77705218Y-60750778D01*
X77705218Y-60750776D01*
X77639689Y-60622170D01*
X77612287Y-60568390D01*
X77612284Y-60568386D01*
X77611142Y-60566144D01*
X77598246Y-60497475D01*
X77624522Y-60432735D01*
X77681628Y-60392477D01*
X77751434Y-60389485D01*
X77794512Y-60409531D01*
X77874565Y-60467692D01*
X77897006Y-60483996D01*
X78002484Y-60537740D01*
X78058360Y-60566211D01*
X78058363Y-60566212D01*
X78144476Y-60594191D01*
X78230591Y-60622171D01*
X78313429Y-60635291D01*
X78409449Y-60650500D01*
X78409454Y-60650500D01*
X78590551Y-60650500D01*
X78677259Y-60636765D01*
X78769409Y-60622171D01*
X78941639Y-60566211D01*
X79102994Y-60483996D01*
X79249501Y-60377553D01*
X79377553Y-60249501D01*
X79483996Y-60102994D01*
X79566211Y-59941639D01*
X79622171Y-59769409D01*
X79646107Y-59618284D01*
X79650500Y-59590551D01*
X79650500Y-59409448D01*
X81349500Y-59409448D01*
X81349500Y-59590551D01*
X81377829Y-59769410D01*
X81433787Y-59941636D01*
X81433788Y-59941639D01*
X81486342Y-60044780D01*
X81506157Y-60083669D01*
X81516006Y-60102997D01*
X81622441Y-60249494D01*
X81622445Y-60249499D01*
X81750500Y-60377554D01*
X81750505Y-60377558D01*
X81785229Y-60402786D01*
X81897006Y-60483996D01*
X82002484Y-60537740D01*
X82058360Y-60566211D01*
X82058363Y-60566212D01*
X82144476Y-60594191D01*
X82230591Y-60622171D01*
X82313429Y-60635291D01*
X82409449Y-60650500D01*
X82409454Y-60650500D01*
X82590551Y-60650500D01*
X82677259Y-60636765D01*
X82769409Y-60622171D01*
X82941639Y-60566211D01*
X83102994Y-60483996D01*
X83214771Y-60402786D01*
X83249495Y-60377558D01*
X83249497Y-60377555D01*
X83249501Y-60377553D01*
X83377553Y-60249501D01*
X83483996Y-60102994D01*
X83566211Y-59941639D01*
X83622171Y-59769409D01*
X83646107Y-59618284D01*
X83650500Y-59590551D01*
X83650500Y-59409448D01*
X83650314Y-59408274D01*
X83650314Y-59408273D01*
X83648014Y-59393753D01*
X85150000Y-59393753D01*
X85150000Y-59606246D01*
X85183242Y-59816127D01*
X85183242Y-59816130D01*
X85248904Y-60018217D01*
X85345375Y-60207550D01*
X85384728Y-60261716D01*
X86057861Y-59588584D01*
X86080667Y-59673694D01*
X86139910Y-59776306D01*
X86223694Y-59860090D01*
X86326306Y-59919333D01*
X86411415Y-59942138D01*
X85738282Y-60615269D01*
X85738282Y-60615270D01*
X85792449Y-60654624D01*
X85981782Y-60751095D01*
X86183870Y-60816757D01*
X86393754Y-60850000D01*
X86606246Y-60850000D01*
X86816127Y-60816757D01*
X86816130Y-60816757D01*
X87018219Y-60751094D01*
X87082792Y-60718193D01*
X87151462Y-60705296D01*
X87216202Y-60731572D01*
X87256460Y-60788678D01*
X87259452Y-60858484D01*
X87257019Y-60866995D01*
X87231523Y-60945461D01*
X87231523Y-60945464D01*
X87199500Y-61147648D01*
X87199500Y-61352351D01*
X87231522Y-61554534D01*
X87294781Y-61749223D01*
X87387715Y-61931613D01*
X87508028Y-62097213D01*
X87652786Y-62241971D01*
X87807749Y-62354556D01*
X87818390Y-62362287D01*
X87934607Y-62421503D01*
X88000776Y-62455218D01*
X88000778Y-62455218D01*
X88000781Y-62455220D01*
X88105137Y-62489127D01*
X88195465Y-62518477D01*
X88296557Y-62534488D01*
X88397648Y-62550500D01*
X88397649Y-62550500D01*
X88602351Y-62550500D01*
X88602352Y-62550500D01*
X88804534Y-62518477D01*
X88999219Y-62455220D01*
X89181610Y-62362287D01*
X89274590Y-62294732D01*
X89347213Y-62241971D01*
X89347215Y-62241968D01*
X89347219Y-62241966D01*
X89491966Y-62097219D01*
X89491968Y-62097215D01*
X89491971Y-62097213D01*
X89544732Y-62024590D01*
X89612287Y-61931610D01*
X89705220Y-61749219D01*
X89768477Y-61554534D01*
X89800500Y-61352352D01*
X89800500Y-61147648D01*
X89768477Y-60945466D01*
X89768476Y-60945464D01*
X89705322Y-60751095D01*
X89705220Y-60750781D01*
X89705218Y-60750778D01*
X89705218Y-60750776D01*
X89654124Y-60650500D01*
X89612287Y-60568390D01*
X89550972Y-60483996D01*
X89491971Y-60402786D01*
X89347213Y-60258028D01*
X89181613Y-60137715D01*
X89181612Y-60137714D01*
X89181610Y-60137713D01*
X89113470Y-60102994D01*
X88999223Y-60044781D01*
X88804534Y-59981522D01*
X88629995Y-59953878D01*
X88602352Y-59949500D01*
X88397648Y-59949500D01*
X88373329Y-59953351D01*
X88195465Y-59981522D01*
X88000773Y-60044782D01*
X87957947Y-60066604D01*
X87889278Y-60079500D01*
X87824538Y-60053223D01*
X87784281Y-59996116D01*
X87781289Y-59926311D01*
X87783722Y-59917800D01*
X87816758Y-59816126D01*
X87850000Y-59606246D01*
X87850000Y-59393753D01*
X87816757Y-59183872D01*
X87816758Y-59183872D01*
X87814589Y-59177197D01*
X87814588Y-59177195D01*
X87803722Y-59143753D01*
X94110000Y-59143753D01*
X94110000Y-59356246D01*
X94143242Y-59566127D01*
X94143242Y-59566130D01*
X94208904Y-59768217D01*
X94305375Y-59957550D01*
X94344728Y-60011716D01*
X94977037Y-59379408D01*
X94994075Y-59442993D01*
X95059901Y-59557007D01*
X95152993Y-59650099D01*
X95267007Y-59715925D01*
X95330590Y-59732962D01*
X94698282Y-60365269D01*
X94698282Y-60365270D01*
X94752449Y-60404624D01*
X94941782Y-60501095D01*
X95143870Y-60566757D01*
X95353754Y-60600000D01*
X95566246Y-60600000D01*
X95776127Y-60566757D01*
X95776130Y-60566757D01*
X95978217Y-60501095D01*
X96167554Y-60404622D01*
X96221716Y-60365270D01*
X96221717Y-60365270D01*
X95589408Y-59732962D01*
X95652993Y-59715925D01*
X95767007Y-59650099D01*
X95860099Y-59557007D01*
X95925925Y-59442993D01*
X95942962Y-59379409D01*
X96575270Y-60011717D01*
X96575270Y-60011716D01*
X96614622Y-59957554D01*
X96711095Y-59768217D01*
X96720492Y-59739295D01*
X96759928Y-59681618D01*
X96824286Y-59654419D01*
X96893133Y-59666331D01*
X96944610Y-59713574D01*
X96948908Y-59721314D01*
X97016004Y-59852995D01*
X97122441Y-59999494D01*
X97122445Y-59999499D01*
X97250500Y-60127554D01*
X97250505Y-60127558D01*
X97360606Y-60207550D01*
X97397006Y-60233996D01*
X97473094Y-60272765D01*
X97558360Y-60316211D01*
X97558363Y-60316212D01*
X97644476Y-60344191D01*
X97730591Y-60372171D01*
X97813429Y-60385291D01*
X97909449Y-60400500D01*
X97909454Y-60400500D01*
X98090551Y-60400500D01*
X98177259Y-60386765D01*
X98269409Y-60372171D01*
X98441639Y-60316211D01*
X98602994Y-60233996D01*
X98749501Y-60127553D01*
X98877553Y-59999501D01*
X98983996Y-59852994D01*
X99066211Y-59691639D01*
X99122171Y-59519409D01*
X99143027Y-59387729D01*
X99147527Y-59359321D01*
X99177456Y-59296186D01*
X99236768Y-59259255D01*
X99306630Y-59260253D01*
X99364863Y-59298863D01*
X99392473Y-59359321D01*
X99417829Y-59519410D01*
X99473787Y-59691636D01*
X99473788Y-59691639D01*
X99556006Y-59852997D01*
X99662441Y-59999494D01*
X99662445Y-59999499D01*
X99790500Y-60127554D01*
X99790505Y-60127558D01*
X99900606Y-60207550D01*
X99937006Y-60233996D01*
X100013094Y-60272765D01*
X100098360Y-60316211D01*
X100098363Y-60316212D01*
X100184476Y-60344191D01*
X100270591Y-60372171D01*
X100353429Y-60385291D01*
X100449449Y-60400500D01*
X100449454Y-60400500D01*
X100630551Y-60400500D01*
X100717259Y-60386765D01*
X100809409Y-60372171D01*
X100981639Y-60316211D01*
X101142994Y-60233996D01*
X101289501Y-60127553D01*
X101417553Y-59999501D01*
X101523996Y-59852994D01*
X101606211Y-59691639D01*
X101662171Y-59519409D01*
X101683027Y-59387729D01*
X101712956Y-59324595D01*
X101772267Y-59287663D01*
X101842130Y-59288661D01*
X101900363Y-59327271D01*
X101928477Y-59391234D01*
X101929500Y-59407127D01*
X101929500Y-60144856D01*
X101929502Y-60144882D01*
X101932413Y-60169987D01*
X101932415Y-60169991D01*
X101977793Y-60272764D01*
X101977794Y-60272765D01*
X102057235Y-60352206D01*
X102160009Y-60397585D01*
X102185135Y-60400500D01*
X103974864Y-60400499D01*
X103974879Y-60400497D01*
X103974882Y-60400497D01*
X103999987Y-60397586D01*
X103999988Y-60397585D01*
X103999991Y-60397585D01*
X104102765Y-60352206D01*
X104182206Y-60272765D01*
X104227585Y-60169991D01*
X104230500Y-60144865D01*
X104230499Y-58355136D01*
X104230137Y-58352014D01*
X104227586Y-58330012D01*
X104227585Y-58330010D01*
X104227585Y-58330009D01*
X104182206Y-58227235D01*
X104102765Y-58147794D01*
X104102763Y-58147793D01*
X103999992Y-58102415D01*
X103974865Y-58099500D01*
X102185143Y-58099500D01*
X102185117Y-58099502D01*
X102160012Y-58102413D01*
X102160008Y-58102415D01*
X102057235Y-58147793D01*
X101977794Y-58227234D01*
X101932415Y-58330006D01*
X101932415Y-58330008D01*
X101929500Y-58355131D01*
X101929500Y-59092871D01*
X101909815Y-59159910D01*
X101857011Y-59205665D01*
X101787853Y-59215609D01*
X101724297Y-59186584D01*
X101686523Y-59127806D01*
X101683027Y-59112269D01*
X101674489Y-59058363D01*
X101662171Y-58980591D01*
X101606211Y-58808361D01*
X101606211Y-58808360D01*
X101567191Y-58731780D01*
X101523996Y-58647006D01*
X101506153Y-58622447D01*
X101417558Y-58500505D01*
X101417554Y-58500500D01*
X101289499Y-58372445D01*
X101289494Y-58372441D01*
X101142997Y-58266006D01*
X101142996Y-58266005D01*
X101142994Y-58266004D01*
X101066906Y-58227235D01*
X100981639Y-58183788D01*
X100981636Y-58183787D01*
X100809410Y-58127829D01*
X100630551Y-58099500D01*
X100630546Y-58099500D01*
X100449454Y-58099500D01*
X100449449Y-58099500D01*
X100270589Y-58127829D01*
X100098363Y-58183787D01*
X100098360Y-58183788D01*
X99937002Y-58266006D01*
X99790505Y-58372441D01*
X99790500Y-58372445D01*
X99662445Y-58500500D01*
X99662441Y-58500505D01*
X99556006Y-58647002D01*
X99473788Y-58808360D01*
X99473787Y-58808363D01*
X99417829Y-58980589D01*
X99392473Y-59140678D01*
X99362544Y-59203813D01*
X99303232Y-59240744D01*
X99233369Y-59239746D01*
X99175137Y-59201136D01*
X99147527Y-59140678D01*
X99133164Y-59050000D01*
X99122171Y-58980591D01*
X99066211Y-58808361D01*
X99066211Y-58808360D01*
X99027191Y-58731780D01*
X98983996Y-58647006D01*
X98966153Y-58622447D01*
X98877558Y-58500505D01*
X98877554Y-58500500D01*
X98749499Y-58372445D01*
X98749494Y-58372441D01*
X98602997Y-58266006D01*
X98602996Y-58266005D01*
X98602994Y-58266004D01*
X98526906Y-58227235D01*
X98441639Y-58183788D01*
X98441636Y-58183787D01*
X98269410Y-58127829D01*
X98090551Y-58099500D01*
X98090546Y-58099500D01*
X97909454Y-58099500D01*
X97909449Y-58099500D01*
X97730589Y-58127829D01*
X97558363Y-58183787D01*
X97558360Y-58183788D01*
X97397002Y-58266006D01*
X97250505Y-58372441D01*
X97250500Y-58372445D01*
X97122445Y-58500500D01*
X97122441Y-58500505D01*
X97016004Y-58647004D01*
X96948908Y-58778685D01*
X96900933Y-58829480D01*
X96833112Y-58846275D01*
X96766977Y-58823737D01*
X96723527Y-58769021D01*
X96720492Y-58760705D01*
X96711094Y-58731780D01*
X96614624Y-58542449D01*
X96575270Y-58488282D01*
X96575269Y-58488282D01*
X95942962Y-59120590D01*
X95925925Y-59057007D01*
X95860099Y-58942993D01*
X95767007Y-58849901D01*
X95652993Y-58784075D01*
X95589409Y-58767037D01*
X96221716Y-58134728D01*
X96167550Y-58095375D01*
X95978215Y-57998903D01*
X95968851Y-57995861D01*
X95968850Y-57995861D01*
X95776129Y-57933242D01*
X95566246Y-57900000D01*
X95353754Y-57900000D01*
X95143872Y-57933242D01*
X95143869Y-57933242D01*
X94941782Y-57998904D01*
X94752439Y-58095380D01*
X94698282Y-58134727D01*
X94698282Y-58134728D01*
X95330591Y-58767037D01*
X95267007Y-58784075D01*
X95152993Y-58849901D01*
X95059901Y-58942993D01*
X94994075Y-59057007D01*
X94977037Y-59120591D01*
X94344728Y-58488282D01*
X94344727Y-58488282D01*
X94305380Y-58542439D01*
X94208904Y-58731782D01*
X94143242Y-58933869D01*
X94143242Y-58933872D01*
X94110000Y-59143753D01*
X87803722Y-59143753D01*
X87751095Y-58981782D01*
X87654624Y-58792449D01*
X87615270Y-58738282D01*
X87615269Y-58738282D01*
X86942138Y-59411415D01*
X86919333Y-59326306D01*
X86860090Y-59223694D01*
X86776306Y-59139910D01*
X86673694Y-59080667D01*
X86588584Y-59057861D01*
X87261716Y-58384728D01*
X87207550Y-58345375D01*
X87103723Y-58292472D01*
X87018217Y-58248904D01*
X86816129Y-58183242D01*
X86606246Y-58150000D01*
X86393754Y-58150000D01*
X86183872Y-58183242D01*
X86183869Y-58183242D01*
X85981782Y-58248904D01*
X85792439Y-58345380D01*
X85738282Y-58384727D01*
X85738282Y-58384728D01*
X86411415Y-59057861D01*
X86326306Y-59080667D01*
X86223694Y-59139910D01*
X86139910Y-59223694D01*
X86080667Y-59326306D01*
X86057861Y-59411415D01*
X85384728Y-58738282D01*
X85384727Y-58738282D01*
X85345380Y-58792439D01*
X85248904Y-58981782D01*
X85183242Y-59183869D01*
X85183242Y-59183872D01*
X85150000Y-59393753D01*
X83648014Y-59393753D01*
X83625245Y-59250000D01*
X83622171Y-59230591D01*
X83588775Y-59127806D01*
X83566212Y-59058363D01*
X83566211Y-59058360D01*
X83526584Y-58980589D01*
X83483996Y-58897006D01*
X83470396Y-58878287D01*
X83377558Y-58750505D01*
X83377554Y-58750500D01*
X83249499Y-58622445D01*
X83249494Y-58622441D01*
X83125432Y-58532305D01*
X83102996Y-58516005D01*
X82941639Y-58433788D01*
X82941636Y-58433787D01*
X82769410Y-58377829D01*
X82590551Y-58349500D01*
X82590546Y-58349500D01*
X82409454Y-58349500D01*
X82409449Y-58349500D01*
X82230589Y-58377829D01*
X82058363Y-58433787D01*
X82058360Y-58433788D01*
X81897002Y-58516006D01*
X81750505Y-58622441D01*
X81750500Y-58622445D01*
X81622445Y-58750500D01*
X81622441Y-58750505D01*
X81516006Y-58897002D01*
X81433788Y-59058360D01*
X81433787Y-59058363D01*
X81377829Y-59230589D01*
X81349500Y-59409448D01*
X79650500Y-59409448D01*
X79626869Y-59260253D01*
X79622171Y-59230591D01*
X79588775Y-59127806D01*
X79566212Y-59058363D01*
X79566211Y-59058360D01*
X79526584Y-58980589D01*
X79483996Y-58897006D01*
X79470396Y-58878287D01*
X79377558Y-58750505D01*
X79377554Y-58750500D01*
X79249499Y-58622445D01*
X79249494Y-58622441D01*
X79102997Y-58516006D01*
X79102996Y-58516005D01*
X79102994Y-58516004D01*
X79048587Y-58488282D01*
X78941639Y-58433788D01*
X78941636Y-58433787D01*
X78769410Y-58377829D01*
X78590551Y-58349500D01*
X78590546Y-58349500D01*
X78409454Y-58349500D01*
X78409449Y-58349500D01*
X78230589Y-58377829D01*
X78058363Y-58433787D01*
X78058360Y-58433788D01*
X77897002Y-58516006D01*
X77750505Y-58622441D01*
X77750500Y-58622445D01*
X77622445Y-58750500D01*
X77622441Y-58750505D01*
X77516006Y-58897002D01*
X77433788Y-59058360D01*
X77433787Y-59058363D01*
X77377829Y-59230589D01*
X77349500Y-59409448D01*
X77349500Y-59590551D01*
X77377829Y-59769410D01*
X77433787Y-59941636D01*
X77433788Y-59941639D01*
X77506157Y-60083669D01*
X77519053Y-60152338D01*
X77492777Y-60217079D01*
X77435670Y-60257336D01*
X77365865Y-60260328D01*
X77322787Y-60240283D01*
X77181609Y-60137712D01*
X76999223Y-60044781D01*
X76804534Y-59981522D01*
X76629995Y-59953878D01*
X76602352Y-59949500D01*
X76397648Y-59949500D01*
X76373329Y-59953351D01*
X76195465Y-59981522D01*
X76000776Y-60044781D01*
X75818386Y-60137715D01*
X75652786Y-60258028D01*
X75508028Y-60402786D01*
X75387715Y-60568386D01*
X75294781Y-60750776D01*
X75231522Y-60945465D01*
X75199500Y-61147648D01*
X65450500Y-61147648D01*
X65450500Y-58002871D01*
X65450632Y-57997145D01*
X65455123Y-57900000D01*
X65455955Y-57881995D01*
X67949500Y-57881995D01*
X67949500Y-58118004D01*
X67949501Y-58118020D01*
X67979433Y-58345380D01*
X67980307Y-58352014D01*
X67989073Y-58384728D01*
X68041394Y-58579993D01*
X68131714Y-58798045D01*
X68131719Y-58798056D01*
X68188849Y-58897006D01*
X68249727Y-59002450D01*
X68249729Y-59002453D01*
X68249730Y-59002454D01*
X68393406Y-59189697D01*
X68393412Y-59189704D01*
X68560295Y-59356587D01*
X68560302Y-59356593D01*
X68627653Y-59408273D01*
X68747550Y-59500273D01*
X68861618Y-59566130D01*
X68951943Y-59618280D01*
X68951948Y-59618282D01*
X68951951Y-59618284D01*
X69170007Y-59708606D01*
X69397986Y-59769693D01*
X69631989Y-59800500D01*
X69631996Y-59800500D01*
X69868004Y-59800500D01*
X69868011Y-59800500D01*
X70102014Y-59769693D01*
X70329993Y-59708606D01*
X70548049Y-59618284D01*
X70752450Y-59500273D01*
X70939699Y-59356592D01*
X71106592Y-59189699D01*
X71250273Y-59002450D01*
X71368284Y-58798049D01*
X71458606Y-58579993D01*
X71519693Y-58352014D01*
X71550500Y-58118011D01*
X71550500Y-57881995D01*
X107949500Y-57881995D01*
X107949500Y-58118004D01*
X107949501Y-58118020D01*
X107979433Y-58345380D01*
X107980307Y-58352014D01*
X107989073Y-58384728D01*
X108041394Y-58579993D01*
X108131714Y-58798045D01*
X108131719Y-58798056D01*
X108188849Y-58897006D01*
X108249727Y-59002450D01*
X108249729Y-59002453D01*
X108249730Y-59002454D01*
X108393406Y-59189697D01*
X108393412Y-59189704D01*
X108560295Y-59356587D01*
X108560302Y-59356593D01*
X108627653Y-59408273D01*
X108747550Y-59500273D01*
X108861618Y-59566130D01*
X108951943Y-59618280D01*
X108951948Y-59618282D01*
X108951951Y-59618284D01*
X109170007Y-59708606D01*
X109397986Y-59769693D01*
X109631989Y-59800500D01*
X109631996Y-59800500D01*
X109868004Y-59800500D01*
X109868011Y-59800500D01*
X110102014Y-59769693D01*
X110329993Y-59708606D01*
X110548049Y-59618284D01*
X110752450Y-59500273D01*
X110939699Y-59356592D01*
X111106592Y-59189699D01*
X111250273Y-59002450D01*
X111368284Y-58798049D01*
X111458606Y-58579993D01*
X111519693Y-58352014D01*
X111550500Y-58118011D01*
X111550500Y-57881989D01*
X111519693Y-57647986D01*
X111458606Y-57420007D01*
X111368284Y-57201951D01*
X111368282Y-57201948D01*
X111368280Y-57201943D01*
X111326118Y-57128918D01*
X111250273Y-56997550D01*
X111191001Y-56920306D01*
X111106593Y-56810302D01*
X111106587Y-56810295D01*
X110939704Y-56643412D01*
X110939697Y-56643406D01*
X110752454Y-56499730D01*
X110752453Y-56499729D01*
X110752450Y-56499727D01*
X110651756Y-56441591D01*
X110548056Y-56381719D01*
X110548045Y-56381714D01*
X110329993Y-56291394D01*
X110102010Y-56230306D01*
X109868020Y-56199501D01*
X109868017Y-56199500D01*
X109868011Y-56199500D01*
X109631989Y-56199500D01*
X109631983Y-56199500D01*
X109631979Y-56199501D01*
X109397989Y-56230306D01*
X109170006Y-56291394D01*
X108951954Y-56381714D01*
X108951943Y-56381719D01*
X108747545Y-56499730D01*
X108560302Y-56643406D01*
X108560295Y-56643412D01*
X108393412Y-56810295D01*
X108393406Y-56810302D01*
X108249730Y-56997545D01*
X108131719Y-57201943D01*
X108131714Y-57201954D01*
X108041394Y-57420006D01*
X107980306Y-57647989D01*
X107949501Y-57881979D01*
X107949500Y-57881995D01*
X71550500Y-57881995D01*
X71550500Y-57881989D01*
X71519693Y-57647986D01*
X71458606Y-57420007D01*
X71368284Y-57201951D01*
X71368282Y-57201948D01*
X71368280Y-57201943D01*
X71326118Y-57128918D01*
X71250273Y-56997550D01*
X71191001Y-56920306D01*
X71106593Y-56810302D01*
X71106587Y-56810295D01*
X70939704Y-56643412D01*
X70939697Y-56643406D01*
X70752454Y-56499730D01*
X70752453Y-56499729D01*
X70752450Y-56499727D01*
X70651756Y-56441591D01*
X70548056Y-56381719D01*
X70548045Y-56381714D01*
X70329993Y-56291394D01*
X70102010Y-56230306D01*
X69868020Y-56199501D01*
X69868017Y-56199500D01*
X69868011Y-56199500D01*
X69631989Y-56199500D01*
X69631983Y-56199500D01*
X69631979Y-56199501D01*
X69397989Y-56230306D01*
X69170006Y-56291394D01*
X68951954Y-56381714D01*
X68951943Y-56381719D01*
X68747545Y-56499730D01*
X68560302Y-56643406D01*
X68560295Y-56643412D01*
X68393412Y-56810295D01*
X68393406Y-56810302D01*
X68249730Y-56997545D01*
X68131719Y-57201943D01*
X68131714Y-57201954D01*
X68041394Y-57420006D01*
X67980306Y-57647989D01*
X67949501Y-57881979D01*
X67949500Y-57881995D01*
X65455955Y-57881995D01*
X65468576Y-57609006D01*
X65469633Y-57597611D01*
X65494408Y-57420006D01*
X65522917Y-57215632D01*
X65525017Y-57204395D01*
X65613321Y-56828950D01*
X65616444Y-56817971D01*
X65739021Y-56452250D01*
X65743144Y-56441611D01*
X65898937Y-56088773D01*
X65904020Y-56078564D01*
X66091702Y-55741611D01*
X66097728Y-55731879D01*
X66315697Y-55413681D01*
X66322579Y-55404569D01*
X66535924Y-55147648D01*
X75199500Y-55147648D01*
X75199500Y-55352351D01*
X75231522Y-55554534D01*
X75294781Y-55749223D01*
X75387715Y-55931613D01*
X75508028Y-56097213D01*
X75652786Y-56241971D01*
X75807749Y-56354556D01*
X75818390Y-56362287D01*
X75934607Y-56421503D01*
X76000776Y-56455218D01*
X76000778Y-56455218D01*
X76000781Y-56455220D01*
X76105137Y-56489127D01*
X76195465Y-56518477D01*
X76296557Y-56534488D01*
X76397648Y-56550500D01*
X76397649Y-56550500D01*
X76602351Y-56550500D01*
X76602352Y-56550500D01*
X76804534Y-56518477D01*
X76999219Y-56455220D01*
X77181610Y-56362287D01*
X77279187Y-56291394D01*
X77347213Y-56241971D01*
X77347215Y-56241968D01*
X77347219Y-56241966D01*
X77491966Y-56097219D01*
X77491968Y-56097215D01*
X77491971Y-56097213D01*
X77544732Y-56024590D01*
X77612287Y-55931610D01*
X77705220Y-55749219D01*
X77768477Y-55554534D01*
X77800500Y-55352352D01*
X77800500Y-55147648D01*
X87199500Y-55147648D01*
X87199500Y-55352351D01*
X87231522Y-55554534D01*
X87294781Y-55749223D01*
X87387715Y-55931613D01*
X87508028Y-56097213D01*
X87652786Y-56241971D01*
X87807749Y-56354556D01*
X87818390Y-56362287D01*
X87934607Y-56421503D01*
X88000776Y-56455218D01*
X88000778Y-56455218D01*
X88000781Y-56455220D01*
X88105137Y-56489127D01*
X88195465Y-56518477D01*
X88296557Y-56534488D01*
X88397648Y-56550500D01*
X88397649Y-56550500D01*
X88602351Y-56550500D01*
X88602352Y-56550500D01*
X88804534Y-56518477D01*
X88999219Y-56455220D01*
X89181610Y-56362287D01*
X89279187Y-56291394D01*
X89347213Y-56241971D01*
X89347215Y-56241968D01*
X89347219Y-56241966D01*
X89491966Y-56097219D01*
X89491968Y-56097215D01*
X89491971Y-56097213D01*
X89544732Y-56024590D01*
X89612287Y-55931610D01*
X89705220Y-55749219D01*
X89768477Y-55554534D01*
X89800500Y-55352352D01*
X89800500Y-55147648D01*
X89768477Y-54945466D01*
X89705220Y-54750781D01*
X89705218Y-54750778D01*
X89705218Y-54750776D01*
X89671503Y-54684607D01*
X89612287Y-54568390D01*
X89604556Y-54557749D01*
X89491971Y-54402786D01*
X89347213Y-54258028D01*
X89181613Y-54137715D01*
X89181612Y-54137714D01*
X89181610Y-54137713D01*
X89124653Y-54108691D01*
X88999223Y-54044781D01*
X88804534Y-53981522D01*
X88629995Y-53953878D01*
X88602352Y-53949500D01*
X88397648Y-53949500D01*
X88373329Y-53953351D01*
X88195465Y-53981522D01*
X88000776Y-54044781D01*
X87818386Y-54137715D01*
X87652786Y-54258028D01*
X87508028Y-54402786D01*
X87387715Y-54568386D01*
X87294781Y-54750776D01*
X87231522Y-54945465D01*
X87199500Y-55147648D01*
X77800500Y-55147648D01*
X77768477Y-54945466D01*
X77705220Y-54750781D01*
X77705218Y-54750778D01*
X77705218Y-54750776D01*
X77671503Y-54684607D01*
X77612287Y-54568390D01*
X77604556Y-54557749D01*
X77491971Y-54402786D01*
X77347213Y-54258028D01*
X77181613Y-54137715D01*
X77181612Y-54137714D01*
X77181610Y-54137713D01*
X77124653Y-54108691D01*
X76999223Y-54044781D01*
X76804534Y-53981522D01*
X76629995Y-53953878D01*
X76602352Y-53949500D01*
X76397648Y-53949500D01*
X76373329Y-53953351D01*
X76195465Y-53981522D01*
X76000776Y-54044781D01*
X75818386Y-54137715D01*
X75652786Y-54258028D01*
X75508028Y-54402786D01*
X75387715Y-54568386D01*
X75294781Y-54750776D01*
X75231522Y-54945465D01*
X75199500Y-55147648D01*
X66535924Y-55147648D01*
X66568978Y-55107843D01*
X66576673Y-55099402D01*
X66849402Y-54826673D01*
X66857843Y-54818978D01*
X67154569Y-54572579D01*
X67163681Y-54565697D01*
X67481884Y-54347724D01*
X67491611Y-54341702D01*
X67828564Y-54154020D01*
X67838773Y-54148937D01*
X68191611Y-53993144D01*
X68202250Y-53989021D01*
X68567971Y-53866444D01*
X68578950Y-53863321D01*
X68954395Y-53775017D01*
X68965632Y-53772917D01*
X69347620Y-53719632D01*
X69359006Y-53718576D01*
X69747145Y-53700632D01*
X69752872Y-53700500D01*
X69789882Y-53700500D01*
X109710118Y-53700500D01*
X109747128Y-53700500D01*
X109752855Y-53700632D01*
G37*
%TD.AperFunction*%
%TD*%
M02*
