%TF.GenerationSoftware,KiCad,Pcbnew,10.0.4*%
%TF.CreationDate,2026-07-16T01:56:22-07:00*%
%TF.ProjectId,singleTube,73696e67-6c65-4547-9562-652e6b696361,rev?*%
%TF.SameCoordinates,Original*%
%TF.FileFunction,Copper,L1,Top*%
%TF.FilePolarity,Positive*%
%FSLAX46Y46*%
G04 Gerber Fmt 4.6, Leading zero omitted, Abs format (unit mm)*
G04 Created by KiCad (PCBNEW 10.0.4) date 2026-07-16 01:56:22*
%MOMM*%
%LPD*%
G01*
G04 APERTURE LIST*
G04 Aperture macros list*
%AMRoundRect*
0 Rectangle with rounded corners*
0 $1 Rounding radius*
0 $2 $3 $4 $5 $6 $7 $8 $9 X,Y pos of 4 corners*
0 Add a 4 corners polygon primitive as box body*
4,1,4,$2,$3,$4,$5,$6,$7,$8,$9,$2,$3,0*
0 Add four circle primitives for the rounded corners*
1,1,$1+$1,$2,$3*
1,1,$1+$1,$4,$5*
1,1,$1+$1,$6,$7*
1,1,$1+$1,$8,$9*
0 Add four rect primitives between the rounded corners*
20,1,$1+$1,$2,$3,$4,$5,0*
20,1,$1+$1,$4,$5,$6,$7,0*
20,1,$1+$1,$6,$7,$8,$9,0*
20,1,$1+$1,$8,$9,$2,$3,0*%
%AMFreePoly0*
4,1,9,1.050000,0.350000,0.550000,0.000000,0.550000,-0.400000,0.800000,-0.650000,0.800000,-0.800000,-1.050000,-0.800000,-1.050000,0.800000,1.050000,0.800000,1.050000,0.350000,1.050000,0.350000,$1*%
%AMFreePoly1*
4,1,9,1.050000,-0.800000,-0.800000,-0.800000,-0.800000,-0.650000,-0.550000,-0.400000,-0.550000,0.000000,-1.050000,0.350000,-1.050000,0.800000,1.050000,0.800000,1.050000,-0.800000,1.050000,-0.800000,$1*%
G04 Aperture macros list end*
%TA.AperFunction,ComponentPad*%
%ADD10O,1.320800X2.641600*%
%TD*%
%TA.AperFunction,SMDPad,CuDef*%
%ADD11RoundRect,0.250000X-0.625000X0.312500X-0.625000X-0.312500X0.625000X-0.312500X0.625000X0.312500X0*%
%TD*%
%TA.AperFunction,SMDPad,CuDef*%
%ADD12RoundRect,0.250000X-0.312500X-0.625000X0.312500X-0.625000X0.312500X0.625000X-0.312500X0.625000X0*%
%TD*%
%TA.AperFunction,SMDPad,CuDef*%
%ADD13RoundRect,0.250000X-0.350000X0.450000X-0.350000X-0.450000X0.350000X-0.450000X0.350000X0.450000X0*%
%TD*%
%TA.AperFunction,SMDPad,CuDef*%
%ADD14RoundRect,0.150000X0.150000X-0.587500X0.150000X0.587500X-0.150000X0.587500X-0.150000X-0.587500X0*%
%TD*%
%TA.AperFunction,SMDPad,CuDef*%
%ADD15RoundRect,0.100000X0.575000X-0.100000X0.575000X0.100000X-0.575000X0.100000X-0.575000X-0.100000X0*%
%TD*%
%TA.AperFunction,SMDPad,CuDef*%
%ADD16FreePoly0,90.000000*%
%TD*%
%TA.AperFunction,ComponentPad*%
%ADD17O,1.700000X1.000000*%
%TD*%
%TA.AperFunction,SMDPad,CuDef*%
%ADD18RoundRect,0.250000X0.700000X-0.700000X0.700000X0.700000X-0.700000X0.700000X-0.700000X-0.700000X0*%
%TD*%
%TA.AperFunction,ComponentPad*%
%ADD19O,1.700000X0.850000*%
%TD*%
%TA.AperFunction,SMDPad,CuDef*%
%ADD20FreePoly1,90.000000*%
%TD*%
%TA.AperFunction,SMDPad,CuDef*%
%ADD21RoundRect,0.250000X-0.250000X0.325000X-0.250000X-0.325000X0.250000X-0.325000X0.250000X0.325000X0*%
%TD*%
%TA.AperFunction,SMDPad,CuDef*%
%ADD22RoundRect,0.250000X0.312500X0.625000X-0.312500X0.625000X-0.312500X-0.625000X0.312500X-0.625000X0*%
%TD*%
%TA.AperFunction,SMDPad,CuDef*%
%ADD23RoundRect,0.140000X0.170000X-0.140000X0.170000X0.140000X-0.170000X0.140000X-0.170000X-0.140000X0*%
%TD*%
%TA.AperFunction,SMDPad,CuDef*%
%ADD24RoundRect,0.250000X0.475000X-0.250000X0.475000X0.250000X-0.475000X0.250000X-0.475000X-0.250000X0*%
%TD*%
%TA.AperFunction,SMDPad,CuDef*%
%ADD25RoundRect,0.075000X-0.662500X-0.075000X0.662500X-0.075000X0.662500X0.075000X-0.662500X0.075000X0*%
%TD*%
%TA.AperFunction,SMDPad,CuDef*%
%ADD26RoundRect,0.075000X-0.075000X-0.662500X0.075000X-0.662500X0.075000X0.662500X-0.075000X0.662500X0*%
%TD*%
%TA.AperFunction,SMDPad,CuDef*%
%ADD27RoundRect,0.140000X0.140000X0.170000X-0.140000X0.170000X-0.140000X-0.170000X0.140000X-0.170000X0*%
%TD*%
%TA.AperFunction,ComponentPad*%
%ADD28C,1.700000*%
%TD*%
%TA.AperFunction,ComponentPad*%
%ADD29R,1.700000X1.700000*%
%TD*%
%TA.AperFunction,SMDPad,CuDef*%
%ADD30RoundRect,0.135000X-0.135000X-0.185000X0.135000X-0.185000X0.135000X0.185000X-0.135000X0.185000X0*%
%TD*%
%TA.AperFunction,SMDPad,CuDef*%
%ADD31RoundRect,0.140000X-0.140000X-0.170000X0.140000X-0.170000X0.140000X0.170000X-0.140000X0.170000X0*%
%TD*%
%TA.AperFunction,SMDPad,CuDef*%
%ADD32RoundRect,0.250000X-0.250000X-0.475000X0.250000X-0.475000X0.250000X0.475000X-0.250000X0.475000X0*%
%TD*%
%TA.AperFunction,ComponentPad*%
%ADD33C,1.346200*%
%TD*%
%TA.AperFunction,SMDPad,CuDef*%
%ADD34RoundRect,0.218750X-0.256250X0.218750X-0.256250X-0.218750X0.256250X-0.218750X0.256250X0.218750X0*%
%TD*%
%TA.AperFunction,SMDPad,CuDef*%
%ADD35RoundRect,0.225000X-0.225000X-0.250000X0.225000X-0.250000X0.225000X0.250000X-0.225000X0.250000X0*%
%TD*%
%TA.AperFunction,SMDPad,CuDef*%
%ADD36RoundRect,0.375000X-0.375000X0.625000X-0.375000X-0.625000X0.375000X-0.625000X0.375000X0.625000X0*%
%TD*%
%TA.AperFunction,SMDPad,CuDef*%
%ADD37RoundRect,0.500000X-1.400000X0.500000X-1.400000X-0.500000X1.400000X-0.500000X1.400000X0.500000X0*%
%TD*%
%TA.AperFunction,SMDPad,CuDef*%
%ADD38RoundRect,0.135000X-0.185000X0.135000X-0.185000X-0.135000X0.185000X-0.135000X0.185000X0.135000X0*%
%TD*%
%TA.AperFunction,ComponentPad*%
%ADD39C,2.000000*%
%TD*%
%TA.AperFunction,SMDPad,CuDef*%
%ADD40RoundRect,0.140000X-0.170000X0.140000X-0.170000X-0.140000X0.170000X-0.140000X0.170000X0.140000X0*%
%TD*%
%TA.AperFunction,ComponentPad*%
%ADD41O,2.540000X2.540000*%
%TD*%
%TA.AperFunction,ViaPad*%
%ADD42C,0.700000*%
%TD*%
%TA.AperFunction,Conductor*%
%ADD43C,0.300000*%
%TD*%
%TA.AperFunction,Conductor*%
%ADD44C,0.500000*%
%TD*%
%TA.AperFunction,Conductor*%
%ADD45C,0.200000*%
%TD*%
G04 APERTURE END LIST*
D10*
%TO.P,U5,16,0_16*%
%TO.N,/C0*%
X100140000Y-90310000D03*
%TO.P,U5,15,1_15*%
%TO.N,/C1*%
X97600000Y-90310000D03*
%TO.P,U5,14,5_14*%
%TO.N,/C5*%
X95060000Y-90310000D03*
%TO.P,U5,13,4_13*%
%TO.N,/C4*%
X92520000Y-90310000D03*
%TO.P,U5,12,GND_12*%
%TO.N,GND*%
X89980000Y-90310000D03*
%TO.P,U5,11,6_11*%
%TO.N,/C6*%
X87440000Y-90310000D03*
%TO.P,U5,10,7_10*%
%TO.N,/C7*%
X84900000Y-90310000D03*
%TO.P,U5,9,3_9*%
%TO.N,/C3*%
X82360000Y-90310000D03*
%TO.P,U5,8,2_8*%
%TO.N,/C2*%
X82360000Y-82690000D03*
%TO.P,U5,7,C_7*%
%TO.N,/CONTROL_C*%
X84900000Y-82690000D03*
%TO.P,U5,6,B_6*%
%TO.N,/CONTROL_B*%
X87440000Y-82690000D03*
%TO.P,U5,5,VCC_5*%
%TO.N,VBUS*%
X89980000Y-82690000D03*
%TO.P,U5,4,D_4*%
%TO.N,/CONTROL_D*%
X92520000Y-82690000D03*
%TO.P,U5,3,A_3*%
%TO.N,/CONTROL_A*%
X95060000Y-82690000D03*
%TO.P,U5,2,9_2*%
%TO.N,/C9*%
X97600000Y-82690000D03*
%TO.P,U5,1,8_1*%
%TO.N,/C8*%
X100140000Y-82690000D03*
%TD*%
D11*
%TO.P,R10,1*%
%TO.N,/RHDP_T_R*%
X73712500Y-84250000D03*
%TO.P,R10,2*%
%TO.N,/CRHDP*%
X73712500Y-87175000D03*
%TD*%
D12*
%TO.P,R12,1*%
%TO.N,/LHDP_C_T*%
X72075000Y-77750000D03*
%TO.P,R12,2*%
%TO.N,/LHDP_CONTROL*%
X75000000Y-77750000D03*
%TD*%
%TO.P,R11,1*%
%TO.N,/RHDP_C_T*%
X73250000Y-90250000D03*
%TO.P,R11,2*%
%TO.N,/RHDP_CONTROL*%
X76175000Y-90250000D03*
%TD*%
D11*
%TO.P,R7,1*%
%TO.N,/LHDP_T_R*%
X73037500Y-72037500D03*
%TO.P,R7,2*%
%TO.N,/CLHDP*%
X73037500Y-74962500D03*
%TD*%
D13*
%TO.P,Y1,1,1_1*%
%TO.N,/HSE_IN*%
X81400000Y-73670000D03*
%TO.P,Y1,2,G_2*%
%TO.N,GND*%
X81400000Y-75870000D03*
%TO.P,Y1,3,3_3*%
%TO.N,/HSE_OUT*%
X83100000Y-75870000D03*
%TO.P,Y1,4,G_4*%
%TO.N,GND*%
X83100000Y-73670000D03*
%TD*%
D14*
%TO.P,Q1,1,B_1*%
%TO.N,/RHDP_C_T*%
X69262500Y-88187500D03*
%TO.P,Q1,2,E_2*%
%TO.N,GND*%
X71162500Y-88187500D03*
%TO.P,Q1,3,C_3*%
%TO.N,/RHDP_T_R*%
X70212500Y-86312500D03*
%TD*%
%TO.P,Q2,1,B_1*%
%TO.N,/LHDP_C_T*%
X67837500Y-74187500D03*
%TO.P,Q2,2,E_2*%
%TO.N,GND*%
X69737500Y-74187500D03*
%TO.P,Q2,3,C_3*%
%TO.N,/LHDP_T_R*%
X68787500Y-72312500D03*
%TD*%
D11*
%TO.P,R13,1*%
%TO.N,GND*%
X110095000Y-109092500D03*
%TO.P,R13,2*%
%TO.N,/HV_R*%
X110095000Y-112017500D03*
%TD*%
D15*
%TO.P,J1,1,VBUS_1*%
%TO.N,VBUS*%
X110175000Y-70550000D03*
%TO.P,J1,2,D-_2*%
%TO.N,/USB_D-*%
X110175000Y-69900000D03*
%TO.P,J1,3,D+_3*%
%TO.N,/USB_D+*%
X110175000Y-69250000D03*
%TO.P,J1,4,ID_4*%
%TO.N,unconnected-(J1-ID-Pad4)*%
X110175000Y-68600000D03*
%TO.P,J1,5,GND_5*%
%TO.N,GND*%
X110175000Y-67950000D03*
D16*
%TO.P,J1,SH,Shield_SH*%
X110300000Y-72350000D03*
D17*
X112850000Y-72075000D03*
D18*
X112850000Y-70450000D03*
X112850000Y-68050000D03*
D19*
X112850000Y-66425000D03*
D20*
X110300000Y-66150000D03*
%TD*%
D21*
%TO.P,Y2,1,1_1*%
%TO.N,/LSE_IN*%
X81550000Y-67645000D03*
%TO.P,Y2,2,G_2*%
%TO.N,GND*%
X81550000Y-69395000D03*
%TO.P,Y2,3,3_3*%
%TO.N,/LSE_OUT*%
X82950000Y-69395000D03*
%TO.P,Y2,4,G_4*%
%TO.N,GND*%
X82950000Y-67645000D03*
%TD*%
D22*
%TO.P,R4,1*%
%TO.N,/HV_R*%
X104712500Y-115500000D03*
%TO.P,R4,2*%
%TO.N,/ANODE*%
X101787500Y-115500000D03*
%TD*%
D23*
%TO.P,C13,1*%
%TO.N,/LSE_OUT*%
X84500000Y-70250000D03*
%TO.P,C13,2*%
%TO.N,GND*%
X84500000Y-69290000D03*
%TD*%
D24*
%TO.P,C15,1*%
%TO.N,+3.3V*%
X112000000Y-83700000D03*
%TO.P,C15,2*%
%TO.N,GND*%
X112000000Y-81800000D03*
%TD*%
D25*
%TO.P,U1,1,VBAT_1*%
%TO.N,+3.3V*%
X92337500Y-67750000D03*
%TO.P,U1,2,PC13_2*%
%TO.N,unconnected-(U1-PC13-Pad2)*%
X92337500Y-68250000D03*
%TO.P,U1,3,PC14_3*%
%TO.N,/LSE_IN*%
X92337500Y-68750000D03*
%TO.P,U1,4,PC15_4*%
%TO.N,/LSE_OUT*%
X92337500Y-69250000D03*
%TO.P,U1,5,PD0_5*%
%TO.N,/HSE_IN*%
X92337500Y-69750000D03*
%TO.P,U1,6,PD1_6*%
%TO.N,/HSE_OUT*%
X92337500Y-70250000D03*
%TO.P,U1,7,NRST_7*%
%TO.N,/NRST*%
X92337500Y-70750000D03*
%TO.P,U1,8,VSSA_8*%
%TO.N,GND*%
X92337500Y-71250000D03*
%TO.P,U1,9,VDDA_9*%
%TO.N,+3.3V*%
X92337500Y-71750000D03*
%TO.P,U1,10,PA0_10*%
%TO.N,unconnected-(U1-PA0-Pad10)*%
X92337500Y-72250000D03*
%TO.P,U1,11,PA1_11*%
%TO.N,/LHDP_CONTROL*%
X92337500Y-72750000D03*
%TO.P,U1,12,PA2_12*%
%TO.N,/RHDP_CONTROL*%
X92337500Y-73250000D03*
D26*
%TO.P,U1,13,PA3_13*%
%TO.N,/CONTROL_C*%
X93750000Y-74662500D03*
%TO.P,U1,14,PA4_14*%
%TO.N,/CONTROL_B*%
X94250000Y-74662500D03*
%TO.P,U1,15,PA5_15*%
%TO.N,/CONTROL_D*%
X94750000Y-74662500D03*
%TO.P,U1,16,PA6_16*%
%TO.N,/CONTROL_A*%
X95250000Y-74662500D03*
%TO.P,U1,17,PA7_17*%
%TO.N,unconnected-(U1-PA7-Pad17)*%
X95750000Y-74662500D03*
%TO.P,U1,18,PB0_18*%
%TO.N,unconnected-(U1-PB0-Pad18)*%
X96250000Y-74662500D03*
%TO.P,U1,19,PB1_19*%
%TO.N,unconnected-(U1-PB1-Pad19)*%
X96750000Y-74662500D03*
%TO.P,U1,20,PB2_20*%
%TO.N,unconnected-(U1-PB2-Pad20)*%
X97250000Y-74662500D03*
%TO.P,U1,21,PB10_21*%
%TO.N,unconnected-(U1-PB10-Pad21)*%
X97750000Y-74662500D03*
%TO.P,U1,22,PB11_22*%
%TO.N,unconnected-(U1-PB11-Pad22)*%
X98250000Y-74662500D03*
%TO.P,U1,23,VSS_23*%
%TO.N,GND*%
X98750000Y-74662500D03*
%TO.P,U1,24,VDD_24*%
%TO.N,+3.3V*%
X99250000Y-74662500D03*
D25*
%TO.P,U1,25,PB12_25*%
%TO.N,unconnected-(U1-PB12-Pad25)*%
X100662500Y-73250000D03*
%TO.P,U1,26,PB13_26*%
%TO.N,unconnected-(U1-PB13-Pad26)*%
X100662500Y-72750000D03*
%TO.P,U1,27,PB14_27*%
%TO.N,unconnected-(U1-PB14-Pad27)*%
X100662500Y-72250000D03*
%TO.P,U1,28,PB15_28*%
%TO.N,unconnected-(U1-PB15-Pad28)*%
X100662500Y-71750000D03*
%TO.P,U1,29,PA8_29*%
%TO.N,unconnected-(U1-PA8-Pad29)*%
X100662500Y-71250000D03*
%TO.P,U1,30,PA9_30*%
%TO.N,unconnected-(U1-PA9-Pad30)*%
X100662500Y-70750000D03*
%TO.P,U1,31,PA10_31*%
%TO.N,unconnected-(U1-PA10-Pad31)*%
X100662500Y-70250000D03*
%TO.P,U1,32,PA11_32*%
%TO.N,/USB_D-*%
X100662500Y-69750000D03*
%TO.P,U1,33,PA12_33*%
%TO.N,/USB_D+*%
X100662500Y-69250000D03*
%TO.P,U1,34,PA13_34*%
%TO.N,/SWDIO*%
X100662500Y-68750000D03*
%TO.P,U1,35,VSS_35*%
%TO.N,GND*%
X100662500Y-68250000D03*
%TO.P,U1,36,VDD_36*%
%TO.N,+3.3V*%
X100662500Y-67750000D03*
D26*
%TO.P,U1,37,PA14_37*%
%TO.N,/SWCLK*%
X99250000Y-66337500D03*
%TO.P,U1,38,PA15_38*%
%TO.N,unconnected-(U1-PA15-Pad38)*%
X98750000Y-66337500D03*
%TO.P,U1,39,PB3_39*%
%TO.N,unconnected-(U1-PB3-Pad39)*%
X98250000Y-66337500D03*
%TO.P,U1,40,PB4_40*%
%TO.N,unconnected-(U1-PB4-Pad40)*%
X97750000Y-66337500D03*
%TO.P,U1,41,PB5_41*%
%TO.N,unconnected-(U1-PB5-Pad41)*%
X97250000Y-66337500D03*
%TO.P,U1,42,PB6_42*%
%TO.N,unconnected-(U1-PB6-Pad42)*%
X96750000Y-66337500D03*
%TO.P,U1,43,PB7_43*%
%TO.N,unconnected-(U1-PB7-Pad43)*%
X96250000Y-66337500D03*
%TO.P,U1,44,BOOT0_44*%
%TO.N,/BOOT0*%
X95750000Y-66337500D03*
%TO.P,U1,45,PB8_45*%
%TO.N,unconnected-(U1-PB8-Pad45)*%
X95250000Y-66337500D03*
%TO.P,U1,46,PB9_46*%
%TO.N,unconnected-(U1-PB9-Pad46)*%
X94750000Y-66337500D03*
%TO.P,U1,47,VSS_47*%
%TO.N,GND*%
X94250000Y-66337500D03*
%TO.P,U1,48,VDD_48*%
%TO.N,+3.3V*%
X93750000Y-66337500D03*
%TD*%
D27*
%TO.P,C3,1*%
%TO.N,+3.3V*%
X99460000Y-76500000D03*
%TO.P,C3,2*%
%TO.N,GND*%
X98500000Y-76500000D03*
%TD*%
D23*
%TO.P,C10,1*%
%TO.N,/HSE_IN*%
X84750000Y-74500000D03*
%TO.P,C10,2*%
%TO.N,GND*%
X84750000Y-73540000D03*
%TD*%
D28*
%TO.P,J2,4,Pin_4_4*%
%TO.N,GND*%
X95460000Y-59250000D03*
%TO.P,J2,3,Pin_3_3*%
%TO.N,/SWCLK*%
X98000000Y-59250000D03*
%TO.P,J2,2,Pin_2_2*%
%TO.N,/SWDIO*%
X100540000Y-59250000D03*
D29*
%TO.P,J2,1,Pin_1_1*%
%TO.N,+3.3V*%
X103080000Y-59250000D03*
%TD*%
D30*
%TO.P,R2,1*%
%TO.N,/SW_BOOT0*%
X82490000Y-63250000D03*
%TO.P,R2,2*%
%TO.N,/BOOT0*%
X83510000Y-63250000D03*
%TD*%
D31*
%TO.P,C1,1*%
%TO.N,+3.3V*%
X93540000Y-64500000D03*
%TO.P,C1,2*%
%TO.N,GND*%
X94500000Y-64500000D03*
%TD*%
D32*
%TO.P,C14,1*%
%TO.N,VBUS*%
X106050000Y-76500000D03*
%TO.P,C14,2*%
%TO.N,GND*%
X107950000Y-76500000D03*
%TD*%
D33*
%TO.P,N1,0,0_0*%
%TO.N,/C0*%
X81592700Y-100234640D03*
%TO.P,N1,1,1_1*%
%TO.N,/C1*%
X71407300Y-100234640D03*
%TO.P,N1,2,2_2*%
%TO.N,/C2*%
X70355740Y-103005780D03*
%TO.P,N1,3,3_3*%
%TO.N,/C3*%
X70713880Y-105944560D03*
%TO.P,N1,4,4_4*%
%TO.N,/C4*%
X72395360Y-108382960D03*
%TO.P,N1,5,5_5*%
%TO.N,/C5*%
X75019180Y-109759640D03*
%TO.P,N1,6,6_6*%
%TO.N,/C6*%
X77980820Y-109759640D03*
%TO.P,N1,7,7_7*%
%TO.N,/C7*%
X80604640Y-108382960D03*
%TO.P,N1,8,8_8*%
%TO.N,/C8*%
X82286120Y-105944560D03*
%TO.P,N1,9,9_9*%
%TO.N,/C9*%
X82644260Y-103005780D03*
%TO.P,N1,A,A_A*%
%TO.N,/ANODE*%
X76500000Y-97562560D03*
%TO.P,N1,LHDP,LHDP_LHDP*%
%TO.N,/CLHDP*%
X73624720Y-98271220D03*
%TO.P,N1,RHDP,RHDP_RHDP*%
%TO.N,/CRHDP*%
X79375280Y-98271220D03*
%TD*%
D34*
%TO.P,D1,1,K_1*%
%TO.N,/PWR_LED_K*%
X112500000Y-75962500D03*
%TO.P,D1,2,A_2*%
%TO.N,+3.3V*%
X112500000Y-77537500D03*
%TD*%
D35*
%TO.P,C5,1*%
%TO.N,+3.3V*%
X93225000Y-63000000D03*
%TO.P,C5,2*%
%TO.N,GND*%
X94775000Y-63000000D03*
%TD*%
D23*
%TO.P,C12,1*%
%TO.N,/LSE_IN*%
X84500000Y-68250000D03*
%TO.P,C12,2*%
%TO.N,GND*%
X84500000Y-67290000D03*
%TD*%
D36*
%TO.P,U3,1,GND_1*%
%TO.N,GND*%
X109300000Y-79100000D03*
%TO.P,U3,2,VO_2*%
%TO.N,+3.3V*%
X107000000Y-79100000D03*
D37*
X107000000Y-85400000D03*
D36*
%TO.P,U3,3,VI_3*%
%TO.N,VBUS*%
X104700000Y-79100000D03*
%TD*%
D27*
%TO.P,C9,1*%
%TO.N,/NRST*%
X89230000Y-71250000D03*
%TO.P,C9,2*%
%TO.N,GND*%
X88270000Y-71250000D03*
%TD*%
D23*
%TO.P,C8,1*%
%TO.N,+3.3V*%
X90250000Y-72480000D03*
%TO.P,C8,2*%
%TO.N,GND*%
X90250000Y-71520000D03*
%TD*%
D38*
%TO.P,R1,1*%
%TO.N,+3.3V*%
X107250000Y-67990000D03*
%TO.P,R1,2*%
%TO.N,/USB_D+*%
X107250000Y-69010000D03*
%TD*%
D23*
%TO.P,C2,1*%
%TO.N,+3.3V*%
X90500000Y-67730000D03*
%TO.P,C2,2*%
%TO.N,GND*%
X90500000Y-66770000D03*
%TD*%
D39*
%TO.P,SW1,*%
%TO.N,*%
X88500000Y-61250000D03*
X88500000Y-55250000D03*
X76500000Y-61250000D03*
X76500000Y-55250000D03*
D28*
%TO.P,SW1,1,A_1*%
%TO.N,GND*%
X86500000Y-59500000D03*
%TO.P,SW1,2,B_2*%
%TO.N,/SW_BOOT0*%
X82500000Y-59500000D03*
%TO.P,SW1,3,C_3*%
%TO.N,+3.3V*%
X78500000Y-59500000D03*
%TD*%
D23*
%TO.P,C11,1*%
%TO.N,/HSE_OUT*%
X84750000Y-76500000D03*
%TO.P,C11,2*%
%TO.N,GND*%
X84750000Y-75540000D03*
%TD*%
D40*
%TO.P,C4,1*%
%TO.N,+3.3V*%
X102500000Y-67520000D03*
%TO.P,C4,2*%
%TO.N,GND*%
X102500000Y-68480000D03*
%TD*%
D30*
%TO.P,R3,1*%
%TO.N,GND*%
X111500000Y-74500000D03*
%TO.P,R3,2*%
%TO.N,/PWR_LED_K*%
X112520000Y-74500000D03*
%TD*%
D41*
%TO.P,U2,1,VIN_1*%
%TO.N,VBUS*%
X105399000Y-96650300D03*
%TO.P,U2,2,VOUT_2*%
%TO.N,/HV_R*%
X105399000Y-111870000D03*
%TO.P,U2,3,GND_3*%
%TO.N,GND*%
X97746000Y-96630000D03*
%TO.P,U2,4,GND_4*%
X92666000Y-111870000D03*
%TD*%
D42*
%TO.N,/C0*%
X85500000Y-98750000D03*
X82967360Y-98750000D03*
%TO.N,GND*%
X112000000Y-80500000D03*
%TO.N,/C1*%
X82745365Y-104495365D03*
X86000000Y-102500000D03*
%TO.N,/ANODE*%
X70250000Y-96500000D03*
%TO.N,/C5*%
X84542008Y-104550000D03*
X84500000Y-105950000D03*
%TO.N,/C2*%
X79700000Y-83000000D03*
X78300000Y-83000000D03*
%TO.N,/ANODE*%
X71750000Y-94750000D03*
%TO.N,GND*%
X88250000Y-72000000D03*
X71175000Y-89750000D03*
X69750000Y-75750000D03*
X111750000Y-109000000D03*
X111250000Y-75250000D03*
X112750000Y-64750000D03*
X112750000Y-73500000D03*
X111500000Y-70500000D03*
X111500000Y-68000000D03*
X108500000Y-66000000D03*
X108500000Y-72250000D03*
X108500000Y-68000000D03*
%TO.N,+3.3V*%
X104500000Y-68600000D03*
X104500000Y-70350001D03*
%TO.N,GND*%
X98500000Y-73250000D03*
X81500000Y-70750000D03*
X108750000Y-80750000D03*
X83000000Y-72250000D03*
X90500000Y-65750000D03*
X81250000Y-77750000D03*
X94250000Y-67750000D03*
X109250000Y-76000000D03*
X109250000Y-77000000D03*
X99250000Y-68250000D03*
X93750000Y-71250000D03*
X85500000Y-67000000D03*
X83000000Y-66250000D03*
X84750000Y-72750000D03*
X109750000Y-80750000D03*
X85500000Y-69250000D03*
X85750000Y-75500000D03*
%TO.N,+3.3V*%
X107250000Y-74750000D03*
X105500000Y-74750000D03*
%TD*%
%TO.N,/C2*%
D43*
X79700000Y-83000000D02*
X82050000Y-83000000D01*
X82050000Y-83000000D02*
X82360000Y-82690000D01*
X72786505Y-103005780D02*
X70355740Y-103005780D01*
X77723100Y-98069185D02*
X72786505Y-103005780D01*
X77723100Y-94963050D02*
X77723100Y-98069185D01*
X74562500Y-91802449D02*
X77723100Y-94963050D01*
X74562500Y-89014950D02*
X74562500Y-91802449D01*
X72749202Y-88287500D02*
X73835050Y-88287500D01*
X72287500Y-87825798D02*
X72749202Y-88287500D01*
X72749202Y-86062500D02*
X72287500Y-86524202D01*
X75237500Y-86062500D02*
X72749202Y-86062500D01*
X78300000Y-83000000D02*
X75237500Y-86062500D01*
X73835050Y-88287500D02*
X74562500Y-89014950D01*
X72287500Y-86524202D02*
X72287500Y-87825798D01*
%TO.N,+3.3V*%
X99250000Y-73010050D02*
X99250000Y-74662500D01*
X98789950Y-72550000D02*
X99250000Y-73010050D01*
X94060050Y-72550000D02*
X98789950Y-72550000D01*
X93260050Y-71750000D02*
X94060050Y-72550000D01*
X92337500Y-71750000D02*
X93260050Y-71750000D01*
%TO.N,VBUS*%
D44*
X104250000Y-81100000D02*
X104250000Y-95501300D01*
X102250000Y-79100000D02*
X104250000Y-81100000D01*
X104250000Y-95501300D02*
X105399000Y-96650300D01*
X102250000Y-79100000D02*
X97999257Y-79100000D01*
%TO.N,/C3*%
D43*
X70713880Y-108431205D02*
X70713880Y-105944560D01*
X103450400Y-97549600D02*
X89317260Y-111682740D01*
X103450400Y-88278389D02*
X103450400Y-97549600D01*
X101511214Y-86339201D02*
X103450400Y-88278389D01*
X73965415Y-111682740D02*
X70713880Y-108431205D01*
X82360000Y-90310000D02*
X86330799Y-86339201D01*
X86330799Y-86339201D02*
X101511214Y-86339201D01*
X89317260Y-111682740D02*
X73965415Y-111682740D01*
%TO.N,VBUS*%
D44*
X91750800Y-84460800D02*
X89980000Y-82690000D01*
X96489600Y-81569657D02*
X96489600Y-84010400D01*
X96489600Y-84010400D02*
X96039200Y-84460800D01*
X96500000Y-81559257D02*
X96489600Y-81569657D01*
X96500000Y-80599257D02*
X96500000Y-81559257D01*
X97999257Y-79100000D02*
X96500000Y-80599257D01*
X96039200Y-84460800D02*
X91750800Y-84460800D01*
X104700000Y-79100000D02*
X102250000Y-79100000D01*
%TO.N,/C9*%
D43*
X97600000Y-84400000D02*
X97600000Y-82690000D01*
X96860799Y-85139201D02*
X97600000Y-84400000D01*
X84451529Y-85139201D02*
X96860799Y-85139201D01*
X84340729Y-85250000D02*
X84451529Y-85139201D01*
X82250000Y-85250000D02*
X84340729Y-85250000D01*
X79750000Y-87750000D02*
X82250000Y-85250000D01*
X79750000Y-95292893D02*
X79750000Y-87750000D01*
X79875280Y-95418173D02*
X79750000Y-95292893D01*
X80000000Y-101313427D02*
X80000000Y-99093382D01*
X80000000Y-99093382D02*
X80398380Y-98695002D01*
X81692353Y-103005780D02*
X80000000Y-101313427D01*
X80398380Y-98695002D02*
X80398380Y-97847438D01*
X80398380Y-97847438D02*
X79875280Y-97324338D01*
X79875280Y-97324338D02*
X79875280Y-95418173D01*
X82644260Y-103005780D02*
X81692353Y-103005780D01*
%TO.N,/C1*%
X69332640Y-102309300D02*
X71407300Y-100234640D01*
X70398443Y-104495365D02*
X69332640Y-103429562D01*
X86000000Y-101542893D02*
X86000000Y-102500000D01*
X84750000Y-100292893D02*
X86000000Y-101542893D01*
X85210050Y-98050000D02*
X84750000Y-98510050D01*
X89860000Y-98050000D02*
X85210050Y-98050000D01*
X84750000Y-98510050D02*
X84750000Y-100292893D01*
X69332640Y-103429562D02*
X69332640Y-102309300D01*
X97600000Y-90310000D02*
X89860000Y-98050000D01*
X82745365Y-104495365D02*
X70398443Y-104495365D01*
%TO.N,/ANODE*%
D44*
X75095670Y-115500000D02*
X101787500Y-115500000D01*
X68290780Y-108695110D02*
X75095670Y-115500000D01*
X68290780Y-99459220D02*
X68290780Y-108695110D01*
X70250000Y-96500000D02*
X69750000Y-97000000D01*
X69750000Y-97000000D02*
X69750000Y-98000000D01*
X69750000Y-98000000D02*
X68290780Y-99459220D01*
X74341451Y-95404011D02*
X76500000Y-97562560D01*
X72404011Y-95404011D02*
X74341451Y-95404011D01*
X71750000Y-94750000D02*
X72404011Y-95404011D01*
%TO.N,/C5*%
D43*
X89319200Y-92680800D02*
X92689200Y-92680800D01*
X83750000Y-98250000D02*
X89319200Y-92680800D01*
X83750000Y-100000000D02*
X83750000Y-98250000D01*
X92689200Y-92680800D02*
X95060000Y-90310000D01*
X84542008Y-100792008D02*
X83750000Y-100000000D01*
X84542008Y-104550000D02*
X84542008Y-100792008D01*
X82982340Y-107467660D02*
X84500000Y-105950000D01*
X81655232Y-107467660D02*
X82982340Y-107467660D01*
X81187572Y-107000000D02*
X81655232Y-107467660D01*
X77778820Y-107000000D02*
X81187572Y-107000000D01*
X75019180Y-109759640D02*
X77778820Y-107000000D01*
%TO.N,/C4*%
X74278320Y-106500000D02*
X72395360Y-108382960D01*
X81394678Y-106500000D02*
X74278320Y-106500000D01*
X81862338Y-106967660D02*
X81394678Y-106500000D01*
X82709902Y-106967660D02*
X81862338Y-106967660D01*
X83309220Y-106368342D02*
X82709902Y-106967660D01*
X83309220Y-105628566D02*
X83309220Y-106368342D01*
X83687786Y-105250000D02*
X83309220Y-105628566D01*
X86189949Y-105250000D02*
X83687786Y-105250000D01*
X101350400Y-89148236D02*
X101350400Y-91471764D01*
X101350400Y-91471764D02*
X100641364Y-92180800D01*
X100641364Y-92180800D02*
X99259149Y-92180800D01*
X100641364Y-88439200D02*
X101350400Y-89148236D01*
X94390800Y-88439200D02*
X100641364Y-88439200D01*
X92520000Y-90310000D02*
X94390800Y-88439200D01*
X99259149Y-92180800D02*
X86189949Y-105250000D01*
%TO.N,/C8*%
X80500000Y-99744770D02*
X83867360Y-96377410D01*
X81007740Y-101257740D02*
X80500000Y-100750000D01*
X83867360Y-102781998D02*
X82343102Y-101257740D01*
X82343102Y-101257740D02*
X81007740Y-101257740D01*
X83867360Y-104363320D02*
X83867360Y-102781998D01*
X80500000Y-100750000D02*
X80500000Y-99744770D01*
X84658635Y-85639201D02*
X80450000Y-89847836D01*
X80450000Y-92960050D02*
X83867360Y-96377410D01*
X100140000Y-82690000D02*
X97190799Y-85639201D01*
X97190799Y-85639201D02*
X84658635Y-85639201D01*
X80450000Y-89847836D02*
X80450000Y-92960050D01*
X83867360Y-104363320D02*
X82286120Y-105944560D01*
%TO.N,/C7*%
X77627775Y-108382960D02*
X80604640Y-108382960D01*
X76757720Y-109253015D02*
X77627775Y-108382960D01*
X76757720Y-110266265D02*
X76757720Y-109253015D01*
X77474195Y-110982740D02*
X76757720Y-110266265D01*
X88517260Y-110982740D02*
X77474195Y-110982740D01*
X102000000Y-93500000D02*
X102000000Y-97500000D01*
X101221264Y-87039200D02*
X102750400Y-88568338D01*
X102750400Y-88568338D02*
X102750400Y-92749600D01*
X102000000Y-97500000D02*
X88517260Y-110982740D01*
X88170800Y-87039200D02*
X101221264Y-87039200D01*
X102750400Y-92749600D02*
X102000000Y-93500000D01*
X84900000Y-90310000D02*
X88170800Y-87039200D01*
%TO.N,/C6*%
X88263153Y-109759640D02*
X77980820Y-109759640D01*
X100500000Y-97522793D02*
X88263153Y-109759640D01*
X100500000Y-93312114D02*
X100500000Y-97522793D01*
X102050400Y-91761714D02*
X100500000Y-93312114D01*
X102050400Y-88858287D02*
X102050400Y-91761714D01*
X91309600Y-89148236D02*
X92718636Y-87739200D01*
X100931314Y-87739200D02*
X102050400Y-88858287D01*
X91309600Y-91471764D02*
X91309600Y-89148236D01*
X90600564Y-92180800D02*
X91309600Y-91471764D01*
X89310800Y-92180800D02*
X90600564Y-92180800D01*
X87440000Y-90310000D02*
X89310800Y-92180800D01*
X92718636Y-87739200D02*
X100931314Y-87739200D01*
%TO.N,GND*%
D44*
X92666000Y-111870000D02*
X92666000Y-111334000D01*
X97746000Y-96630000D02*
X97746000Y-96754000D01*
%TO.N,/CRHDP*%
D43*
X75262500Y-88725000D02*
X75262500Y-91512500D01*
X73712500Y-87175000D02*
X75262500Y-88725000D01*
%TO.N,/CLHDP*%
X67250000Y-91896500D02*
X73624720Y-98271220D01*
X67250000Y-86500000D02*
X67250000Y-91896500D01*
X73037500Y-80712500D02*
X67250000Y-86500000D01*
X73037500Y-74962500D02*
X73037500Y-80712500D01*
%TO.N,/LHDP_T_R*%
X72762500Y-72312500D02*
X73037500Y-72037500D01*
X68787500Y-72312500D02*
X72762500Y-72312500D01*
%TO.N,/LHDP_C_T*%
X67837500Y-74924999D02*
X67837500Y-74187500D01*
X70662501Y-77750000D02*
X67837500Y-74924999D01*
X72075000Y-77750000D02*
X70662501Y-77750000D01*
%TO.N,/RHDP_T_R*%
X72275000Y-84250000D02*
X73712500Y-84250000D01*
X70212500Y-86312500D02*
X72275000Y-84250000D01*
%TO.N,/RHDP_C_T*%
X69262500Y-88827450D02*
X69262500Y-88187500D01*
X71247550Y-90812500D02*
X69262500Y-88827450D01*
X72687500Y-90812500D02*
X71247550Y-90812500D01*
X73250000Y-90250000D02*
X72687500Y-90812500D01*
%TO.N,/LHDP_CONTROL*%
X75700000Y-78450000D02*
X75000000Y-77750000D01*
X91122896Y-78450000D02*
X75700000Y-78450000D01*
X92575000Y-74502104D02*
X92575000Y-76997896D01*
X92247896Y-74175000D02*
X92575000Y-74502104D01*
X91750000Y-74175000D02*
X92247896Y-74175000D01*
X91247303Y-73672303D02*
X91750000Y-74175000D01*
X91247303Y-72999577D02*
X91247303Y-73672303D01*
X91496880Y-72750000D02*
X91247303Y-72999577D01*
X92575000Y-76997896D02*
X91122896Y-78450000D01*
X92337500Y-72750000D02*
X91496880Y-72750000D01*
%TO.N,/CONTROL_C*%
X87750000Y-79500000D02*
X84900000Y-82350000D01*
X92750000Y-79500000D02*
X87750000Y-79500000D01*
X93750000Y-78500000D02*
X92750000Y-79500000D01*
X84900000Y-82350000D02*
X84900000Y-82690000D01*
X93750000Y-74662500D02*
X93750000Y-78500000D01*
%TO.N,/CONTROL_B*%
X93250000Y-80250000D02*
X87750000Y-80250000D01*
X94250000Y-79250000D02*
X93250000Y-80250000D01*
X87750000Y-80250000D02*
X87440000Y-80560000D01*
X87440000Y-80560000D02*
X87440000Y-82690000D01*
X94250000Y-74662500D02*
X94250000Y-79250000D01*
%TO.N,/CONTROL_D*%
X94750000Y-80460000D02*
X92520000Y-82690000D01*
X94750000Y-74662500D02*
X94750000Y-80460000D01*
%TO.N,/CONTROL_A*%
X95250000Y-82500000D02*
X95060000Y-82690000D01*
X95250000Y-74662500D02*
X95250000Y-82500000D01*
%TO.N,GND*%
D44*
X88270000Y-71980000D02*
X88250000Y-72000000D01*
X88270000Y-71250000D02*
X88270000Y-71980000D01*
X71162500Y-89737500D02*
X71175000Y-89750000D01*
X71162500Y-88187500D02*
X71162500Y-89737500D01*
X69737500Y-75737500D02*
X69750000Y-75750000D01*
X69737500Y-74187500D02*
X69737500Y-75737500D01*
X111657500Y-109092500D02*
X111750000Y-109000000D01*
X110095000Y-109092500D02*
X111657500Y-109092500D01*
%TO.N,/PWR_LED_K*%
D43*
X112500000Y-74520000D02*
X112520000Y-74500000D01*
X112500000Y-75962500D02*
X112500000Y-74520000D01*
%TO.N,GND*%
D44*
X111500000Y-75000000D02*
X111250000Y-75250000D01*
X111500000Y-74500000D02*
X111500000Y-75000000D01*
X112850000Y-64850000D02*
X112750000Y-64750000D01*
X112850000Y-66425000D02*
X112850000Y-64850000D01*
X112850000Y-73400000D02*
X112750000Y-73500000D01*
X112850000Y-72075000D02*
X112850000Y-73400000D01*
X111550000Y-70450000D02*
X111500000Y-70500000D01*
X112850000Y-70450000D02*
X111550000Y-70450000D01*
X111550000Y-68050000D02*
X111500000Y-68000000D01*
X112850000Y-68050000D02*
X111550000Y-68050000D01*
X108650000Y-66150000D02*
X108500000Y-66000000D01*
X110300000Y-66150000D02*
X108650000Y-66150000D01*
X108600000Y-72350000D02*
X108500000Y-72250000D01*
X110300000Y-72350000D02*
X108600000Y-72350000D01*
X108550000Y-67950000D02*
X108500000Y-68000000D01*
X110175000Y-67950000D02*
X108550000Y-67950000D01*
%TO.N,+3.3V*%
X91325000Y-64900000D02*
X93225000Y-63000000D01*
X87481734Y-64900000D02*
X91325000Y-64900000D01*
X90311734Y-67730000D02*
X90500000Y-67730000D01*
X82988944Y-64900000D02*
X87481734Y-64900000D01*
X87481734Y-64900000D02*
X90311734Y-67730000D01*
X78500000Y-60411056D02*
X82988944Y-64900000D01*
X78500000Y-59500000D02*
X78500000Y-60411056D01*
X81300000Y-56700000D02*
X78500000Y-59500000D01*
X100530000Y-56700000D02*
X81300000Y-56700000D01*
X103080000Y-59250000D02*
X100530000Y-56700000D01*
X102500000Y-59830000D02*
X103080000Y-59250000D01*
X102500000Y-67520000D02*
X102500000Y-59830000D01*
X103420000Y-67520000D02*
X102500000Y-67520000D01*
X104500000Y-68600000D02*
X103420000Y-67520000D01*
X104500000Y-68600000D02*
X105110000Y-67990000D01*
X103500000Y-71350001D02*
X104500000Y-70350001D01*
X103500000Y-74750000D02*
X103500000Y-71350001D01*
X105110000Y-67990000D02*
X107250000Y-67990000D01*
X103500000Y-74750000D02*
X101210000Y-74750000D01*
D43*
X99460000Y-76500000D02*
X99460000Y-76546846D01*
D44*
X101210000Y-74750000D02*
X99460000Y-76500000D01*
X113500000Y-78750000D02*
X113500000Y-77750000D01*
X113287500Y-77537500D02*
X112500000Y-77537500D01*
X113500000Y-77750000D02*
X113287500Y-77537500D01*
X113500000Y-83250000D02*
X113500000Y-78750000D01*
X113050000Y-83700000D02*
X113500000Y-83250000D01*
X112000000Y-83700000D02*
X113050000Y-83700000D01*
%TO.N,GND*%
D43*
X90520000Y-71250000D02*
X92337500Y-71250000D01*
D44*
X84750000Y-75540000D02*
X85710000Y-75540000D01*
X81550000Y-70700000D02*
X81500000Y-70750000D01*
X85210000Y-67290000D02*
X85500000Y-67000000D01*
D43*
X102250000Y-68250000D02*
X102500000Y-68500000D01*
X94250000Y-64750000D02*
X94500000Y-64500000D01*
X94500000Y-64500000D02*
X94500000Y-64000000D01*
X92337500Y-71250000D02*
X93750000Y-71250000D01*
D44*
X81250000Y-77750000D02*
X81250000Y-77250000D01*
X84500000Y-69290000D02*
X85460000Y-69290000D01*
D43*
X94250000Y-66337500D02*
X94250000Y-64750000D01*
D44*
X84500000Y-67290000D02*
X85210000Y-67290000D01*
D43*
X98750000Y-73500000D02*
X98500000Y-73250000D01*
D44*
X90500000Y-66770000D02*
X90500000Y-65750000D01*
X85460000Y-69290000D02*
X85500000Y-69250000D01*
D43*
X94775000Y-63725000D02*
X94775000Y-63000000D01*
X94250000Y-66337500D02*
X94250000Y-67750000D01*
X94500000Y-64000000D02*
X94775000Y-63725000D01*
D44*
X84750000Y-73540000D02*
X84750000Y-72750000D01*
X85710000Y-75540000D02*
X85750000Y-75500000D01*
X83100000Y-73670000D02*
X83100000Y-72350000D01*
X81550000Y-69395000D02*
X81550000Y-70700000D01*
X82950000Y-67645000D02*
X82950000Y-66300000D01*
D43*
X100662500Y-68250000D02*
X99250000Y-68250000D01*
X90250000Y-71520000D02*
X90520000Y-71250000D01*
X98750000Y-74662500D02*
X98750000Y-73500000D01*
D44*
X81400000Y-77100000D02*
X81400000Y-75870000D01*
X83100000Y-72350000D02*
X83000000Y-72250000D01*
X82950000Y-66300000D02*
X83000000Y-66250000D01*
D43*
X100662500Y-68250000D02*
X102250000Y-68250000D01*
D44*
X81250000Y-77250000D02*
X81400000Y-77100000D01*
D43*
X98750000Y-74662500D02*
X98750000Y-76250000D01*
X98750000Y-76250000D02*
X98500000Y-76500000D01*
%TO.N,/USB_D-*%
D45*
X100712499Y-69700001D02*
X109381545Y-69700001D01*
X109381545Y-69700001D02*
X109431544Y-69750000D01*
X110025000Y-69750000D02*
X110175000Y-69900000D01*
X109431544Y-69750000D02*
X110025000Y-69750000D01*
X100662500Y-69750000D02*
X100712499Y-69700001D01*
%TO.N,/USB_D+*%
X100662500Y-69250000D02*
X110175000Y-69250000D01*
%TO.N,/LSE_IN*%
D43*
X83800000Y-66060050D02*
X83239950Y-65500000D01*
X84000000Y-68250000D02*
X83800000Y-68050000D01*
X89750000Y-68750000D02*
X89250000Y-68250000D01*
X84500000Y-68250000D02*
X84000000Y-68250000D01*
X82500000Y-65500000D02*
X81550000Y-66450000D01*
X83239950Y-65500000D02*
X82500000Y-65500000D01*
X81550000Y-66450000D02*
X81550000Y-67645000D01*
X92337500Y-68750000D02*
X89750000Y-68750000D01*
X83800000Y-68050000D02*
X83800000Y-66060050D01*
X89250000Y-68250000D02*
X84500000Y-68250000D01*
%TO.N,/LSE_OUT*%
X92337500Y-69250000D02*
X86896447Y-69250000D01*
X86896447Y-69250000D02*
X85896447Y-70250000D01*
X83805000Y-70250000D02*
X82950000Y-69395000D01*
X84500000Y-70250000D02*
X83805000Y-70250000D01*
X85896447Y-70250000D02*
X84500000Y-70250000D01*
%TO.N,/HSE_IN*%
X86000000Y-73500000D02*
X85000000Y-74500000D01*
X87250000Y-69750000D02*
X86000000Y-71000000D01*
X84530000Y-74720000D02*
X82450000Y-74720000D01*
X84750000Y-74500000D02*
X84530000Y-74720000D01*
X92337500Y-69750000D02*
X87250000Y-69750000D01*
X86000000Y-71000000D02*
X86000000Y-73500000D01*
X85000000Y-74500000D02*
X84750000Y-74500000D01*
X82450000Y-74720000D02*
X81400000Y-73670000D01*
%TO.N,/HSE_OUT*%
X87000000Y-75250000D02*
X85750000Y-76500000D01*
X85750000Y-76500000D02*
X84750000Y-76500000D01*
X88013154Y-70250000D02*
X87000000Y-71263154D01*
X92337500Y-70250000D02*
X88013154Y-70250000D01*
X83730000Y-76500000D02*
X83100000Y-75870000D01*
X84750000Y-76500000D02*
X83730000Y-76500000D01*
X87000000Y-71263154D02*
X87000000Y-75250000D01*
%TO.N,+3.3V*%
X92337500Y-71750000D02*
X91250000Y-71750000D01*
X90520000Y-72480000D02*
X90250000Y-72480000D01*
X91250000Y-71750000D02*
X90520000Y-72480000D01*
X100662500Y-67750000D02*
X102290000Y-67750000D01*
X93750000Y-66337500D02*
X93750000Y-64710000D01*
X93540000Y-64500000D02*
X93540000Y-64040000D01*
X93540000Y-64040000D02*
X93225000Y-63725000D01*
X90500000Y-67730000D02*
X92317500Y-67730000D01*
X99250000Y-74662500D02*
X99250000Y-76290000D01*
X99250000Y-76290000D02*
X99460000Y-76500000D01*
X93750000Y-64710000D02*
X93540000Y-64500000D01*
X92317500Y-67730000D02*
X92337500Y-67750000D01*
X93225000Y-63725000D02*
X93225000Y-63000000D01*
X102290000Y-67750000D02*
X102500000Y-67540000D01*
%TO.N,/NRST*%
X89730000Y-70750000D02*
X89230000Y-71250000D01*
X92337500Y-70750000D02*
X89730000Y-70750000D01*
%TO.N,/SWDIO*%
X100540000Y-66460000D02*
X100540000Y-59250000D01*
X98960050Y-67550000D02*
X98550000Y-67960050D01*
X100540000Y-66460000D02*
X99450000Y-67550000D01*
X98960050Y-68950000D02*
X99550000Y-68950000D01*
X98550000Y-67960050D02*
X98550000Y-68539950D01*
X99750000Y-68750000D02*
X100662500Y-68750000D01*
X98550000Y-68539950D02*
X98960050Y-68950000D01*
X99550000Y-68950000D02*
X99750000Y-68750000D01*
X99450000Y-67550000D02*
X98960050Y-67550000D01*
%TO.N,/SWCLK*%
X99250000Y-66337500D02*
X99250000Y-64250000D01*
X98000000Y-63000000D02*
X98000000Y-59250000D01*
X99250000Y-64250000D02*
X98000000Y-63000000D01*
%TO.N,/BOOT0*%
X92000000Y-61750000D02*
X90500000Y-63250000D01*
X94819408Y-61750000D02*
X92000000Y-61750000D01*
X90500000Y-63250000D02*
X83510000Y-63250000D01*
X95750000Y-66337500D02*
X95750000Y-62680592D01*
X95750000Y-62680592D02*
X94819408Y-61750000D01*
%TO.N,/SW_BOOT0*%
X82490000Y-59510000D02*
X82500000Y-59500000D01*
X82490000Y-63250000D02*
X82490000Y-59510000D01*
%TO.N,/RHDP_CONTROL*%
X79000000Y-87425000D02*
X76175000Y-90250000D01*
X80000000Y-80000000D02*
X79000000Y-81000000D01*
X86542894Y-80000000D02*
X80000000Y-80000000D01*
X79000000Y-81000000D02*
X79000000Y-87425000D01*
X93250000Y-78292894D02*
X92542894Y-79000000D01*
X92542894Y-79000000D02*
X87542894Y-79000000D01*
X93250000Y-74162500D02*
X93250000Y-78292894D01*
X92337500Y-73250000D02*
X93250000Y-74162500D01*
X87542894Y-79000000D02*
X86542894Y-80000000D01*
%TO.N,/CRHDP*%
X75262500Y-91512500D02*
X79375280Y-95625280D01*
X79375280Y-95625280D02*
X79375280Y-98271220D01*
%TO.N,+3.3V*%
D44*
X113500000Y-78750000D02*
X111750000Y-78750000D01*
X111750000Y-78750000D02*
X111250000Y-78250000D01*
X111250000Y-78250000D02*
X111250000Y-76750000D01*
X109250000Y-74750000D02*
X107250000Y-74750000D01*
X111250000Y-76750000D02*
X109250000Y-74750000D01*
X105500000Y-74750000D02*
X103500000Y-74750000D01*
%TO.N,/C0*%
D43*
X81592700Y-100124660D02*
X82967360Y-98750000D01*
X81592700Y-100234640D02*
X81592700Y-100124660D01*
X91699999Y-98750000D02*
X100140000Y-90310000D01*
X85500000Y-98750000D02*
X91699999Y-98750000D01*
%TD*%
%TA.AperFunction,Conductor*%
%TO.N,VBUS*%
G36*
X109249348Y-70255021D02*
G01*
X109274592Y-70262434D01*
X109327340Y-70293732D01*
X109361652Y-70328045D01*
X109361660Y-70328052D01*
X109361825Y-70328135D01*
X109474696Y-70385646D01*
X109474698Y-70385647D01*
X109568220Y-70400458D01*
X109568457Y-70400497D01*
X109568466Y-70400497D01*
X109568475Y-70400499D01*
X109568481Y-70400500D01*
X110707703Y-70400499D01*
X110721365Y-70401254D01*
X110722673Y-70401399D01*
X110727350Y-70403354D01*
X110742467Y-70405700D01*
X110742529Y-70405490D01*
X110743004Y-70405629D01*
X110742960Y-70405776D01*
X110745738Y-70406208D01*
X110759369Y-70410435D01*
X110786173Y-70427947D01*
X110787136Y-70428350D01*
X110787420Y-70428762D01*
X110816351Y-70447664D01*
X110819209Y-70450962D01*
X110848237Y-70514516D01*
X110849500Y-70532169D01*
X110849500Y-70564072D01*
X110863041Y-70632146D01*
X110863146Y-70637660D01*
X110864415Y-70640553D01*
X110863880Y-70675843D01*
X110862236Y-70686164D01*
X110832251Y-70749272D01*
X110772907Y-70786151D01*
X110718851Y-70788879D01*
X110709957Y-70787356D01*
X110704171Y-70785724D01*
X110697533Y-70784445D01*
X110688901Y-70782459D01*
X110565893Y-70749500D01*
X110565892Y-70749500D01*
X110434108Y-70749500D01*
X110306808Y-70783609D01*
X110306806Y-70783610D01*
X110192692Y-70849496D01*
X110192682Y-70849503D01*
X110096814Y-70945370D01*
X110086083Y-70954924D01*
X110084177Y-70956432D01*
X110075756Y-70962581D01*
X110073861Y-70964595D01*
X110067505Y-70969626D01*
X110038084Y-70981508D01*
X110009353Y-70994957D01*
X110003452Y-70995496D01*
X110002720Y-70995792D01*
X110001905Y-70995637D01*
X109994284Y-70996334D01*
X109977960Y-70996825D01*
X109951460Y-70994772D01*
X109950009Y-70994501D01*
X109950001Y-70994500D01*
X109950000Y-70994500D01*
X109949999Y-70994500D01*
X109507410Y-70994500D01*
X109500000Y-70994500D01*
X109497511Y-70994615D01*
X109471813Y-70995802D01*
X109464740Y-70996957D01*
X109464669Y-70996525D01*
X109444484Y-70999341D01*
X109440669Y-70999635D01*
X109439618Y-70999412D01*
X109431157Y-71000000D01*
X108000000Y-71000000D01*
X106750000Y-71499998D01*
X106750000Y-74271989D01*
X106749999Y-74271991D01*
X106750000Y-74271992D01*
X106744976Y-74306927D01*
X106735636Y-74338733D01*
X106719763Y-74372685D01*
X106673546Y-74441854D01*
X106673534Y-74441873D01*
X106673527Y-74441885D01*
X106624502Y-74560245D01*
X106624495Y-74560265D01*
X106624493Y-74560273D01*
X106599500Y-74685923D01*
X106599500Y-74769702D01*
X106594237Y-74787622D01*
X106624494Y-74939726D01*
X106624495Y-74939732D01*
X106624502Y-74939753D01*
X106673527Y-75058113D01*
X106673531Y-75058121D01*
X106673533Y-75058124D01*
X106673538Y-75058133D01*
X106673549Y-75058149D01*
X106719194Y-75126462D01*
X106719195Y-75126463D01*
X106734428Y-75158300D01*
X106744334Y-75189934D01*
X106750000Y-75226990D01*
X106750000Y-76930807D01*
X106744976Y-76965744D01*
X106737564Y-76990985D01*
X106706269Y-77043729D01*
X106091818Y-77658181D01*
X106030495Y-77691666D01*
X106004137Y-77694500D01*
X105888541Y-77694500D01*
X105843347Y-77700627D01*
X105807189Y-77705530D01*
X105743543Y-77723113D01*
X105743520Y-77723121D01*
X105690624Y-77743169D01*
X105690618Y-77743172D01*
X105600561Y-77810202D01*
X105553130Y-77861510D01*
X105553124Y-77861517D01*
X105516146Y-77910632D01*
X105476623Y-78015716D01*
X105464461Y-78084519D01*
X105461668Y-78171430D01*
X105461668Y-78171431D01*
X105607618Y-79484994D01*
X105605423Y-79525586D01*
X105511670Y-79947483D01*
X105499321Y-79980256D01*
X105482976Y-80010030D01*
X105461959Y-80038039D01*
X105298925Y-80201073D01*
X105270676Y-80222221D01*
X105247589Y-80234829D01*
X105188157Y-80250000D01*
X104319192Y-80250000D01*
X104319191Y-80249999D01*
X104319191Y-80250000D01*
X104284256Y-80244977D01*
X104259014Y-80237565D01*
X104206269Y-80206269D01*
X103798926Y-79798926D01*
X103777774Y-79770670D01*
X103765167Y-79747581D01*
X103750000Y-79688156D01*
X103750000Y-78052992D01*
X103754805Y-78018809D01*
X103764042Y-77986600D01*
X103778083Y-77955065D01*
X103906250Y-77750000D01*
X104981677Y-76029313D01*
X104995500Y-76011160D01*
X105010744Y-75994565D01*
X105027662Y-75979253D01*
X106000000Y-75250000D01*
X106005856Y-75200220D01*
X106012655Y-75171834D01*
X106022536Y-75145019D01*
X106035778Y-75119018D01*
X106076465Y-75058127D01*
X106125501Y-74939744D01*
X106150500Y-74814069D01*
X106150500Y-74685931D01*
X106150500Y-74685928D01*
X106150500Y-74685925D01*
X106125262Y-74559054D01*
X106123176Y-74554643D01*
X106109402Y-74521389D01*
X106101139Y-74490971D01*
X106096915Y-74460514D01*
X106096588Y-74428997D01*
X106489085Y-71092773D01*
X106498152Y-71058676D01*
X106504905Y-71042822D01*
X106515557Y-71029553D01*
X106521376Y-71014945D01*
X106546870Y-70990547D01*
X106557498Y-70982949D01*
X106586064Y-70967724D01*
X108468517Y-70261806D01*
X108489916Y-70255905D01*
X108511517Y-70251988D01*
X108533636Y-70250000D01*
X109214416Y-70250000D01*
X109249348Y-70255021D01*
G37*
%TD.AperFunction*%
%TD*%
%TA.AperFunction,Conductor*%
%TO.N,+3.3V*%
G36*
X107015677Y-78019685D02*
G01*
X107036319Y-78036319D01*
X107463681Y-78463681D01*
X107497166Y-78525004D01*
X107500000Y-78551362D01*
X107500000Y-81500000D01*
X108249994Y-82249995D01*
X108249997Y-82249998D01*
X109749998Y-83249999D01*
X109750000Y-83250000D01*
X112442161Y-83005258D01*
X112510707Y-83018792D01*
X112541068Y-83041068D01*
X112963681Y-83463681D01*
X112997166Y-83525004D01*
X113000000Y-83551362D01*
X113000000Y-84448638D01*
X112980315Y-84515677D01*
X112963681Y-84536319D01*
X110540858Y-86959141D01*
X110479535Y-86992626D01*
X110442435Y-86994994D01*
X104913758Y-86514239D01*
X104910410Y-86512931D01*
X104906853Y-86513443D01*
X104878110Y-86500316D01*
X104848676Y-86488821D01*
X104846566Y-86485911D01*
X104843297Y-86484418D01*
X104826211Y-86457832D01*
X104807667Y-86432251D01*
X104806894Y-86427774D01*
X104805523Y-86425640D01*
X104800500Y-86390705D01*
X104800500Y-86335101D01*
X104805024Y-86301913D01*
X106000000Y-82000002D01*
X106000000Y-80250000D01*
X105765299Y-78137692D01*
X105777460Y-78068890D01*
X105824889Y-78017584D01*
X105888541Y-78000000D01*
X106948638Y-78000000D01*
X107015677Y-78019685D01*
G37*
%TD.AperFunction*%
%TD*%
%TA.AperFunction,Conductor*%
%TO.N,GND*%
G36*
X109187215Y-75505021D02*
G01*
X109212459Y-75512434D01*
X109265205Y-75543730D01*
X109723303Y-76001828D01*
X109743527Y-76028415D01*
X109759532Y-76056683D01*
X109771925Y-76087703D01*
X110244454Y-77977817D01*
X110247227Y-77992739D01*
X110249071Y-78007717D01*
X110250000Y-78022869D01*
X110250000Y-79500000D01*
X110250001Y-79500001D01*
X110750000Y-79750000D01*
X111250000Y-80000000D01*
X112825395Y-80225056D01*
X112859265Y-80234968D01*
X112873489Y-80241449D01*
X112926328Y-80287151D01*
X112929753Y-80292470D01*
X112949500Y-80359490D01*
X112949500Y-82608170D01*
X112944475Y-82643114D01*
X112940070Y-82658112D01*
X112930439Y-82673101D01*
X112925432Y-82690175D01*
X112902327Y-82716855D01*
X112900958Y-82718042D01*
X112846097Y-82745518D01*
X112838539Y-82747163D01*
X112812168Y-82750000D01*
X112671194Y-82750000D01*
X112625231Y-82741167D01*
X112569886Y-82719078D01*
X112550299Y-82715211D01*
X112501338Y-82705544D01*
X112414502Y-82701013D01*
X112414499Y-82701013D01*
X112414496Y-82701013D01*
X111881242Y-82749491D01*
X111870016Y-82750000D01*
X110607204Y-82750000D01*
X110607199Y-82749999D01*
X110607197Y-82750000D01*
X110572263Y-82744975D01*
X110557264Y-82740570D01*
X110498501Y-82702808D01*
X110493869Y-82697463D01*
X110491511Y-82694742D01*
X110467581Y-82652747D01*
X110458666Y-82626000D01*
X110000000Y-81250000D01*
X108391830Y-81250000D01*
X108391825Y-81249999D01*
X108391823Y-81250000D01*
X108356889Y-81244975D01*
X108341890Y-81240570D01*
X108283144Y-81202827D01*
X108283115Y-81202793D01*
X108283114Y-81202793D01*
X108283113Y-81202791D01*
X108281957Y-81201458D01*
X108254477Y-81146583D01*
X108252832Y-81139021D01*
X108250000Y-81112668D01*
X108250000Y-78250000D01*
X107298926Y-77298926D01*
X107298921Y-77298921D01*
X107277774Y-77270670D01*
X107265167Y-77247581D01*
X107250000Y-77188156D01*
X107250000Y-75641829D01*
X107255023Y-75606893D01*
X107259427Y-75591895D01*
X107297172Y-75533144D01*
X107298541Y-75531957D01*
X107353420Y-75504477D01*
X107360979Y-75502833D01*
X107387332Y-75500000D01*
X109152283Y-75500000D01*
X109187215Y-75505021D01*
G37*
%TD.AperFunction*%
%TD*%
%TA.AperFunction,Conductor*%
%TO.N,/HV_R*%
G36*
X108652860Y-110074685D02*
G01*
X108681675Y-110100336D01*
X108723589Y-110151410D01*
X108751268Y-110174125D01*
X108883550Y-110282685D01*
X109066046Y-110380232D01*
X109264066Y-110440300D01*
X109264065Y-110440300D01*
X109302647Y-110444100D01*
X109418392Y-110455500D01*
X109418395Y-110455500D01*
X110771605Y-110455500D01*
X110771608Y-110455500D01*
X110925934Y-110440300D01*
X111123954Y-110380232D01*
X111297297Y-110287577D01*
X111365695Y-110273336D01*
X111430939Y-110298335D01*
X111472310Y-110354640D01*
X111479087Y-110384162D01*
X111737180Y-112876223D01*
X111724507Y-112944934D01*
X111676697Y-112995885D01*
X111626179Y-113012382D01*
X109249997Y-113250000D01*
X109249993Y-113250001D01*
X106500000Y-114249998D01*
X105774920Y-116908627D01*
X105738289Y-116968124D01*
X105675307Y-116998373D01*
X105655289Y-117000000D01*
X103628975Y-117000000D01*
X103561936Y-116980315D01*
X103516181Y-116927511D01*
X103505071Y-116871125D01*
X103768587Y-110174125D01*
X103790892Y-110107911D01*
X103845454Y-110064268D01*
X103892491Y-110055000D01*
X108585821Y-110055000D01*
X108652860Y-110074685D01*
G37*
%TD.AperFunction*%
%TD*%
M02*
