%TF.GenerationSoftware,KiCad,Pcbnew,10.0.4*%
%TF.CreationDate,2026-07-16T01:56:23-07:00*%
%TF.ProjectId,singleTube,73696e67-6c65-4547-9562-652e6b696361,rev?*%
%TF.SameCoordinates,Original*%
%TF.FileFunction,Soldermask,Bot*%
%TF.FilePolarity,Negative*%
%FSLAX46Y46*%
G04 Gerber Fmt 4.6, Leading zero omitted, Abs format (unit mm)*
G04 Created by KiCad (PCBNEW 10.0.4) date 2026-07-16 01:56:23*
%MOMM*%
%LPD*%
G01*
G04 APERTURE LIST*
%ADD10O,1.524800X2.845600*%
%ADD11C,3.200000*%
%ADD12C,0.600000*%
%ADD13O,1.700000X1.000000*%
%ADD14O,1.700000X0.850000*%
%ADD15C,1.700000*%
%ADD16R,1.700000X1.700000*%
%ADD17C,1.346200*%
%ADD18C,2.000000*%
%ADD19O,2.641600X2.641600*%
G04 APERTURE END LIST*
D10*
%TO.C,U5*%
X100140000Y-90310000D03*
X97600000Y-90310000D03*
X95060000Y-90310000D03*
X92520000Y-90310000D03*
X89980000Y-90310000D03*
X87440000Y-90310000D03*
X84900000Y-90310000D03*
X82360000Y-90310000D03*
X82360000Y-82690000D03*
X84900000Y-82690000D03*
X87440000Y-82690000D03*
X89980000Y-82690000D03*
X92520000Y-82690000D03*
X95060000Y-82690000D03*
X97600000Y-82690000D03*
X100140000Y-82690000D03*
%TD*%
D11*
%TO.C,H2*%
X109750000Y-58000000D03*
%TD*%
D12*
%TO.C,J1*%
X110500000Y-71250000D03*
X110500000Y-67250000D03*
D13*
X112850000Y-72075000D03*
D14*
X112850000Y-66425000D03*
%TD*%
D11*
%TO.C,H3*%
X69750000Y-117000000D03*
%TD*%
%TO.C,H4*%
X109750000Y-117000000D03*
%TD*%
D15*
%TO.C,J2*%
X95460000Y-59250000D03*
X98000000Y-59250000D03*
X100540000Y-59250000D03*
D16*
X103080000Y-59250000D03*
%TD*%
D17*
%TO.C,N1*%
X81592700Y-100234640D03*
X71407300Y-100234640D03*
X70355740Y-103005780D03*
X70713880Y-105944560D03*
X72395360Y-108382960D03*
X75019180Y-109759640D03*
X77980820Y-109759640D03*
X80604640Y-108382960D03*
X82286120Y-105944560D03*
X82644260Y-103005780D03*
X76500000Y-97562560D03*
X73624720Y-98271220D03*
X79375280Y-98271220D03*
%TD*%
D18*
%TO.C,SW1*%
X88500000Y-61250000D03*
X88500000Y-55250000D03*
X76500000Y-61250000D03*
X76500000Y-55250000D03*
D15*
X86500000Y-59500000D03*
X82500000Y-59500000D03*
X78500000Y-59500000D03*
%TD*%
D11*
%TO.C,H1*%
X69750000Y-58000000D03*
%TD*%
D19*
%TO.C,U2*%
X105399000Y-96650300D03*
X105399000Y-111870000D03*
X97746000Y-96630000D03*
X92666000Y-111870000D03*
%TD*%
M02*
